<?xml version="1.0" encoding="utf-8" standalone="no"?>
<!DOCTYPE svg PUBLIC "-//W3C//DTD SVG 1.1//EN"
  "http://www.w3.org/Graphics/SVG/1.1/DTD/svg11.dtd">
<!-- Created with matplotlib (https://matplotlib.org/) -->
<svg height="345.6pt" version="1.1" viewBox="0 0 460.8 345.6" width="460.8pt" xmlns="http://www.w3.org/2000/svg" xmlns:xlink="http://www.w3.org/1999/xlink">
 <metadata>
  <rdf:RDF xmlns:cc="http://creativecommons.org/ns#" xmlns:dc="http://purl.org/dc/elements/1.1/" xmlns:rdf="http://www.w3.org/1999/02/22-rdf-syntax-ns#">
   <cc:Work>
    <dc:type rdf:resource="http://purl.org/dc/dcmitype/StillImage"/>
    <dc:date>2021-02-05T16:21:26.544550</dc:date>
    <dc:format>image/svg+xml</dc:format>
    <dc:creator>
     <cc:Agent>
      <dc:title>Matplotlib v3.3.2, https://matplotlib.org/</dc:title>
     </cc:Agent>
    </dc:creator>
   </cc:Work>
  </rdf:RDF>
 </metadata>
 <defs>
  <style type="text/css">*{stroke-linecap:butt;stroke-linejoin:round;}</style>
 </defs>
 <g id="figure_1">
  <g id="patch_1">
   <path d="M 0 345.6 
L 460.8 345.6 
L 460.8 0 
L 0 0 
z
" style="fill:#ffffff;"/>
  </g>
  <g id="axes_1">
   <g id="patch_2">
    <path d="M 44.57 303.64 
L 450 303.64 
L 450 26.88 
L 44.57 26.88 
z
" style="fill:#ffffff;"/>
   </g>
   <g id="matplotlib.axis_1">
    <g id="xtick_1">
     <g id="line2d_1">
      <path clip-path="url(#p80fcc8551c)" d="M 62.998636 303.64 
L 62.998636 26.88 
" style="fill:none;stroke:#b0b0b0;stroke-linecap:square;stroke-width:0.8;"/>
     </g>
     <g id="line2d_2">
      <defs>
       <path d="M 0 0 
L 0 3.5 
" id="m00137b1bb5" style="stroke:#000000;stroke-width:0.8;"/>
      </defs>
      <g>
       <use style="stroke:#000000;stroke-width:0.8;" x="62.998636" xlink:href="#m00137b1bb5" y="303.64"/>
      </g>
     </g>
     <g id="text_1">
      <!-- 0 -->
      <g transform="translate(59.817386 318.238437)scale(0.1 -0.1)">
       <defs>
        <path d="M 31.78125 66.40625 
Q 24.171875 66.40625 20.328125 58.90625 
Q 16.5 51.421875 16.5 36.375 
Q 16.5 21.390625 20.328125 13.890625 
Q 24.171875 6.390625 31.78125 6.390625 
Q 39.453125 6.390625 43.28125 13.890625 
Q 47.125 21.390625 47.125 36.375 
Q 47.125 51.421875 43.28125 58.90625 
Q 39.453125 66.40625 31.78125 66.40625 
z
M 31.78125 74.21875 
Q 44.046875 74.21875 50.515625 64.515625 
Q 56.984375 54.828125 56.984375 36.375 
Q 56.984375 17.96875 50.515625 8.265625 
Q 44.046875 -1.421875 31.78125 -1.421875 
Q 19.53125 -1.421875 13.0625 8.265625 
Q 6.59375 17.96875 6.59375 36.375 
Q 6.59375 54.828125 13.0625 64.515625 
Q 19.53125 74.21875 31.78125 74.21875 
z
" id="DejaVuSans-48"/>
       </defs>
       <use xlink:href="#DejaVuSans-48"/>
      </g>
     </g>
    </g>
    <g id="xtick_2">
     <g id="line2d_3">
      <path clip-path="url(#p80fcc8551c)" d="M 136.78697 303.64 
L 136.78697 26.88 
" style="fill:none;stroke:#b0b0b0;stroke-linecap:square;stroke-width:0.8;"/>
     </g>
     <g id="line2d_4">
      <g>
       <use style="stroke:#000000;stroke-width:0.8;" x="136.78697" xlink:href="#m00137b1bb5" y="303.64"/>
      </g>
     </g>
     <g id="text_2">
      <!-- 200 -->
      <g transform="translate(127.24322 318.238437)scale(0.1 -0.1)">
       <defs>
        <path d="M 19.1875 8.296875 
L 53.609375 8.296875 
L 53.609375 0 
L 7.328125 0 
L 7.328125 8.296875 
Q 12.9375 14.109375 22.625 23.890625 
Q 32.328125 33.6875 34.8125 36.53125 
Q 39.546875 41.84375 41.421875 45.53125 
Q 43.3125 49.21875 43.3125 52.78125 
Q 43.3125 58.59375 39.234375 62.25 
Q 35.15625 65.921875 28.609375 65.921875 
Q 23.96875 65.921875 18.8125 64.3125 
Q 13.671875 62.703125 7.8125 59.421875 
L 7.8125 69.390625 
Q 13.765625 71.78125 18.9375 73 
Q 24.125 74.21875 28.421875 74.21875 
Q 39.75 74.21875 46.484375 68.546875 
Q 53.21875 62.890625 53.21875 53.421875 
Q 53.21875 48.921875 51.53125 44.890625 
Q 49.859375 40.875 45.40625 35.40625 
Q 44.1875 33.984375 37.640625 27.21875 
Q 31.109375 20.453125 19.1875 8.296875 
z
" id="DejaVuSans-50"/>
       </defs>
       <use xlink:href="#DejaVuSans-50"/>
       <use x="63.623047" xlink:href="#DejaVuSans-48"/>
       <use x="127.246094" xlink:href="#DejaVuSans-48"/>
      </g>
     </g>
    </g>
    <g id="xtick_3">
     <g id="line2d_5">
      <path clip-path="url(#p80fcc8551c)" d="M 210.575304 303.64 
L 210.575304 26.88 
" style="fill:none;stroke:#b0b0b0;stroke-linecap:square;stroke-width:0.8;"/>
     </g>
     <g id="line2d_6">
      <g>
       <use style="stroke:#000000;stroke-width:0.8;" x="210.575304" xlink:href="#m00137b1bb5" y="303.64"/>
      </g>
     </g>
     <g id="text_3">
      <!-- 400 -->
      <g transform="translate(201.031554 318.238437)scale(0.1 -0.1)">
       <defs>
        <path d="M 37.796875 64.3125 
L 12.890625 25.390625 
L 37.796875 25.390625 
z
M 35.203125 72.90625 
L 47.609375 72.90625 
L 47.609375 25.390625 
L 58.015625 25.390625 
L 58.015625 17.1875 
L 47.609375 17.1875 
L 47.609375 0 
L 37.796875 0 
L 37.796875 17.1875 
L 4.890625 17.1875 
L 4.890625 26.703125 
z
" id="DejaVuSans-52"/>
       </defs>
       <use xlink:href="#DejaVuSans-52"/>
       <use x="63.623047" xlink:href="#DejaVuSans-48"/>
       <use x="127.246094" xlink:href="#DejaVuSans-48"/>
      </g>
     </g>
    </g>
    <g id="xtick_4">
     <g id="line2d_7">
      <path clip-path="url(#p80fcc8551c)" d="M 284.363638 303.64 
L 284.363638 26.88 
" style="fill:none;stroke:#b0b0b0;stroke-linecap:square;stroke-width:0.8;"/>
     </g>
     <g id="line2d_8">
      <g>
       <use style="stroke:#000000;stroke-width:0.8;" x="284.363638" xlink:href="#m00137b1bb5" y="303.64"/>
      </g>
     </g>
     <g id="text_4">
      <!-- 600 -->
      <g transform="translate(274.819888 318.238437)scale(0.1 -0.1)">
       <defs>
        <path d="M 33.015625 40.375 
Q 26.375 40.375 22.484375 35.828125 
Q 18.609375 31.296875 18.609375 23.390625 
Q 18.609375 15.53125 22.484375 10.953125 
Q 26.375 6.390625 33.015625 6.390625 
Q 39.65625 6.390625 43.53125 10.953125 
Q 47.40625 15.53125 47.40625 23.390625 
Q 47.40625 31.296875 43.53125 35.828125 
Q 39.65625 40.375 33.015625 40.375 
z
M 52.59375 71.296875 
L 52.59375 62.3125 
Q 48.875 64.0625 45.09375 64.984375 
Q 41.3125 65.921875 37.59375 65.921875 
Q 27.828125 65.921875 22.671875 59.328125 
Q 17.53125 52.734375 16.796875 39.40625 
Q 19.671875 43.65625 24.015625 45.921875 
Q 28.375 48.1875 33.59375 48.1875 
Q 44.578125 48.1875 50.953125 41.515625 
Q 57.328125 34.859375 57.328125 23.390625 
Q 57.328125 12.15625 50.6875 5.359375 
Q 44.046875 -1.421875 33.015625 -1.421875 
Q 20.359375 -1.421875 13.671875 8.265625 
Q 6.984375 17.96875 6.984375 36.375 
Q 6.984375 53.65625 15.1875 63.9375 
Q 23.390625 74.21875 37.203125 74.21875 
Q 40.921875 74.21875 44.703125 73.484375 
Q 48.484375 72.75 52.59375 71.296875 
z
" id="DejaVuSans-54"/>
       </defs>
       <use xlink:href="#DejaVuSans-54"/>
       <use x="63.623047" xlink:href="#DejaVuSans-48"/>
       <use x="127.246094" xlink:href="#DejaVuSans-48"/>
      </g>
     </g>
    </g>
    <g id="xtick_5">
     <g id="line2d_9">
      <path clip-path="url(#p80fcc8551c)" d="M 358.151972 303.64 
L 358.151972 26.88 
" style="fill:none;stroke:#b0b0b0;stroke-linecap:square;stroke-width:0.8;"/>
     </g>
     <g id="line2d_10">
      <g>
       <use style="stroke:#000000;stroke-width:0.8;" x="358.151972" xlink:href="#m00137b1bb5" y="303.64"/>
      </g>
     </g>
     <g id="text_5">
      <!-- 800 -->
      <g transform="translate(348.608222 318.238437)scale(0.1 -0.1)">
       <defs>
        <path d="M 31.78125 34.625 
Q 24.75 34.625 20.71875 30.859375 
Q 16.703125 27.09375 16.703125 20.515625 
Q 16.703125 13.921875 20.71875 10.15625 
Q 24.75 6.390625 31.78125 6.390625 
Q 38.8125 6.390625 42.859375 10.171875 
Q 46.921875 13.96875 46.921875 20.515625 
Q 46.921875 27.09375 42.890625 30.859375 
Q 38.875 34.625 31.78125 34.625 
z
M 21.921875 38.8125 
Q 15.578125 40.375 12.03125 44.71875 
Q 8.5 49.078125 8.5 55.328125 
Q 8.5 64.0625 14.71875 69.140625 
Q 20.953125 74.21875 31.78125 74.21875 
Q 42.671875 74.21875 48.875 69.140625 
Q 55.078125 64.0625 55.078125 55.328125 
Q 55.078125 49.078125 51.53125 44.71875 
Q 48 40.375 41.703125 38.8125 
Q 48.828125 37.15625 52.796875 32.3125 
Q 56.78125 27.484375 56.78125 20.515625 
Q 56.78125 9.90625 50.3125 4.234375 
Q 43.84375 -1.421875 31.78125 -1.421875 
Q 19.734375 -1.421875 13.25 4.234375 
Q 6.78125 9.90625 6.78125 20.515625 
Q 6.78125 27.484375 10.78125 32.3125 
Q 14.796875 37.15625 21.921875 38.8125 
z
M 18.3125 54.390625 
Q 18.3125 48.734375 21.84375 45.5625 
Q 25.390625 42.390625 31.78125 42.390625 
Q 38.140625 42.390625 41.71875 45.5625 
Q 45.3125 48.734375 45.3125 54.390625 
Q 45.3125 60.0625 41.71875 63.234375 
Q 38.140625 66.40625 31.78125 66.40625 
Q 25.390625 66.40625 21.84375 63.234375 
Q 18.3125 60.0625 18.3125 54.390625 
z
" id="DejaVuSans-56"/>
       </defs>
       <use xlink:href="#DejaVuSans-56"/>
       <use x="63.623047" xlink:href="#DejaVuSans-48"/>
       <use x="127.246094" xlink:href="#DejaVuSans-48"/>
      </g>
     </g>
    </g>
    <g id="xtick_6">
     <g id="line2d_11">
      <path clip-path="url(#p80fcc8551c)" d="M 431.940305 303.64 
L 431.940305 26.88 
" style="fill:none;stroke:#b0b0b0;stroke-linecap:square;stroke-width:0.8;"/>
     </g>
     <g id="line2d_12">
      <g>
       <use style="stroke:#000000;stroke-width:0.8;" x="431.940305" xlink:href="#m00137b1bb5" y="303.64"/>
      </g>
     </g>
     <g id="text_6">
      <!-- 1000 -->
      <g transform="translate(419.215305 318.238437)scale(0.1 -0.1)">
       <defs>
        <path d="M 12.40625 8.296875 
L 28.515625 8.296875 
L 28.515625 63.921875 
L 10.984375 60.40625 
L 10.984375 69.390625 
L 28.421875 72.90625 
L 38.28125 72.90625 
L 38.28125 8.296875 
L 54.390625 8.296875 
L 54.390625 0 
L 12.40625 0 
z
" id="DejaVuSans-49"/>
       </defs>
       <use xlink:href="#DejaVuSans-49"/>
       <use x="63.623047" xlink:href="#DejaVuSans-48"/>
       <use x="127.246094" xlink:href="#DejaVuSans-48"/>
       <use x="190.869141" xlink:href="#DejaVuSans-48"/>
      </g>
     </g>
    </g>
    <g id="text_7">
     <!-- Iteration -->
     <g transform="translate(226.076406 331.916562)scale(0.1 -0.1)">
      <defs>
       <path d="M 9.8125 72.90625 
L 19.671875 72.90625 
L 19.671875 0 
L 9.8125 0 
z
" id="DejaVuSans-73"/>
       <path d="M 18.3125 70.21875 
L 18.3125 54.6875 
L 36.8125 54.6875 
L 36.8125 47.703125 
L 18.3125 47.703125 
L 18.3125 18.015625 
Q 18.3125 11.328125 20.140625 9.421875 
Q 21.96875 7.515625 27.59375 7.515625 
L 36.8125 7.515625 
L 36.8125 0 
L 27.59375 0 
Q 17.1875 0 13.234375 3.875 
Q 9.28125 7.765625 9.28125 18.015625 
L 9.28125 47.703125 
L 2.6875 47.703125 
L 2.6875 54.6875 
L 9.28125 54.6875 
L 9.28125 70.21875 
z
" id="DejaVuSans-116"/>
       <path d="M 56.203125 29.59375 
L 56.203125 25.203125 
L 14.890625 25.203125 
Q 15.484375 15.921875 20.484375 11.0625 
Q 25.484375 6.203125 34.421875 6.203125 
Q 39.59375 6.203125 44.453125 7.46875 
Q 49.3125 8.734375 54.109375 11.28125 
L 54.109375 2.78125 
Q 49.265625 0.734375 44.1875 -0.34375 
Q 39.109375 -1.421875 33.890625 -1.421875 
Q 20.796875 -1.421875 13.15625 6.1875 
Q 5.515625 13.8125 5.515625 26.8125 
Q 5.515625 40.234375 12.765625 48.109375 
Q 20.015625 56 32.328125 56 
Q 43.359375 56 49.78125 48.890625 
Q 56.203125 41.796875 56.203125 29.59375 
z
M 47.21875 32.234375 
Q 47.125 39.59375 43.09375 43.984375 
Q 39.0625 48.390625 32.421875 48.390625 
Q 24.90625 48.390625 20.390625 44.140625 
Q 15.875 39.890625 15.1875 32.171875 
z
" id="DejaVuSans-101"/>
       <path d="M 41.109375 46.296875 
Q 39.59375 47.171875 37.8125 47.578125 
Q 36.03125 48 33.890625 48 
Q 26.265625 48 22.1875 43.046875 
Q 18.109375 38.09375 18.109375 28.8125 
L 18.109375 0 
L 9.078125 0 
L 9.078125 54.6875 
L 18.109375 54.6875 
L 18.109375 46.1875 
Q 20.953125 51.171875 25.484375 53.578125 
Q 30.03125 56 36.53125 56 
Q 37.453125 56 38.578125 55.875 
Q 39.703125 55.765625 41.0625 55.515625 
z
" id="DejaVuSans-114"/>
       <path d="M 34.28125 27.484375 
Q 23.390625 27.484375 19.1875 25 
Q 14.984375 22.515625 14.984375 16.5 
Q 14.984375 11.71875 18.140625 8.90625 
Q 21.296875 6.109375 26.703125 6.109375 
Q 34.1875 6.109375 38.703125 11.40625 
Q 43.21875 16.703125 43.21875 25.484375 
L 43.21875 27.484375 
z
M 52.203125 31.203125 
L 52.203125 0 
L 43.21875 0 
L 43.21875 8.296875 
Q 40.140625 3.328125 35.546875 0.953125 
Q 30.953125 -1.421875 24.3125 -1.421875 
Q 15.921875 -1.421875 10.953125 3.296875 
Q 6 8.015625 6 15.921875 
Q 6 25.140625 12.171875 29.828125 
Q 18.359375 34.515625 30.609375 34.515625 
L 43.21875 34.515625 
L 43.21875 35.40625 
Q 43.21875 41.609375 39.140625 45 
Q 35.0625 48.390625 27.6875 48.390625 
Q 23 48.390625 18.546875 47.265625 
Q 14.109375 46.140625 10.015625 43.890625 
L 10.015625 52.203125 
Q 14.9375 54.109375 19.578125 55.046875 
Q 24.21875 56 28.609375 56 
Q 40.484375 56 46.34375 49.84375 
Q 52.203125 43.703125 52.203125 31.203125 
z
" id="DejaVuSans-97"/>
       <path d="M 9.421875 54.6875 
L 18.40625 54.6875 
L 18.40625 0 
L 9.421875 0 
z
M 9.421875 75.984375 
L 18.40625 75.984375 
L 18.40625 64.59375 
L 9.421875 64.59375 
z
" id="DejaVuSans-105"/>
       <path d="M 30.609375 48.390625 
Q 23.390625 48.390625 19.1875 42.75 
Q 14.984375 37.109375 14.984375 27.296875 
Q 14.984375 17.484375 19.15625 11.84375 
Q 23.34375 6.203125 30.609375 6.203125 
Q 37.796875 6.203125 41.984375 11.859375 
Q 46.1875 17.53125 46.1875 27.296875 
Q 46.1875 37.015625 41.984375 42.703125 
Q 37.796875 48.390625 30.609375 48.390625 
z
M 30.609375 56 
Q 42.328125 56 49.015625 48.375 
Q 55.71875 40.765625 55.71875 27.296875 
Q 55.71875 13.875 49.015625 6.21875 
Q 42.328125 -1.421875 30.609375 -1.421875 
Q 18.84375 -1.421875 12.171875 6.21875 
Q 5.515625 13.875 5.515625 27.296875 
Q 5.515625 40.765625 12.171875 48.375 
Q 18.84375 56 30.609375 56 
z
" id="DejaVuSans-111"/>
       <path d="M 54.890625 33.015625 
L 54.890625 0 
L 45.90625 0 
L 45.90625 32.71875 
Q 45.90625 40.484375 42.875 44.328125 
Q 39.84375 48.1875 33.796875 48.1875 
Q 26.515625 48.1875 22.3125 43.546875 
Q 18.109375 38.921875 18.109375 30.90625 
L 18.109375 0 
L 9.078125 0 
L 9.078125 54.6875 
L 18.109375 54.6875 
L 18.109375 46.1875 
Q 21.34375 51.125 25.703125 53.5625 
Q 30.078125 56 35.796875 56 
Q 45.21875 56 50.046875 50.171875 
Q 54.890625 44.34375 54.890625 33.015625 
z
" id="DejaVuSans-110"/>
      </defs>
      <use xlink:href="#DejaVuSans-73"/>
      <use x="29.492188" xlink:href="#DejaVuSans-116"/>
      <use x="68.701172" xlink:href="#DejaVuSans-101"/>
      <use x="130.224609" xlink:href="#DejaVuSans-114"/>
      <use x="171.337891" xlink:href="#DejaVuSans-97"/>
      <use x="232.617188" xlink:href="#DejaVuSans-116"/>
      <use x="271.826172" xlink:href="#DejaVuSans-105"/>
      <use x="299.609375" xlink:href="#DejaVuSans-111"/>
      <use x="360.791016" xlink:href="#DejaVuSans-110"/>
     </g>
    </g>
   </g>
   <g id="matplotlib.axis_2">
    <g id="ytick_1">
     <g id="line2d_13">
      <path clip-path="url(#p80fcc8551c)" d="M 44.57 283.1975 
L 450 283.1975 
" style="fill:none;stroke:#b0b0b0;stroke-linecap:square;stroke-width:0.8;"/>
     </g>
     <g id="line2d_14">
      <defs>
       <path d="M 0 0 
L -3.5 0 
" id="m8ddaf47d52" style="stroke:#000000;stroke-width:0.8;"/>
      </defs>
      <g>
       <use style="stroke:#000000;stroke-width:0.8;" x="44.57" xlink:href="#m8ddaf47d52" y="283.1975"/>
      </g>
     </g>
     <g id="text_8">
      <!-- 5 -->
      <g transform="translate(31.2075 286.996719)scale(0.1 -0.1)">
       <defs>
        <path d="M 10.796875 72.90625 
L 49.515625 72.90625 
L 49.515625 64.59375 
L 19.828125 64.59375 
L 19.828125 46.734375 
Q 21.96875 47.46875 24.109375 47.828125 
Q 26.265625 48.1875 28.421875 48.1875 
Q 40.625 48.1875 47.75 41.5 
Q 54.890625 34.8125 54.890625 23.390625 
Q 54.890625 11.625 47.5625 5.09375 
Q 40.234375 -1.421875 26.90625 -1.421875 
Q 22.3125 -1.421875 17.546875 -0.640625 
Q 12.796875 0.140625 7.71875 1.703125 
L 7.71875 11.625 
Q 12.109375 9.234375 16.796875 8.0625 
Q 21.484375 6.890625 26.703125 6.890625 
Q 35.15625 6.890625 40.078125 11.328125 
Q 45.015625 15.765625 45.015625 23.390625 
Q 45.015625 31 40.078125 35.4375 
Q 35.15625 39.890625 26.703125 39.890625 
Q 22.75 39.890625 18.8125 39.015625 
Q 14.890625 38.140625 10.796875 36.28125 
z
" id="DejaVuSans-53"/>
       </defs>
       <use xlink:href="#DejaVuSans-53"/>
      </g>
     </g>
    </g>
    <g id="ytick_2">
     <g id="line2d_15">
      <path clip-path="url(#p80fcc8551c)" d="M 44.57 243.885 
L 450 243.885 
" style="fill:none;stroke:#b0b0b0;stroke-linecap:square;stroke-width:0.8;"/>
     </g>
     <g id="line2d_16">
      <g>
       <use style="stroke:#000000;stroke-width:0.8;" x="44.57" xlink:href="#m8ddaf47d52" y="243.885"/>
      </g>
     </g>
     <g id="text_9">
      <!-- 10 -->
      <g transform="translate(24.845 247.684219)scale(0.1 -0.1)">
       <use xlink:href="#DejaVuSans-49"/>
       <use x="63.623047" xlink:href="#DejaVuSans-48"/>
      </g>
     </g>
    </g>
    <g id="ytick_3">
     <g id="line2d_17">
      <path clip-path="url(#p80fcc8551c)" d="M 44.57 204.5725 
L 450 204.5725 
" style="fill:none;stroke:#b0b0b0;stroke-linecap:square;stroke-width:0.8;"/>
     </g>
     <g id="line2d_18">
      <g>
       <use style="stroke:#000000;stroke-width:0.8;" x="44.57" xlink:href="#m8ddaf47d52" y="204.5725"/>
      </g>
     </g>
     <g id="text_10">
      <!-- 15 -->
      <g transform="translate(24.845 208.371719)scale(0.1 -0.1)">
       <use xlink:href="#DejaVuSans-49"/>
       <use x="63.623047" xlink:href="#DejaVuSans-53"/>
      </g>
     </g>
    </g>
    <g id="ytick_4">
     <g id="line2d_19">
      <path clip-path="url(#p80fcc8551c)" d="M 44.57 165.26 
L 450 165.26 
" style="fill:none;stroke:#b0b0b0;stroke-linecap:square;stroke-width:0.8;"/>
     </g>
     <g id="line2d_20">
      <g>
       <use style="stroke:#000000;stroke-width:0.8;" x="44.57" xlink:href="#m8ddaf47d52" y="165.26"/>
      </g>
     </g>
     <g id="text_11">
      <!-- 20 -->
      <g transform="translate(24.845 169.059219)scale(0.1 -0.1)">
       <use xlink:href="#DejaVuSans-50"/>
       <use x="63.623047" xlink:href="#DejaVuSans-48"/>
      </g>
     </g>
    </g>
    <g id="ytick_5">
     <g id="line2d_21">
      <path clip-path="url(#p80fcc8551c)" d="M 44.57 125.9475 
L 450 125.9475 
" style="fill:none;stroke:#b0b0b0;stroke-linecap:square;stroke-width:0.8;"/>
     </g>
     <g id="line2d_22">
      <g>
       <use style="stroke:#000000;stroke-width:0.8;" x="44.57" xlink:href="#m8ddaf47d52" y="125.9475"/>
      </g>
     </g>
     <g id="text_12">
      <!-- 25 -->
      <g transform="translate(24.845 129.746719)scale(0.1 -0.1)">
       <use xlink:href="#DejaVuSans-50"/>
       <use x="63.623047" xlink:href="#DejaVuSans-53"/>
      </g>
     </g>
    </g>
    <g id="ytick_6">
     <g id="line2d_23">
      <path clip-path="url(#p80fcc8551c)" d="M 44.57 86.635 
L 450 86.635 
" style="fill:none;stroke:#b0b0b0;stroke-linecap:square;stroke-width:0.8;"/>
     </g>
     <g id="line2d_24">
      <g>
       <use style="stroke:#000000;stroke-width:0.8;" x="44.57" xlink:href="#m8ddaf47d52" y="86.635"/>
      </g>
     </g>
     <g id="text_13">
      <!-- 30 -->
      <g transform="translate(24.845 90.434219)scale(0.1 -0.1)">
       <defs>
        <path d="M 40.578125 39.3125 
Q 47.65625 37.796875 51.625 33 
Q 55.609375 28.21875 55.609375 21.1875 
Q 55.609375 10.40625 48.1875 4.484375 
Q 40.765625 -1.421875 27.09375 -1.421875 
Q 22.515625 -1.421875 17.65625 -0.515625 
Q 12.796875 0.390625 7.625 2.203125 
L 7.625 11.71875 
Q 11.71875 9.328125 16.59375 8.109375 
Q 21.484375 6.890625 26.8125 6.890625 
Q 36.078125 6.890625 40.9375 10.546875 
Q 45.796875 14.203125 45.796875 21.1875 
Q 45.796875 27.640625 41.28125 31.265625 
Q 36.765625 34.90625 28.71875 34.90625 
L 20.21875 34.90625 
L 20.21875 43.015625 
L 29.109375 43.015625 
Q 36.375 43.015625 40.234375 45.921875 
Q 44.09375 48.828125 44.09375 54.296875 
Q 44.09375 59.90625 40.109375 62.90625 
Q 36.140625 65.921875 28.71875 65.921875 
Q 24.65625 65.921875 20.015625 65.03125 
Q 15.375 64.15625 9.8125 62.3125 
L 9.8125 71.09375 
Q 15.4375 72.65625 20.34375 73.4375 
Q 25.25 74.21875 29.59375 74.21875 
Q 40.828125 74.21875 47.359375 69.109375 
Q 53.90625 64.015625 53.90625 55.328125 
Q 53.90625 49.265625 50.4375 45.09375 
Q 46.96875 40.921875 40.578125 39.3125 
z
" id="DejaVuSans-51"/>
       </defs>
       <use xlink:href="#DejaVuSans-51"/>
       <use x="63.623047" xlink:href="#DejaVuSans-48"/>
      </g>
     </g>
    </g>
    <g id="ytick_7">
     <g id="line2d_25">
      <path clip-path="url(#p80fcc8551c)" d="M 44.57 47.3225 
L 450 47.3225 
" style="fill:none;stroke:#b0b0b0;stroke-linecap:square;stroke-width:0.8;"/>
     </g>
     <g id="line2d_26">
      <g>
       <use style="stroke:#000000;stroke-width:0.8;" x="44.57" xlink:href="#m8ddaf47d52" y="47.3225"/>
      </g>
     </g>
     <g id="text_14">
      <!-- 35 -->
      <g transform="translate(24.845 51.121719)scale(0.1 -0.1)">
       <use xlink:href="#DejaVuSans-51"/>
       <use x="63.623047" xlink:href="#DejaVuSans-53"/>
      </g>
     </g>
    </g>
    <g id="text_15">
     <!-- Packets -->
     <g transform="translate(18.765313 184.218594)rotate(-90)scale(0.1 -0.1)">
      <defs>
       <path d="M 19.671875 64.796875 
L 19.671875 37.40625 
L 32.078125 37.40625 
Q 38.96875 37.40625 42.71875 40.96875 
Q 46.484375 44.53125 46.484375 51.125 
Q 46.484375 57.671875 42.71875 61.234375 
Q 38.96875 64.796875 32.078125 64.796875 
z
M 9.8125 72.90625 
L 32.078125 72.90625 
Q 44.34375 72.90625 50.609375 67.359375 
Q 56.890625 61.8125 56.890625 51.125 
Q 56.890625 40.328125 50.609375 34.8125 
Q 44.34375 29.296875 32.078125 29.296875 
L 19.671875 29.296875 
L 19.671875 0 
L 9.8125 0 
z
" id="DejaVuSans-80"/>
       <path d="M 48.78125 52.59375 
L 48.78125 44.1875 
Q 44.96875 46.296875 41.140625 47.34375 
Q 37.3125 48.390625 33.40625 48.390625 
Q 24.65625 48.390625 19.8125 42.84375 
Q 14.984375 37.3125 14.984375 27.296875 
Q 14.984375 17.28125 19.8125 11.734375 
Q 24.65625 6.203125 33.40625 6.203125 
Q 37.3125 6.203125 41.140625 7.25 
Q 44.96875 8.296875 48.78125 10.40625 
L 48.78125 2.09375 
Q 45.015625 0.34375 40.984375 -0.53125 
Q 36.96875 -1.421875 32.421875 -1.421875 
Q 20.0625 -1.421875 12.78125 6.34375 
Q 5.515625 14.109375 5.515625 27.296875 
Q 5.515625 40.671875 12.859375 48.328125 
Q 20.21875 56 33.015625 56 
Q 37.15625 56 41.109375 55.140625 
Q 45.0625 54.296875 48.78125 52.59375 
z
" id="DejaVuSans-99"/>
       <path d="M 9.078125 75.984375 
L 18.109375 75.984375 
L 18.109375 31.109375 
L 44.921875 54.6875 
L 56.390625 54.6875 
L 27.390625 29.109375 
L 57.625 0 
L 45.90625 0 
L 18.109375 26.703125 
L 18.109375 0 
L 9.078125 0 
z
" id="DejaVuSans-107"/>
       <path d="M 44.28125 53.078125 
L 44.28125 44.578125 
Q 40.484375 46.53125 36.375 47.5 
Q 32.28125 48.484375 27.875 48.484375 
Q 21.1875 48.484375 17.84375 46.4375 
Q 14.5 44.390625 14.5 40.28125 
Q 14.5 37.15625 16.890625 35.375 
Q 19.28125 33.59375 26.515625 31.984375 
L 29.59375 31.296875 
Q 39.15625 29.25 43.1875 25.515625 
Q 47.21875 21.78125 47.21875 15.09375 
Q 47.21875 7.46875 41.1875 3.015625 
Q 35.15625 -1.421875 24.609375 -1.421875 
Q 20.21875 -1.421875 15.453125 -0.5625 
Q 10.6875 0.296875 5.421875 2 
L 5.421875 11.28125 
Q 10.40625 8.6875 15.234375 7.390625 
Q 20.0625 6.109375 24.8125 6.109375 
Q 31.15625 6.109375 34.5625 8.28125 
Q 37.984375 10.453125 37.984375 14.40625 
Q 37.984375 18.0625 35.515625 20.015625 
Q 33.0625 21.96875 24.703125 23.78125 
L 21.578125 24.515625 
Q 13.234375 26.265625 9.515625 29.90625 
Q 5.8125 33.546875 5.8125 39.890625 
Q 5.8125 47.609375 11.28125 51.796875 
Q 16.75 56 26.8125 56 
Q 31.78125 56 36.171875 55.265625 
Q 40.578125 54.546875 44.28125 53.078125 
z
" id="DejaVuSans-115"/>
      </defs>
      <use xlink:href="#DejaVuSans-80"/>
      <use x="55.802734" xlink:href="#DejaVuSans-97"/>
      <use x="117.082031" xlink:href="#DejaVuSans-99"/>
      <use x="172.0625" xlink:href="#DejaVuSans-107"/>
      <use x="226.347656" xlink:href="#DejaVuSans-101"/>
      <use x="287.871094" xlink:href="#DejaVuSans-116"/>
      <use x="327.080078" xlink:href="#DejaVuSans-115"/>
     </g>
    </g>
   </g>
   <g id="line2d_27">
    <path clip-path="url(#p80fcc8551c)" d="M 62.998636 133.81 
L 68.532761 133.81 
L 68.901703 125.9475 
L 69.639586 125.9475 
L 70.008528 133.81 
L 72.59112 133.81 
L 72.960061 125.9475 
L 73.329003 133.81 
L 73.697945 133.81 
L 74.066886 125.9475 
L 74.435828 133.81 
L 77.01842 133.81 
L 77.387361 125.9475 
L 77.756303 133.81 
L 79.23207 133.81 
L 79.601011 125.9475 
L 79.969953 133.81 
L 80.707836 133.81 
L 81.076778 125.9475 
L 81.814661 125.9475 
L 82.183603 133.81 
L 82.552545 125.9475 
L 82.921486 133.81 
L 83.290428 125.9475 
L 83.65937 133.81 
L 84.028311 133.81 
L 84.397253 125.9475 
L 84.766195 133.81 
L 85.135137 133.81 
L 85.504078 125.9475 
L 85.87302 133.81 
L 93.251853 133.81 
L 93.620795 125.9475 
L 93.989737 133.81 
L 95.465503 133.81 
L 95.834445 125.9475 
L 96.203387 133.81 
L 97.310212 133.81 
L 97.679153 125.9475 
L 98.048095 133.81 
L 98.417037 149.535 
L 98.785978 133.81 
L 100.261745 133.81 
L 100.630687 125.9475 
L 100.999628 133.81 
L 103.58222 133.81 
L 103.951162 125.9475 
L 104.320103 110.2225 
L 104.689045 133.81 
L 112.067878 133.81 
L 112.43682 125.9475 
L 112.805762 133.81 
L 114.281528 133.81 
L 114.65047 125.9475 
L 115.019412 133.81 
L 115.388353 125.9475 
L 115.757295 133.81 
L 117.233062 133.81 
L 117.602003 125.9475 
L 117.970945 133.81 
L 119.07777 133.81 
L 119.446712 125.9475 
L 119.815653 133.81 
L 121.29142 133.81 
L 121.660362 125.9475 
L 122.029303 133.81 
L 122.398245 125.9475 
L 122.767187 133.81 
L 124.242953 133.81 
L 124.611895 125.9475 
L 124.980837 125.9475 
L 125.349778 133.81 
L 128.301312 133.81 
L 128.670253 149.535 
L 129.039195 149.535 
L 129.408137 133.81 
L 136.049087 133.81 
L 136.418028 125.9475 
L 136.78697 133.81 
L 139.00062 133.81 
L 139.369562 125.9475 
L 139.738504 125.9475 
L 140.107445 133.81 
L 140.476387 125.9475 
L 140.845329 133.81 
L 147.486279 133.81 
L 147.85522 125.9475 
L 148.224162 133.81 
L 148.962045 133.81 
L 149.330987 125.9475 
L 149.699929 133.81 
L 151.913579 133.81 
L 152.28252 125.9475 
L 153.020404 125.9475 
L 153.389345 133.81 
L 153.758287 125.9475 
L 154.127229 133.81 
L 154.49617 133.81 
L 154.865112 125.9475 
L 155.234054 133.81 
L 157.816645 133.81 
L 158.185587 125.9475 
L 158.554529 133.81 
L 162.612887 133.81 
L 162.981829 125.9475 
L 163.35077 149.535 
L 163.719712 133.81 
L 166.302304 133.81 
L 166.671245 125.9475 
L 167.040187 125.9475 
L 167.409129 133.81 
L 169.99172 133.81 
L 170.360662 125.9475 
L 170.729604 133.81 
L 173.312195 133.81 
L 173.681137 125.9475 
L 174.050079 133.81 
L 177.370554 133.81 
L 177.739495 125.9475 
L 178.108437 133.81 
L 179.953145 133.81 
L 180.322087 125.9475 
L 180.691029 133.81 
L 181.428912 133.81 
L 181.797854 125.9475 
L 182.166795 133.81 
L 186.594095 133.81 
L 186.963037 125.9475 
L 187.331979 125.9475 
L 187.70092 133.81 
L 188.807745 133.81 
L 189.176687 125.9475 
L 189.545629 133.81 
L 192.866104 133.81 
L 193.235046 125.9475 
L 193.603987 133.81 
L 193.972929 125.9475 
L 194.341871 133.81 
L 195.448696 133.81 
L 195.817637 125.9475 
L 196.186579 133.81 
L 196.555521 133.81 
L 196.924462 141.6725 
L 197.293404 133.81 
L 197.662346 133.81 
L 198.031287 125.9475 
L 198.400229 133.81 
L 198.769171 125.9475 
L 199.138112 125.9475 
L 199.507054 133.81 
L 199.875996 125.9475 
L 200.244937 133.81 
L 200.982821 133.81 
L 201.351762 125.9475 
L 201.720704 133.81 
L 206.885887 133.81 
L 207.254829 125.9475 
L 207.623771 133.81 
L 211.313187 133.81 
L 211.682129 125.9475 
L 212.051071 133.81 
L 214.264721 133.81 
L 214.633662 125.9475 
L 215.002604 133.81 
L 216.109429 133.81 
L 216.478371 125.9475 
L 216.847312 133.81 
L 220.536729 133.81 
L 220.905671 125.9475 
L 221.274612 133.81 
L 222.012496 133.81 
L 222.381437 165.26 
L 222.750379 133.81 
L 226.439796 133.81 
L 226.808737 125.9475 
L 227.177679 133.81 
L 228.653446 133.81 
L 229.022387 125.9475 
L 229.391329 133.81 
L 230.129212 133.81 
L 230.498154 125.9475 
L 230.867096 133.81 
L 231.236037 133.81 
L 231.604979 125.9475 
L 231.973921 133.81 
L 232.342862 133.81 
L 232.711804 125.9475 
L 233.080746 133.81 
L 238.614871 133.81 
L 238.983812 125.9475 
L 239.352754 133.81 
L 245.255821 133.81 
L 245.624762 125.9475 
L 245.993704 133.81 
L 248.576296 133.81 
L 248.945238 125.9475 
L 249.314179 133.81 
L 250.052063 133.81 
L 250.421004 149.535 
L 250.789946 133.81 
L 251.527829 133.81 
L 251.896771 125.9475 
L 252.265713 133.81 
L 252.634654 125.9475 
L 253.003596 133.81 
L 253.372538 125.9475 
L 253.741479 125.9475 
L 254.110421 149.535 
L 254.479363 133.81 
L 257.799838 133.81 
L 258.168779 141.6725 
L 258.537721 133.81 
L 262.596079 133.81 
L 262.965021 125.9475 
L 263.333963 125.9475 
L 263.702904 133.81 
L 267.392321 133.81 
L 267.761263 125.9475 
L 268.130204 133.81 
L 271.450679 133.81 
L 271.819621 125.9475 
L 272.188563 133.81 
L 272.557504 133.81 
L 272.926446 125.9475 
L 273.295388 133.81 
L 274.033271 133.81 
L 274.402213 125.9475 
L 274.771154 133.81 
L 279.936338 133.81 
L 280.305279 125.9475 
L 280.674221 133.81 
L 282.518929 133.81 
L 282.887871 125.9475 
L 283.256813 133.81 
L 285.101521 133.81 
L 285.470463 125.9475 
L 285.839404 133.81 
L 292.480354 133.81 
L 292.849296 125.9475 
L 293.218238 133.81 
L 302.44178 133.81 
L 302.810721 125.9475 
L 303.548605 125.9475 
L 303.917546 133.81 
L 304.65543 133.81 
L 305.024371 165.26 
L 305.393313 125.9475 
L 305.762255 133.81 
L 307.975905 133.81 
L 308.344846 141.6725 
L 309.08273 125.9475 
L 309.451671 133.81 
L 314.985796 133.81 
L 315.354738 125.9475 
L 315.72368 133.81 
L 319.413096 133.81 
L 319.782038 125.9475 
L 320.15098 133.81 
L 320.519921 133.81 
L 320.888863 125.9475 
L 321.257805 133.81 
L 322.733571 133.81 
L 323.102513 125.9475 
L 323.471455 133.81 
L 324.947221 133.81 
L 325.316163 125.9475 
L 325.685105 133.81 
L 326.054046 133.81 
L 326.422988 125.9475 
L 326.79193 133.81 
L 327.160871 125.9475 
L 327.529813 133.81 
L 327.898755 133.81 
L 328.267696 125.9475 
L 328.636638 133.81 
L 334.539705 133.81 
L 334.908646 125.9475 
L 335.277588 133.81 
L 338.967005 133.81 
L 339.335946 125.9475 
L 339.704888 133.81 
L 340.811713 133.81 
L 341.180655 165.26 
L 341.549596 125.9475 
L 341.918538 133.81 
L 342.28748 125.9475 
L 342.656421 133.81 
L 349.297371 133.81 
L 349.666313 125.9475 
L 350.035255 133.81 
L 351.879963 133.81 
L 352.248905 125.9475 
L 352.617846 133.81 
L 354.831496 133.81 
L 355.200438 125.9475 
L 355.56938 133.81 
L 357.414088 133.81 
L 357.78303 165.26 
L 358.151972 133.81 
L 362.579272 133.81 
L 362.948213 125.9475 
L 363.317155 133.81 
L 363.686097 133.81 
L 364.055038 125.9475 
L 364.42398 133.81 
L 381.395297 133.81 
L 381.764238 125.9475 
L 382.13318 133.81 
L 386.929422 133.81 
L 387.298363 149.535 
L 387.667305 133.81 
L 390.98778 133.81 
L 391.356722 125.9475 
L 391.725663 133.81 
L 392.094605 133.81 
L 392.463547 141.6725 
L 392.832488 133.81 
L 398.366613 133.81 
L 398.735555 125.9475 
L 399.104497 133.81 
L 400.211322 133.81 
L 400.580263 125.9475 
L 400.949205 133.81 
L 401.687088 133.81 
L 402.05603 125.9475 
L 402.424972 133.81 
L 403.531797 133.81 
L 403.900738 125.9475 
L 404.26968 133.81 
L 404.638622 149.535 
L 405.007563 133.81 
L 407.959097 133.81 
L 408.328038 125.9475 
L 408.69698 133.81 
L 409.803805 133.81 
L 410.172747 125.9475 
L 410.541689 133.81 
L 410.91063 133.81 
L 411.279572 125.9475 
L 411.648514 133.81 
L 414.231105 133.81 
L 414.600047 125.9475 
L 414.968989 125.9475 
L 415.33793 133.81 
L 419.76523 133.81 
L 420.134172 149.535 
L 420.503114 133.81 
L 421.97888 133.81 
L 422.347822 125.9475 
L 422.716764 133.81 
L 423.085705 133.81 
L 423.454647 125.9475 
L 423.823589 133.81 
L 424.19253 125.9475 
L 424.561472 133.81 
L 424.930414 133.81 
L 425.299355 125.9475 
L 425.668297 133.81 
L 427.144064 133.81 
L 427.513005 149.535 
L 427.881947 133.81 
L 431.571364 133.81 
L 431.571364 133.81 
" style="fill:none;stroke:#1f77b4;stroke-linecap:square;stroke-width:1.5;"/>
   </g>
   <g id="line2d_28">
    <path clip-path="url(#p80fcc8551c)" d="M 62.998636 78.7725 
L 63.367578 78.7725 
L 63.73652 86.635 
L 64.105461 102.36 
L 64.474403 86.635 
L 66.319111 86.635 
L 66.688053 78.7725 
L 67.056995 86.635 
L 67.794878 86.635 
L 68.16382 102.36 
L 68.532761 86.635 
L 72.59112 86.635 
L 72.960061 78.7725 
L 73.329003 86.635 
L 77.756303 86.635 
L 78.125245 78.7725 
L 78.494186 86.635 
L 81.076778 86.635 
L 81.44572 78.7725 
L 81.814661 86.635 
L 82.183603 86.635 
L 82.552545 78.7725 
L 82.921486 78.7725 
L 83.290428 86.635 
L 84.397253 86.635 
L 84.766195 78.7725 
L 85.135137 86.635 
L 85.504078 78.7725 
L 85.87302 86.635 
L 87.348787 86.635 
L 87.717728 78.7725 
L 88.08667 86.635 
L 89.193495 86.635 
L 89.562437 78.7725 
L 89.931378 86.635 
L 90.30032 78.7725 
L 90.669262 86.635 
L 93.620795 86.635 
L 93.989737 78.7725 
L 94.72762 78.7725 
L 95.096562 86.635 
L 96.572328 86.635 
L 96.94127 78.7725 
L 97.310212 78.7725 
L 97.679153 86.635 
L 98.417037 86.635 
L 98.785978 102.36 
L 99.15492 86.635 
L 99.892803 86.635 
L 100.261745 78.7725 
L 100.630687 102.36 
L 100.999628 78.7725 
L 101.36857 78.7725 
L 101.737512 86.635 
L 102.475395 86.635 
L 102.844337 78.7725 
L 103.213278 78.7725 
L 103.58222 86.635 
L 106.164812 86.635 
L 106.533753 78.7725 
L 106.902695 78.7725 
L 107.271637 86.635 
L 107.640578 86.635 
L 108.00952 102.36 
L 108.378462 86.635 
L 111.698937 86.635 
L 112.067878 78.7725 
L 112.43682 86.635 
L 115.019412 86.635 
L 115.388353 102.36 
L 115.757295 86.635 
L 116.86412 86.635 
L 117.233062 78.7725 
L 117.602003 86.635 
L 123.136128 86.635 
L 123.50507 78.7725 
L 123.874012 86.635 
L 124.980837 86.635 
L 125.349778 78.7725 
L 125.71872 86.635 
L 126.087662 78.7725 
L 126.456603 86.635 
L 132.35967 86.635 
L 132.728612 78.7725 
L 133.097553 86.635 
L 140.476387 86.635 
L 140.845329 94.4975 
L 141.21427 86.635 
L 141.952154 86.635 
L 142.321095 94.4975 
L 142.690037 86.635 
L 143.42792 86.635 
L 143.796862 78.7725 
L 144.165804 86.635 
L 144.534745 86.635 
L 144.903687 78.7725 
L 145.272629 86.635 
L 145.64157 78.7725 
L 146.010512 86.635 
L 148.962045 86.635 
L 149.330987 102.36 
L 149.699929 78.7725 
L 150.06887 86.635 
L 150.806754 86.635 
L 151.175695 94.4975 
L 151.544637 86.635 
L 151.913579 86.635 
L 152.28252 78.7725 
L 152.651462 86.635 
L 155.234054 86.635 
L 155.602995 78.7725 
L 155.971937 78.7725 
L 156.340879 86.635 
L 156.70982 86.635 
L 157.078762 78.7725 
L 157.447704 86.635 
L 160.768179 86.635 
L 161.13712 78.7725 
L 161.506062 86.635 
L 164.457595 86.635 
L 164.826537 78.7725 
L 165.195479 86.635 
L 165.56442 78.7725 
L 165.933362 86.635 
L 166.671245 86.635 
L 167.040187 102.36 
L 167.409129 86.635 
L 167.77807 78.7725 
L 168.147012 86.635 
L 168.515954 86.635 
L 168.884895 78.7725 
L 169.253837 86.635 
L 170.360662 86.635 
L 170.729604 78.7725 
L 171.098545 78.7725 
L 171.467487 86.635 
L 175.525845 86.635 
L 175.894787 78.7725 
L 176.263729 86.635 
L 176.63267 102.36 
L 177.001612 86.635 
L 180.322087 86.635 
L 180.691029 102.36 
L 181.05997 78.7725 
L 181.428912 78.7725 
L 181.797854 86.635 
L 182.904679 86.635 
L 183.27362 78.7725 
L 183.642562 86.635 
L 184.011504 102.36 
L 184.380445 86.635 
L 184.749387 78.7725 
L 185.118329 86.635 
L 185.856212 86.635 
L 186.225154 78.7725 
L 186.594095 86.635 
L 189.176687 86.635 
L 189.545629 78.7725 
L 189.91457 86.635 
L 190.283512 78.7725 
L 190.652454 86.635 
L 191.390337 86.635 
L 191.759279 78.7725 
L 192.12822 86.635 
L 195.817637 86.635 
L 196.186579 78.7725 
L 196.555521 86.635 
L 198.400229 86.635 
L 198.769171 78.7725 
L 199.138112 86.635 
L 199.875996 86.635 
L 200.244937 78.7725 
L 200.613879 86.635 
L 202.458587 86.635 
L 202.827529 78.7725 
L 203.565412 78.7725 
L 203.934354 86.635 
L 205.041179 86.635 
L 205.410121 78.7725 
L 205.779062 78.7725 
L 206.148004 86.635 
L 208.730596 86.635 
L 209.099537 78.7725 
L 209.468479 39.46 
L 209.837421 86.635 
L 214.264721 86.635 
L 214.633662 78.7725 
L 215.002604 86.635 
L 217.954137 86.635 
L 218.323079 102.36 
L 218.692021 86.635 
L 219.060962 78.7725 
L 219.429904 86.635 
L 220.905671 86.635 
L 221.274612 78.7725 
L 221.643554 86.635 
L 222.381437 86.635 
L 222.750379 78.7725 
L 223.119321 78.7725 
L 223.488262 86.635 
L 224.595087 86.635 
L 224.964029 78.7725 
L 225.332971 86.635 
L 227.915562 86.635 
L 228.284504 102.36 
L 228.653446 78.7725 
L 229.022387 86.635 
L 229.391329 78.7725 
L 229.760271 102.36 
L 230.129212 86.635 
L 230.867096 86.635 
L 231.236037 78.7725 
L 231.604979 86.635 
L 234.187571 86.635 
L 234.556512 78.7725 
L 234.925454 86.635 
L 235.294396 86.635 
L 235.663337 78.7725 
L 236.032279 86.635 
L 236.401221 78.7725 
L 236.770162 86.635 
L 237.139104 102.36 
L 237.508046 86.635 
L 238.983812 86.635 
L 239.352754 94.4975 
L 239.721696 78.7725 
L 240.090637 86.635 
L 240.828521 86.635 
L 241.197462 102.36 
L 241.566404 86.635 
L 241.935346 78.7725 
L 242.304287 78.7725 
L 242.673229 86.635 
L 243.411112 86.635 
L 243.780054 78.7725 
L 244.148996 86.635 
L 247.469471 86.635 
L 247.838413 78.7725 
L 248.207354 86.635 
L 249.314179 86.635 
L 249.683121 78.7725 
L 250.052063 86.635 
L 250.421004 78.7725 
L 250.789946 86.635 
L 254.110421 86.635 
L 254.479363 78.7725 
L 254.848304 86.635 
L 255.586188 86.635 
L 255.955129 78.7725 
L 256.324071 78.7725 
L 256.693013 86.635 
L 258.537721 86.635 
L 258.906663 94.4975 
L 259.275604 86.635 
L 261.489254 86.635 
L 261.858196 78.7725 
L 262.227138 102.36 
L 262.596079 86.635 
L 263.333963 86.635 
L 263.702904 78.7725 
L 264.071846 86.635 
L 264.809729 86.635 
L 265.178671 102.36 
L 265.547613 86.635 
L 267.023379 86.635 
L 267.392321 78.7725 
L 267.761263 86.635 
L 268.499146 86.635 
L 268.868088 78.7725 
L 269.237029 86.635 
L 269.605971 86.635 
L 269.974913 78.7725 
L 270.343854 86.635 
L 271.081738 86.635 
L 271.450679 78.7725 
L 271.819621 78.7725 
L 272.188563 86.635 
L 272.557504 78.7725 
L 272.926446 86.635 
L 273.664329 86.635 
L 274.033271 102.36 
L 274.402213 102.36 
L 274.771154 86.635 
L 276.615863 86.635 
L 276.984804 78.7725 
L 277.353746 86.635 
L 278.091629 86.635 
L 278.460571 78.7725 
L 278.829513 86.635 
L 279.567396 86.635 
L 279.936338 78.7725 
L 280.305279 86.635 
L 280.674221 102.36 
L 281.043163 86.635 
L 281.781046 86.635 
L 282.149988 102.36 
L 282.518929 86.635 
L 282.887871 78.7725 
L 283.256813 86.635 
L 284.363638 86.635 
L 284.732579 102.36 
L 285.101521 86.635 
L 286.946229 86.635 
L 287.315171 78.7725 
L 287.684113 86.635 
L 291.742471 86.635 
L 292.111413 102.36 
L 292.480354 78.7725 
L 292.849296 86.635 
L 293.218238 86.635 
L 293.587179 102.36 
L 293.956121 78.7725 
L 294.325063 86.635 
L 294.694004 78.7725 
L 295.062946 86.635 
L 295.431888 86.635 
L 295.800829 102.36 
L 296.169771 86.635 
L 297.645538 86.635 
L 298.014479 94.4975 
L 298.383421 94.4975 
L 299.121304 78.7725 
L 299.490246 78.7725 
L 299.859188 86.635 
L 300.228129 86.635 
L 300.966013 102.36 
L 301.334954 86.635 
L 301.703896 86.635 
L 302.072838 78.7725 
L 302.44178 86.635 
L 303.179663 86.635 
L 303.548605 78.7725 
L 303.917546 78.7725 
L 304.286488 102.36 
L 304.65543 78.7725 
L 305.024371 86.635 
L 305.762255 86.635 
L 306.131196 78.7725 
L 306.500138 86.635 
L 307.238021 86.635 
L 307.606963 78.7725 
L 307.975905 86.635 
L 308.713788 86.635 
L 309.08273 102.36 
L 309.451671 86.635 
L 309.820613 78.7725 
L 310.189555 86.635 
L 310.927438 86.635 
L 311.29638 78.7725 
L 311.665321 86.635 
L 313.51003 86.635 
L 313.878971 78.7725 
L 314.247913 86.635 
L 314.616855 78.7725 
L 314.985796 86.635 
L 315.354738 86.635 
L 315.72368 78.7725 
L 316.092621 86.635 
L 318.675213 86.635 
L 319.044155 78.7725 
L 319.413096 86.635 
L 321.626746 86.635 
L 321.995688 78.7725 
L 322.36463 86.635 
L 322.733571 86.635 
L 323.102513 78.7725 
L 323.471455 86.635 
L 323.840396 78.7725 
L 324.209338 86.635 
L 330.481346 86.635 
L 330.850288 78.7725 
L 331.21923 86.635 
L 332.326055 86.635 
L 332.694996 78.7725 
L 333.063938 94.4975 
L 333.43288 86.635 
L 334.170763 86.635 
L 334.539705 78.7725 
L 334.908646 86.635 
L 335.64653 86.635 
L 336.015471 102.36 
L 336.384413 78.7725 
L 336.753355 86.635 
L 337.86018 86.635 
L 338.229121 78.7725 
L 338.598063 78.7725 
L 338.967005 86.635 
L 339.335946 86.635 
L 339.704888 78.7725 
L 340.07383 78.7725 
L 340.442771 86.635 
L 340.811713 86.635 
L 341.180655 78.7725 
L 341.549596 86.635 
L 341.918538 78.7725 
L 342.28748 86.635 
L 344.50113 86.635 
L 344.870071 78.7725 
L 345.239013 86.635 
L 346.345838 86.635 
L 346.71478 78.7725 
L 347.083721 86.635 
L 347.452663 78.7725 
L 347.821605 86.635 
L 348.559488 86.635 
L 348.92843 78.7725 
L 349.297371 86.635 
L 350.035255 86.635 
L 350.404196 78.7725 
L 350.773138 86.635 
L 351.14208 78.7725 
L 351.511021 86.635 
L 353.724671 86.635 
L 354.093613 78.7725 
L 354.462555 86.635 
L 355.200438 86.635 
L 355.56938 78.7725 
L 355.938322 86.635 
L 356.307263 86.635 
L 356.676205 78.7725 
L 357.045147 86.635 
L 358.151972 86.635 
L 358.520913 78.7725 
L 358.889855 78.7725 
L 359.627738 94.4975 
L 359.99668 78.7725 
L 360.365622 86.635 
L 364.792922 86.635 
L 365.161863 102.36 
L 365.530805 86.635 
L 365.899747 78.7725 
L 366.268688 86.635 
L 366.63763 78.7725 
L 367.006572 86.635 
L 371.802813 86.635 
L 372.171755 78.7725 
L 372.909638 78.7725 
L 373.27858 86.635 
L 375.123288 86.635 
L 375.49223 102.36 
L 375.861172 86.635 
L 378.074822 86.635 
L 378.443763 78.7725 
L 378.812705 86.635 
L 380.657413 86.635 
L 381.026355 102.36 
L 381.395297 86.635 
L 382.13318 86.635 
L 382.502122 78.7725 
L 382.871063 86.635 
L 388.405188 86.635 
L 388.77413 78.7725 
L 389.143072 102.36 
L 389.512013 86.635 
L 394.308255 86.635 
L 394.677197 78.7725 
L 395.046138 86.635 
L 395.41508 86.635 
L 395.784022 78.7725 
L 396.152963 86.635 
L 399.104497 86.635 
L 399.473438 78.7725 
L 399.84238 86.635 
L 402.793913 86.635 
L 403.162855 78.7725 
L 403.531797 86.635 
L 405.376505 86.635 
L 405.745447 78.7725 
L 406.114388 86.635 
L 407.221213 86.635 
L 407.590155 78.7725 
L 407.959097 86.635 
L 408.328038 78.7725 
L 408.69698 78.7725 
L 409.065922 86.635 
L 410.541689 86.635 
L 410.91063 78.7725 
L 411.279572 86.635 
L 419.396289 86.635 
L 419.76523 78.7725 
L 420.134172 86.635 
L 425.299355 86.635 
L 425.668297 78.7725 
L 426.037239 86.635 
L 429.726655 86.635 
L 430.095597 102.36 
L 430.464539 86.635 
L 431.571364 86.635 
L 431.571364 86.635 
" style="fill:none;stroke:#ff7f0e;stroke-linecap:square;stroke-width:1.5;"/>
   </g>
   <g id="line2d_29">
    <path clip-path="url(#p80fcc8551c)" d="M 62.998636 102.36 
L 67.794878 102.36 
L 68.16382 118.085 
L 68.532761 102.36 
L 71.115353 102.36 
L 71.484295 118.085 
L 71.853236 102.36 
L 72.222178 118.085 
L 72.59112 102.36 
L 90.30032 102.36 
L 90.669262 118.085 
L 91.038203 102.36 
L 104.320103 102.36 
L 104.689045 118.085 
L 105.057987 102.36 
L 112.805762 102.36 
L 113.174703 118.085 
L 113.543645 102.36 
L 122.398245 102.36 
L 122.767187 118.085 
L 123.136128 102.36 
L 127.194487 102.36 
L 127.563428 118.085 
L 127.93237 118.085 
L 128.301312 102.36 
L 128.670253 118.085 
L 129.039195 102.36 
L 150.806754 102.36 
L 151.175695 118.085 
L 151.544637 102.36 
L 152.28252 102.36 
L 152.651462 118.085 
L 153.020404 102.36 
L 154.865112 102.36 
L 155.234054 118.085 
L 155.602995 118.085 
L 155.971937 102.36 
L 156.340879 102.36 
L 156.70982 118.085 
L 157.078762 102.36 
L 176.263729 102.36 
L 176.63267 118.085 
L 177.001612 102.36 
L 212.788954 102.36 
L 213.157896 86.635 
L 213.526837 102.36 
L 219.798846 102.36 
L 220.167787 118.085 
L 220.536729 102.36 
L 241.935346 102.36 
L 242.304287 118.085 
L 242.673229 102.36 
L 264.071846 102.36 
L 264.440788 118.085 
L 264.809729 102.36 
L 286.946229 102.36 
L 287.315171 118.085 
L 287.684113 102.36 
L 289.159879 102.36 
L 289.528821 118.085 
L 289.897763 102.36 
L 292.849296 102.36 
L 293.218238 118.085 
L 293.587179 102.36 
L 305.762255 102.36 
L 306.131196 118.085 
L 306.500138 102.36 
L 311.29638 102.36 
L 311.665321 118.085 
L 312.034263 102.36 
L 317.93733 102.36 
L 318.306271 118.085 
L 318.675213 102.36 
L 326.422988 102.36 
L 326.79193 118.085 
L 327.160871 102.36 
L 334.170763 102.36 
L 334.539705 118.085 
L 334.908646 102.36 
L 340.811713 102.36 
L 341.180655 118.085 
L 341.549596 118.085 
L 341.918538 102.36 
L 342.28748 102.36 
L 342.656421 118.085 
L 343.025363 102.36 
L 369.958105 102.36 
L 370.327047 118.085 
L 370.695988 102.36 
L 430.464539 102.36 
L 430.83348 118.085 
L 431.202422 102.36 
L 431.571364 102.36 
L 431.571364 102.36 
" style="fill:none;stroke:#2ca02c;stroke-linecap:square;stroke-width:1.5;"/>
   </g>
   <g id="line2d_30">
    <path clip-path="url(#p80fcc8551c)" d="M 62.998636 86.635 
L 63.367578 102.36 
L 63.73652 94.4975 
L 64.105461 102.36 
L 64.843345 102.36 
L 65.212286 94.4975 
L 65.581228 102.36 
L 66.688053 102.36 
L 67.056995 94.4975 
L 67.425936 102.36 
L 67.794878 94.4975 
L 68.532761 110.2225 
L 68.901703 102.36 
L 72.960061 102.36 
L 73.329003 94.4975 
L 73.697945 102.36 
L 74.066886 102.36 
L 74.435828 94.4975 
L 74.80477 102.36 
L 78.125245 102.36 
L 78.494186 94.4975 
L 78.863128 102.36 
L 80.338895 102.36 
L 80.707836 94.4975 
L 81.076778 102.36 
L 81.814661 102.36 
L 82.183603 118.085 
L 82.552545 102.36 
L 83.290428 102.36 
L 83.65937 94.4975 
L 84.028311 102.36 
L 84.766195 102.36 
L 85.135137 94.4975 
L 85.504078 102.36 
L 89.562437 102.36 
L 89.931378 94.4975 
L 90.30032 102.36 
L 91.038203 102.36 
L 91.407145 94.4975 
L 91.776087 102.36 
L 94.358678 102.36 
L 94.72762 94.4975 
L 95.096562 102.36 
L 95.465503 102.36 
L 95.834445 94.4975 
L 96.203387 102.36 
L 96.572328 94.4975 
L 96.94127 102.36 
L 100.261745 102.36 
L 100.630687 94.4975 
L 100.999628 102.36 
L 102.844337 102.36 
L 103.213278 94.4975 
L 103.58222 102.36 
L 103.951162 94.4975 
L 104.320103 102.36 
L 107.271637 102.36 
L 107.640578 94.4975 
L 108.00952 94.4975 
L 108.378462 102.36 
L 115.019412 102.36 
L 115.388353 94.4975 
L 115.757295 102.36 
L 118.339887 102.36 
L 118.708828 118.085 
L 119.07777 102.36 
L 123.50507 102.36 
L 123.874012 70.91 
L 124.242953 291.06 
L 124.611895 102.36 
L 125.71872 102.36 
L 126.087662 94.4975 
L 126.456603 102.36 
L 126.825545 102.36 
L 127.194487 94.4975 
L 127.563428 102.36 
L 127.93237 94.4975 
L 128.301312 102.36 
L 128.670253 94.4975 
L 129.039195 102.36 
L 130.14602 102.36 
L 130.514962 94.4975 
L 130.883903 102.36 
L 135.680145 102.36 
L 136.049087 94.4975 
L 136.418028 94.4975 
L 136.78697 102.36 
L 139.369562 102.36 
L 139.738504 94.4975 
L 140.107445 102.36 
L 141.21427 102.36 
L 141.583212 94.4975 
L 141.952154 118.085 
L 142.321095 102.36 
L 142.690037 102.36 
L 143.058979 94.4975 
L 143.42792 102.36 
L 143.796862 118.085 
L 144.165804 102.36 
L 144.534745 118.085 
L 144.903687 94.4975 
L 145.272629 102.36 
L 146.010512 102.36 
L 146.379454 94.4975 
L 146.748395 102.36 
L 154.49617 102.36 
L 154.865112 94.4975 
L 155.234054 102.36 
L 157.816645 102.36 
L 158.185587 118.085 
L 158.554529 102.36 
L 159.292412 102.36 
L 159.661354 94.4975 
L 160.030295 118.085 
L 160.399237 94.4975 
L 160.768179 102.36 
L 161.506062 102.36 
L 161.875004 94.4975 
L 162.243945 102.36 
L 165.933362 102.36 
L 166.302304 118.085 
L 166.671245 102.36 
L 169.253837 102.36 
L 169.622779 94.4975 
L 169.99172 94.4975 
L 170.360662 102.36 
L 174.41902 102.36 
L 174.787962 94.4975 
L 175.156904 102.36 
L 176.63267 102.36 
L 177.001612 94.4975 
L 177.370554 102.36 
L 178.477379 102.36 
L 178.84632 94.4975 
L 179.215262 102.36 
L 181.428912 102.36 
L 181.797854 94.4975 
L 182.166795 102.36 
L 185.48727 102.36 
L 185.856212 94.4975 
L 186.225154 94.4975 
L 186.594095 102.36 
L 186.963037 102.36 
L 187.331979 94.4975 
L 187.70092 102.36 
L 188.807745 102.36 
L 189.176687 118.085 
L 189.545629 102.36 
L 191.759279 102.36 
L 192.12822 94.4975 
L 192.497162 102.36 
L 192.866104 102.36 
L 193.235046 118.085 
L 193.603987 102.36 
L 193.972929 94.4975 
L 194.341871 102.36 
L 198.400229 102.36 
L 198.769171 94.4975 
L 199.138112 102.36 
L 202.089646 102.36 
L 202.458587 94.4975 
L 202.827529 102.36 
L 207.254829 102.36 
L 207.623771 94.4975 
L 207.992712 102.36 
L 210.944246 102.36 
L 211.313187 94.4975 
L 211.682129 102.36 
L 212.051071 102.36 
L 212.420012 94.4975 
L 212.788954 102.36 
L 213.157896 102.36 
L 213.526837 94.4975 
L 214.264721 94.4975 
L 214.633662 102.36 
L 219.060962 102.36 
L 219.429904 94.4975 
L 219.798846 102.36 
L 221.643554 102.36 
L 222.012496 118.085 
L 222.381437 102.36 
L 229.022387 102.36 
L 229.391329 94.4975 
L 229.760271 102.36 
L 230.129212 102.36 
L 230.498154 94.4975 
L 230.867096 94.4975 
L 231.236037 102.36 
L 232.342862 102.36 
L 232.711804 94.4975 
L 233.080746 102.36 
L 233.818629 102.36 
L 234.187571 94.4975 
L 234.556512 102.36 
L 235.294396 102.36 
L 235.663337 118.085 
L 236.032279 102.36 
L 237.876987 102.36 
L 238.245929 94.4975 
L 238.614871 94.4975 
L 238.983812 102.36 
L 240.459579 102.36 
L 240.828521 94.4975 
L 241.197462 102.36 
L 243.042171 102.36 
L 243.411112 118.085 
L 243.780054 102.36 
L 244.886879 102.36 
L 245.255821 94.4975 
L 245.624762 102.36 
L 251.896771 102.36 
L 252.265713 94.4975 
L 252.634654 102.36 
L 254.848304 102.36 
L 255.217246 94.4975 
L 255.586188 102.36 
L 255.955129 102.36 
L 256.324071 94.4975 
L 256.693013 102.36 
L 257.061954 102.36 
L 257.430896 94.4975 
L 257.799838 102.36 
L 259.275604 102.36 
L 259.644546 94.4975 
L 260.013488 102.36 
L 262.596079 102.36 
L 262.965021 118.085 
L 263.333963 102.36 
L 264.440788 102.36 
L 264.809729 94.4975 
L 265.178671 102.36 
L 267.023379 102.36 
L 267.392321 94.4975 
L 267.761263 102.36 
L 268.130204 102.36 
L 268.499146 94.4975 
L 268.868088 102.36 
L 271.819621 102.36 
L 272.188563 94.4975 
L 272.557504 102.36 
L 275.509038 102.36 
L 275.877979 94.4975 
L 276.246921 102.36 
L 278.460571 102.36 
L 278.829513 110.2225 
L 279.198454 102.36 
L 279.567396 102.36 
L 279.936338 94.4975 
L 280.305279 102.36 
L 280.674221 102.36 
L 281.043163 94.4975 
L 281.412104 102.36 
L 281.781046 118.085 
L 282.149988 102.36 
L 285.470463 102.36 
L 285.839404 94.4975 
L 286.208346 102.36 
L 287.684113 102.36 
L 288.053054 110.2225 
L 288.421996 102.36 
L 289.159879 102.36 
L 289.528821 94.4975 
L 289.897763 102.36 
L 291.004588 102.36 
L 291.373529 94.4975 
L 291.742471 102.36 
L 294.694004 102.36 
L 295.062946 94.4975 
L 295.431888 102.36 
L 299.859188 102.36 
L 300.228129 118.085 
L 300.597071 118.085 
L 300.966013 102.36 
L 301.334954 102.36 
L 301.703896 94.4975 
L 302.072838 102.36 
L 303.179663 102.36 
L 303.548605 94.4975 
L 303.917546 102.36 
L 305.024371 102.36 
L 305.393313 94.4975 
L 305.762255 102.36 
L 313.141088 102.36 
L 313.51003 94.4975 
L 313.878971 102.36 
L 315.72368 102.36 
L 316.092621 118.085 
L 316.461563 102.36 
L 317.93733 102.36 
L 318.306271 118.085 
L 318.675213 102.36 
L 322.733571 102.36 
L 323.102513 118.085 
L 323.471455 102.36 
L 323.840396 102.36 
L 324.209338 94.4975 
L 324.57828 102.36 
L 326.422988 102.36 
L 326.79193 94.4975 
L 327.160871 94.4975 
L 327.529813 102.36 
L 330.112405 102.36 
L 330.481346 94.4975 
L 330.850288 102.36 
L 331.21923 118.085 
L 331.588171 94.4975 
L 331.957113 102.36 
L 335.277588 102.36 
L 335.64653 94.4975 
L 336.015471 102.36 
L 336.753355 102.36 
L 337.122296 94.4975 
L 337.491238 102.36 
L 340.07383 102.36 
L 340.442771 94.4975 
L 340.811713 102.36 
L 341.918538 102.36 
L 342.28748 118.085 
L 342.656421 102.36 
L 343.025363 94.4975 
L 343.763246 94.4975 
L 344.132188 102.36 
L 344.50113 94.4975 
L 344.870071 102.36 
L 347.083721 102.36 
L 347.452663 94.4975 
L 347.821605 102.36 
L 348.190546 94.4975 
L 348.559488 102.36 
L 349.666313 102.36 
L 350.035255 94.4975 
L 350.404196 102.36 
L 352.617846 102.36 
L 352.986788 94.4975 
L 353.35573 102.36 
L 363.317155 102.36 
L 363.686097 118.085 
L 364.055038 102.36 
L 364.42398 94.4975 
L 364.792922 102.36 
L 365.899747 102.36 
L 366.268688 94.4975 
L 366.63763 102.36 
L 367.006572 102.36 
L 367.375513 94.4975 
L 367.744455 94.4975 
L 368.113397 102.36 
L 368.482338 102.36 
L 368.85128 94.4975 
L 369.220222 102.36 
L 369.589163 118.085 
L 369.958105 118.085 
L 370.327047 102.36 
L 370.695988 94.4975 
L 371.06493 102.36 
L 371.433872 94.4975 
L 371.802813 102.36 
L 372.909638 102.36 
L 373.27858 94.4975 
L 373.647522 102.36 
L 374.016463 102.36 
L 374.385405 94.4975 
L 374.754347 102.36 
L 376.599055 102.36 
L 376.967997 118.085 
L 377.336938 102.36 
L 379.91953 102.36 
L 380.288472 94.4975 
L 380.657413 94.4975 
L 381.026355 102.36 
L 381.395297 102.36 
L 381.764238 94.4975 
L 382.13318 102.36 
L 383.240005 102.36 
L 383.608947 118.085 
L 383.977888 102.36 
L 386.56048 102.36 
L 386.929422 94.4975 
L 387.298363 102.36 
L 387.667305 102.36 
L 388.036247 94.4975 
L 388.405188 102.36 
L 389.880955 102.36 
L 390.249897 94.4975 
L 390.618838 94.4975 
L 390.98778 102.36 
L 397.259788 102.36 
L 397.62873 94.4975 
L 397.997672 102.36 
L 398.366613 94.4975 
L 398.735555 102.36 
L 400.211322 102.36 
L 400.580263 94.4975 
L 400.949205 102.36 
L 402.05603 102.36 
L 402.424972 94.4975 
L 402.793913 102.36 
L 403.162855 102.36 
L 403.531797 94.4975 
L 403.900738 94.4975 
L 404.26968 102.36 
L 405.007563 102.36 
L 405.376505 94.4975 
L 405.745447 102.36 
L 406.114388 94.4975 
L 406.48333 102.36 
L 410.541689 102.36 
L 410.91063 110.2225 
L 411.279572 102.36 
L 411.648514 102.36 
L 412.017455 94.4975 
L 412.386397 102.36 
L 415.33793 102.36 
L 415.706872 118.085 
L 416.075814 102.36 
L 416.813697 102.36 
L 417.182639 110.2225 
L 417.55158 102.36 
L 418.658405 102.36 
L 419.027347 94.4975 
L 419.396289 102.36 
L 421.609939 102.36 
L 421.97888 118.085 
L 422.716764 102.36 
L 423.085705 102.36 
L 423.823589 118.085 
L 424.19253 102.36 
L 424.930414 102.36 
L 425.299355 94.4975 
L 426.037239 94.4975 
L 426.40618 102.36 
L 427.144064 102.36 
L 427.513005 94.4975 
L 427.881947 94.4975 
L 428.250889 102.36 
L 428.61983 94.4975 
L 428.988772 102.36 
L 429.357714 94.4975 
L 429.726655 102.36 
L 431.571364 102.36 
L 431.571364 102.36 
" style="fill:none;stroke:#d62728;stroke-linecap:square;stroke-width:1.5;"/>
   </g>
   <g id="line2d_31">
    <path clip-path="url(#p80fcc8551c)" d="M 62.998636 102.36 
L 69.270645 102.36 
L 69.639586 110.2225 
L 70.008528 102.36 
L 71.853236 102.36 
L 72.222178 118.085 
L 72.59112 102.36 
L 83.65937 102.36 
L 84.028311 118.085 
L 84.397253 102.36 
L 84.766195 118.085 
L 85.135137 102.36 
L 88.824553 102.36 
L 89.193495 86.635 
L 89.562437 102.36 
L 124.242953 102.36 
L 124.611895 118.085 
L 124.980837 102.36 
L 127.93237 102.36 
L 128.301312 118.085 
L 128.670253 102.36 
L 160.399237 102.36 
L 160.768179 118.085 
L 161.13712 102.36 
L 162.612887 102.36 
L 162.981829 118.085 
L 163.35077 102.36 
L 166.671245 102.36 
L 167.040187 118.085 
L 167.409129 102.36 
L 174.787962 102.36 
L 175.156904 86.635 
L 175.894787 118.085 
L 176.263729 102.36 
L 184.011504 102.36 
L 184.380445 118.085 
L 184.749387 102.36 
L 192.12822 102.36 
L 192.497162 118.085 
L 192.866104 102.36 
L 197.662346 102.36 
L 198.031287 118.085 
L 198.400229 102.36 
L 198.769171 118.085 
L 199.138112 102.36 
L 203.934354 102.36 
L 204.303296 118.085 
L 204.672237 102.36 
L 216.109429 102.36 
L 216.478371 118.085 
L 216.847312 102.36 
L 221.274612 102.36 
L 221.643554 118.085 
L 222.012496 102.36 
L 227.915562 102.36 
L 228.284504 118.085 
L 228.653446 102.36 
L 237.139104 102.36 
L 237.508046 118.085 
L 237.876987 102.36 
L 246.731587 102.36 
L 247.100529 94.4975 
L 247.469471 102.36 
L 250.789946 102.36 
L 251.158888 118.085 
L 251.527829 102.36 
L 263.702904 102.36 
L 264.071846 118.085 
L 264.440788 102.36 
L 267.023379 102.36 
L 267.392321 118.085 
L 267.761263 102.36 
L 270.343854 102.36 
L 270.712796 118.085 
L 271.081738 102.36 
L 272.926446 102.36 
L 273.295388 86.635 
L 273.664329 102.36 
L 293.218238 102.36 
L 293.587179 118.085 
L 293.956121 102.36 
L 295.431888 102.36 
L 295.800829 118.085 
L 296.169771 102.36 
L 303.917546 102.36 
L 304.286488 118.085 
L 304.65543 118.085 
L 305.024371 102.36 
L 309.08273 102.36 
L 309.451671 118.085 
L 309.820613 102.36 
L 318.306271 102.36 
L 318.675213 118.085 
L 319.044155 102.36 
L 319.782038 102.36 
L 320.15098 118.085 
L 320.519921 102.36 
L 326.054046 102.36 
L 326.422988 118.085 
L 326.79193 102.36 
L 327.160871 118.085 
L 327.529813 102.36 
L 328.267696 102.36 
L 328.636638 118.085 
L 329.00558 102.36 
L 369.958105 102.36 
L 370.327047 118.085 
L 370.695988 102.36 
L 371.802813 102.36 
L 372.171755 118.085 
L 372.540697 102.36 
L 382.502122 102.36 
L 382.871063 118.085 
L 383.240005 102.36 
L 383.608947 102.36 
L 383.977888 118.085 
L 384.34683 102.36 
L 391.725663 102.36 
L 392.094605 94.4975 
L 392.463547 102.36 
L 404.638622 102.36 
L 405.007563 118.085 
L 405.376505 102.36 
L 408.69698 102.36 
L 409.065922 118.085 
L 409.434863 102.36 
L 413.862164 102.36 
L 414.231105 118.085 
L 414.600047 102.36 
L 414.968989 118.085 
L 415.33793 102.36 
L 427.144064 102.36 
L 427.513005 110.2225 
L 427.881947 102.36 
L 431.571364 102.36 
L 431.571364 102.36 
" style="fill:none;stroke:#9467bd;stroke-linecap:square;stroke-width:1.5;"/>
   </g>
   <g id="patch_3">
    <path d="M 44.57 303.64 
L 44.57 26.88 
" style="fill:none;stroke:#000000;stroke-linecap:square;stroke-linejoin:miter;stroke-width:0.8;"/>
   </g>
   <g id="patch_4">
    <path d="M 450 303.64 
L 450 26.88 
" style="fill:none;stroke:#000000;stroke-linecap:square;stroke-linejoin:miter;stroke-width:0.8;"/>
   </g>
   <g id="patch_5">
    <path d="M 44.57 303.64 
L 450 303.64 
" style="fill:none;stroke:#000000;stroke-linecap:square;stroke-linejoin:miter;stroke-width:0.8;"/>
   </g>
   <g id="patch_6">
    <path d="M 44.57 26.88 
L 450 26.88 
" style="fill:none;stroke:#000000;stroke-linecap:square;stroke-linejoin:miter;stroke-width:0.8;"/>
   </g>
   <g id="text_16">
    <!-- Packets -->
    <g transform="translate(224.534688 20.88)scale(0.12 -0.12)">
     <use xlink:href="#DejaVuSans-80"/>
     <use x="55.802734" xlink:href="#DejaVuSans-97"/>
     <use x="117.082031" xlink:href="#DejaVuSans-99"/>
     <use x="172.0625" xlink:href="#DejaVuSans-107"/>
     <use x="226.347656" xlink:href="#DejaVuSans-101"/>
     <use x="287.871094" xlink:href="#DejaVuSans-116"/>
     <use x="327.080078" xlink:href="#DejaVuSans-115"/>
    </g>
   </g>
   <g id="legend_1">
    <g id="patch_7">
     <path d="M 320.710938 298.64 
L 443 298.64 
Q 445 298.64 445 296.64 
L 445 224.249375 
Q 445 222.249375 443 222.249375 
L 320.710938 222.249375 
Q 318.710938 222.249375 318.710938 224.249375 
L 318.710938 296.64 
Q 318.710938 298.64 320.710938 298.64 
z
" style="fill:#ffffff;opacity:0.8;stroke:#cccccc;stroke-linejoin:miter;"/>
    </g>
    <g id="line2d_32">
     <path d="M 322.710938 230.347812 
L 342.710938 230.347812 
" style="fill:none;stroke:#1f77b4;stroke-linecap:square;stroke-width:1.5;"/>
    </g>
    <g id="line2d_33"/>
    <g id="text_17">
     <!-- Kyber512 -->
     <g transform="translate(350.710938 233.847812)scale(0.1 -0.1)">
      <defs>
       <path d="M 9.8125 72.90625 
L 19.671875 72.90625 
L 19.671875 42.09375 
L 52.390625 72.90625 
L 65.09375 72.90625 
L 28.90625 38.921875 
L 67.671875 0 
L 54.6875 0 
L 19.671875 35.109375 
L 19.671875 0 
L 9.8125 0 
z
" id="DejaVuSans-75"/>
       <path d="M 32.171875 -5.078125 
Q 28.375 -14.84375 24.75 -17.8125 
Q 21.140625 -20.796875 15.09375 -20.796875 
L 7.90625 -20.796875 
L 7.90625 -13.28125 
L 13.1875 -13.28125 
Q 16.890625 -13.28125 18.9375 -11.515625 
Q 21 -9.765625 23.484375 -3.21875 
L 25.09375 0.875 
L 2.984375 54.6875 
L 12.5 54.6875 
L 29.59375 11.921875 
L 46.6875 54.6875 
L 56.203125 54.6875 
z
" id="DejaVuSans-121"/>
       <path d="M 48.6875 27.296875 
Q 48.6875 37.203125 44.609375 42.84375 
Q 40.53125 48.484375 33.40625 48.484375 
Q 26.265625 48.484375 22.1875 42.84375 
Q 18.109375 37.203125 18.109375 27.296875 
Q 18.109375 17.390625 22.1875 11.75 
Q 26.265625 6.109375 33.40625 6.109375 
Q 40.53125 6.109375 44.609375 11.75 
Q 48.6875 17.390625 48.6875 27.296875 
z
M 18.109375 46.390625 
Q 20.953125 51.265625 25.265625 53.625 
Q 29.59375 56 35.59375 56 
Q 45.5625 56 51.78125 48.09375 
Q 58.015625 40.1875 58.015625 27.296875 
Q 58.015625 14.40625 51.78125 6.484375 
Q 45.5625 -1.421875 35.59375 -1.421875 
Q 29.59375 -1.421875 25.265625 0.953125 
Q 20.953125 3.328125 18.109375 8.203125 
L 18.109375 0 
L 9.078125 0 
L 9.078125 75.984375 
L 18.109375 75.984375 
z
" id="DejaVuSans-98"/>
      </defs>
      <use xlink:href="#DejaVuSans-75"/>
      <use x="58.326172" xlink:href="#DejaVuSans-121"/>
      <use x="117.505859" xlink:href="#DejaVuSans-98"/>
      <use x="180.982422" xlink:href="#DejaVuSans-101"/>
      <use x="242.505859" xlink:href="#DejaVuSans-114"/>
      <use x="283.619141" xlink:href="#DejaVuSans-53"/>
      <use x="347.242188" xlink:href="#DejaVuSans-49"/>
      <use x="410.865234" xlink:href="#DejaVuSans-50"/>
     </g>
    </g>
    <g id="line2d_34">
     <path d="M 322.710938 245.025937 
L 342.710938 245.025937 
" style="fill:none;stroke:#ff7f0e;stroke-linecap:square;stroke-width:1.5;"/>
    </g>
    <g id="line2d_35"/>
    <g id="text_18">
     <!-- LightSaber -->
     <g transform="translate(350.710938 248.525937)scale(0.1 -0.1)">
      <defs>
       <path d="M 9.8125 72.90625 
L 19.671875 72.90625 
L 19.671875 8.296875 
L 55.171875 8.296875 
L 55.171875 0 
L 9.8125 0 
z
" id="DejaVuSans-76"/>
       <path d="M 45.40625 27.984375 
Q 45.40625 37.75 41.375 43.109375 
Q 37.359375 48.484375 30.078125 48.484375 
Q 22.859375 48.484375 18.828125 43.109375 
Q 14.796875 37.75 14.796875 27.984375 
Q 14.796875 18.265625 18.828125 12.890625 
Q 22.859375 7.515625 30.078125 7.515625 
Q 37.359375 7.515625 41.375 12.890625 
Q 45.40625 18.265625 45.40625 27.984375 
z
M 54.390625 6.78125 
Q 54.390625 -7.171875 48.1875 -13.984375 
Q 42 -20.796875 29.203125 -20.796875 
Q 24.46875 -20.796875 20.265625 -20.09375 
Q 16.0625 -19.390625 12.109375 -17.921875 
L 12.109375 -9.1875 
Q 16.0625 -11.328125 19.921875 -12.34375 
Q 23.78125 -13.375 27.78125 -13.375 
Q 36.625 -13.375 41.015625 -8.765625 
Q 45.40625 -4.15625 45.40625 5.171875 
L 45.40625 9.625 
Q 42.625 4.78125 38.28125 2.390625 
Q 33.9375 0 27.875 0 
Q 17.828125 0 11.671875 7.65625 
Q 5.515625 15.328125 5.515625 27.984375 
Q 5.515625 40.671875 11.671875 48.328125 
Q 17.828125 56 27.875 56 
Q 33.9375 56 38.28125 53.609375 
Q 42.625 51.21875 45.40625 46.390625 
L 45.40625 54.6875 
L 54.390625 54.6875 
z
" id="DejaVuSans-103"/>
       <path d="M 54.890625 33.015625 
L 54.890625 0 
L 45.90625 0 
L 45.90625 32.71875 
Q 45.90625 40.484375 42.875 44.328125 
Q 39.84375 48.1875 33.796875 48.1875 
Q 26.515625 48.1875 22.3125 43.546875 
Q 18.109375 38.921875 18.109375 30.90625 
L 18.109375 0 
L 9.078125 0 
L 9.078125 75.984375 
L 18.109375 75.984375 
L 18.109375 46.1875 
Q 21.34375 51.125 25.703125 53.5625 
Q 30.078125 56 35.796875 56 
Q 45.21875 56 50.046875 50.171875 
Q 54.890625 44.34375 54.890625 33.015625 
z
" id="DejaVuSans-104"/>
       <path d="M 53.515625 70.515625 
L 53.515625 60.890625 
Q 47.90625 63.578125 42.921875 64.890625 
Q 37.9375 66.21875 33.296875 66.21875 
Q 25.25 66.21875 20.875 63.09375 
Q 16.5 59.96875 16.5 54.203125 
Q 16.5 49.359375 19.40625 46.890625 
Q 22.3125 44.4375 30.421875 42.921875 
L 36.375 41.703125 
Q 47.40625 39.59375 52.65625 34.296875 
Q 57.90625 29 57.90625 20.125 
Q 57.90625 9.515625 50.796875 4.046875 
Q 43.703125 -1.421875 29.984375 -1.421875 
Q 24.8125 -1.421875 18.96875 -0.25 
Q 13.140625 0.921875 6.890625 3.21875 
L 6.890625 13.375 
Q 12.890625 10.015625 18.65625 8.296875 
Q 24.421875 6.59375 29.984375 6.59375 
Q 38.421875 6.59375 43.015625 9.90625 
Q 47.609375 13.234375 47.609375 19.390625 
Q 47.609375 24.75 44.3125 27.78125 
Q 41.015625 30.8125 33.5 32.328125 
L 27.484375 33.5 
Q 16.453125 35.6875 11.515625 40.375 
Q 6.59375 45.0625 6.59375 53.421875 
Q 6.59375 63.09375 13.40625 68.65625 
Q 20.21875 74.21875 32.171875 74.21875 
Q 37.3125 74.21875 42.625 73.28125 
Q 47.953125 72.359375 53.515625 70.515625 
z
" id="DejaVuSans-83"/>
      </defs>
      <use xlink:href="#DejaVuSans-76"/>
      <use x="55.712891" xlink:href="#DejaVuSans-105"/>
      <use x="83.496094" xlink:href="#DejaVuSans-103"/>
      <use x="146.972656" xlink:href="#DejaVuSans-104"/>
      <use x="210.351562" xlink:href="#DejaVuSans-116"/>
      <use x="249.560547" xlink:href="#DejaVuSans-83"/>
      <use x="313.037109" xlink:href="#DejaVuSans-97"/>
      <use x="374.316406" xlink:href="#DejaVuSans-98"/>
      <use x="437.792969" xlink:href="#DejaVuSans-101"/>
      <use x="499.316406" xlink:href="#DejaVuSans-114"/>
     </g>
    </g>
    <g id="line2d_36">
     <path d="M 322.710938 259.704062 
L 342.710938 259.704062 
" style="fill:none;stroke:#2ca02c;stroke-linecap:square;stroke-width:1.5;"/>
    </g>
    <g id="line2d_37"/>
    <g id="text_19">
     <!-- P-256 -->
     <g transform="translate(350.710938 263.204062)scale(0.1 -0.1)">
      <defs>
       <path d="M 4.890625 31.390625 
L 31.203125 31.390625 
L 31.203125 23.390625 
L 4.890625 23.390625 
z
" id="DejaVuSans-45"/>
      </defs>
      <use xlink:href="#DejaVuSans-80"/>
      <use x="58.052734" xlink:href="#DejaVuSans-45"/>
      <use x="94.136719" xlink:href="#DejaVuSans-50"/>
      <use x="157.759766" xlink:href="#DejaVuSans-53"/>
      <use x="221.382812" xlink:href="#DejaVuSans-54"/>
     </g>
    </g>
    <g id="line2d_38">
     <path d="M 322.710938 274.382187 
L 342.710938 274.382187 
" style="fill:none;stroke:#d62728;stroke-linecap:square;stroke-width:1.5;"/>
    </g>
    <g id="line2d_39"/>
    <g id="text_20">
     <!-- NTRUhps2048509 -->
     <g transform="translate(350.710938 277.882187)scale(0.1 -0.1)">
      <defs>
       <path d="M 9.8125 72.90625 
L 23.09375 72.90625 
L 55.421875 11.921875 
L 55.421875 72.90625 
L 64.984375 72.90625 
L 64.984375 0 
L 51.703125 0 
L 19.390625 60.984375 
L 19.390625 0 
L 9.8125 0 
z
" id="DejaVuSans-78"/>
       <path d="M -0.296875 72.90625 
L 61.375 72.90625 
L 61.375 64.59375 
L 35.5 64.59375 
L 35.5 0 
L 25.59375 0 
L 25.59375 64.59375 
L -0.296875 64.59375 
z
" id="DejaVuSans-84"/>
       <path d="M 44.390625 34.1875 
Q 47.5625 33.109375 50.5625 29.59375 
Q 53.5625 26.078125 56.59375 19.921875 
L 66.609375 0 
L 56 0 
L 46.6875 18.703125 
Q 43.0625 26.03125 39.671875 28.421875 
Q 36.28125 30.8125 30.421875 30.8125 
L 19.671875 30.8125 
L 19.671875 0 
L 9.8125 0 
L 9.8125 72.90625 
L 32.078125 72.90625 
Q 44.578125 72.90625 50.734375 67.671875 
Q 56.890625 62.453125 56.890625 51.90625 
Q 56.890625 45.015625 53.6875 40.46875 
Q 50.484375 35.9375 44.390625 34.1875 
z
M 19.671875 64.796875 
L 19.671875 38.921875 
L 32.078125 38.921875 
Q 39.203125 38.921875 42.84375 42.21875 
Q 46.484375 45.515625 46.484375 51.90625 
Q 46.484375 58.296875 42.84375 61.546875 
Q 39.203125 64.796875 32.078125 64.796875 
z
" id="DejaVuSans-82"/>
       <path d="M 8.6875 72.90625 
L 18.609375 72.90625 
L 18.609375 28.609375 
Q 18.609375 16.890625 22.84375 11.734375 
Q 27.09375 6.59375 36.625 6.59375 
Q 46.09375 6.59375 50.34375 11.734375 
Q 54.59375 16.890625 54.59375 28.609375 
L 54.59375 72.90625 
L 64.5 72.90625 
L 64.5 27.390625 
Q 64.5 13.140625 57.4375 5.859375 
Q 50.390625 -1.421875 36.625 -1.421875 
Q 22.796875 -1.421875 15.734375 5.859375 
Q 8.6875 13.140625 8.6875 27.390625 
z
" id="DejaVuSans-85"/>
       <path d="M 18.109375 8.203125 
L 18.109375 -20.796875 
L 9.078125 -20.796875 
L 9.078125 54.6875 
L 18.109375 54.6875 
L 18.109375 46.390625 
Q 20.953125 51.265625 25.265625 53.625 
Q 29.59375 56 35.59375 56 
Q 45.5625 56 51.78125 48.09375 
Q 58.015625 40.1875 58.015625 27.296875 
Q 58.015625 14.40625 51.78125 6.484375 
Q 45.5625 -1.421875 35.59375 -1.421875 
Q 29.59375 -1.421875 25.265625 0.953125 
Q 20.953125 3.328125 18.109375 8.203125 
z
M 48.6875 27.296875 
Q 48.6875 37.203125 44.609375 42.84375 
Q 40.53125 48.484375 33.40625 48.484375 
Q 26.265625 48.484375 22.1875 42.84375 
Q 18.109375 37.203125 18.109375 27.296875 
Q 18.109375 17.390625 22.1875 11.75 
Q 26.265625 6.109375 33.40625 6.109375 
Q 40.53125 6.109375 44.609375 11.75 
Q 48.6875 17.390625 48.6875 27.296875 
z
" id="DejaVuSans-112"/>
       <path d="M 10.984375 1.515625 
L 10.984375 10.5 
Q 14.703125 8.734375 18.5 7.8125 
Q 22.3125 6.890625 25.984375 6.890625 
Q 35.75 6.890625 40.890625 13.453125 
Q 46.046875 20.015625 46.78125 33.40625 
Q 43.953125 29.203125 39.59375 26.953125 
Q 35.25 24.703125 29.984375 24.703125 
Q 19.046875 24.703125 12.671875 31.3125 
Q 6.296875 37.9375 6.296875 49.421875 
Q 6.296875 60.640625 12.9375 67.421875 
Q 19.578125 74.21875 30.609375 74.21875 
Q 43.265625 74.21875 49.921875 64.515625 
Q 56.59375 54.828125 56.59375 36.375 
Q 56.59375 19.140625 48.40625 8.859375 
Q 40.234375 -1.421875 26.421875 -1.421875 
Q 22.703125 -1.421875 18.890625 -0.6875 
Q 15.09375 0.046875 10.984375 1.515625 
z
M 30.609375 32.421875 
Q 37.25 32.421875 41.125 36.953125 
Q 45.015625 41.5 45.015625 49.421875 
Q 45.015625 57.28125 41.125 61.84375 
Q 37.25 66.40625 30.609375 66.40625 
Q 23.96875 66.40625 20.09375 61.84375 
Q 16.21875 57.28125 16.21875 49.421875 
Q 16.21875 41.5 20.09375 36.953125 
Q 23.96875 32.421875 30.609375 32.421875 
z
" id="DejaVuSans-57"/>
      </defs>
      <use xlink:href="#DejaVuSans-78"/>
      <use x="74.804688" xlink:href="#DejaVuSans-84"/>
      <use x="135.888672" xlink:href="#DejaVuSans-82"/>
      <use x="205.371094" xlink:href="#DejaVuSans-85"/>
      <use x="278.564453" xlink:href="#DejaVuSans-104"/>
      <use x="341.943359" xlink:href="#DejaVuSans-112"/>
      <use x="405.419922" xlink:href="#DejaVuSans-115"/>
      <use x="457.519531" xlink:href="#DejaVuSans-50"/>
      <use x="521.142578" xlink:href="#DejaVuSans-48"/>
      <use x="584.765625" xlink:href="#DejaVuSans-52"/>
      <use x="648.388672" xlink:href="#DejaVuSans-56"/>
      <use x="712.011719" xlink:href="#DejaVuSans-53"/>
      <use x="775.634766" xlink:href="#DejaVuSans-48"/>
      <use x="839.257812" xlink:href="#DejaVuSans-57"/>
     </g>
    </g>
    <g id="line2d_40">
     <path d="M 322.710938 289.060312 
L 342.710938 289.060312 
" style="fill:none;stroke:#9467bd;stroke-linecap:square;stroke-width:1.5;"/>
    </g>
    <g id="line2d_41"/>
    <g id="text_21">
     <!-- X25519 -->
     <g transform="translate(350.710938 292.560312)scale(0.1 -0.1)">
      <defs>
       <path d="M 6.296875 72.90625 
L 16.890625 72.90625 
L 35.015625 45.796875 
L 53.21875 72.90625 
L 63.8125 72.90625 
L 40.375 37.890625 
L 65.375 0 
L 54.78125 0 
L 34.28125 31 
L 13.625 0 
L 2.984375 0 
L 29 38.921875 
z
" id="DejaVuSans-88"/>
      </defs>
      <use xlink:href="#DejaVuSans-88"/>
      <use x="68.505859" xlink:href="#DejaVuSans-50"/>
      <use x="132.128906" xlink:href="#DejaVuSans-53"/>
      <use x="195.751953" xlink:href="#DejaVuSans-53"/>
      <use x="259.375" xlink:href="#DejaVuSans-49"/>
      <use x="322.998047" xlink:href="#DejaVuSans-57"/>
     </g>
    </g>
   </g>
  </g>
 </g>
 <defs>
  <clipPath id="p80fcc8551c">
   <rect height="276.76" width="405.43" x="44.57" y="26.88"/>
  </clipPath>
 </defs>
</svg>
