<?xml version="1.0" encoding="utf-8" standalone="no"?>
<!DOCTYPE svg PUBLIC "-//W3C//DTD SVG 1.1//EN"
  "http://www.w3.org/Graphics/SVG/1.1/DTD/svg11.dtd">
<!-- Created with matplotlib (https://matplotlib.org/) -->
<svg height="345.6pt" version="1.1" viewBox="0 0 460.8 345.6" width="460.8pt" xmlns="http://www.w3.org/2000/svg" xmlns:xlink="http://www.w3.org/1999/xlink">
 <metadata>
  <rdf:RDF xmlns:cc="http://creativecommons.org/ns#" xmlns:dc="http://purl.org/dc/elements/1.1/" xmlns:rdf="http://www.w3.org/1999/02/22-rdf-syntax-ns#">
   <cc:Work>
    <dc:type rdf:resource="http://purl.org/dc/dcmitype/StillImage"/>
    <dc:date>2021-01-27T15:20:30.110867</dc:date>
    <dc:format>image/svg+xml</dc:format>
    <dc:creator>
     <cc:Agent>
      <dc:title>Matplotlib v3.3.2, https://matplotlib.org/</dc:title>
     </cc:Agent>
    </dc:creator>
   </cc:Work>
  </rdf:RDF>
 </metadata>
 <defs>
  <style type="text/css">*{stroke-linecap:butt;stroke-linejoin:round;}</style>
 </defs>
 <g id="figure_1">
  <g id="patch_1">
   <path d="M 0 345.6 
L 460.8 345.6 
L 460.8 0 
L 0 0 
z
" style="fill:#ffffff;"/>
  </g>
  <g id="axes_1">
   <g id="patch_2">
    <path d="M 44.57 317.72 
L 450 317.72 
L 450 26.88 
L 44.57 26.88 
z
" style="fill:#ffffff;"/>
   </g>
   <g id="matplotlib.axis_1">
    <g id="xtick_1">
     <g id="line2d_1">
      <path clip-path="url(#pda9ffeae64)" d="M 62.998636 317.72 
L 62.998636 26.88 
" style="fill:none;stroke:#b0b0b0;stroke-linecap:square;stroke-width:0.8;"/>
     </g>
     <g id="line2d_2">
      <defs>
       <path d="M 0 0 
L 0 3.5 
" id="m2d11f61e9b" style="stroke:#000000;stroke-width:0.8;"/>
      </defs>
      <g>
       <use style="stroke:#000000;stroke-width:0.8;" x="62.998636" xlink:href="#m2d11f61e9b" y="317.72"/>
      </g>
     </g>
     <g id="text_1">
      <!-- 0 -->
      <g transform="translate(59.817386 332.318437)scale(0.1 -0.1)">
       <defs>
        <path d="M 31.78125 66.40625 
Q 24.171875 66.40625 20.328125 58.90625 
Q 16.5 51.421875 16.5 36.375 
Q 16.5 21.390625 20.328125 13.890625 
Q 24.171875 6.390625 31.78125 6.390625 
Q 39.453125 6.390625 43.28125 13.890625 
Q 47.125 21.390625 47.125 36.375 
Q 47.125 51.421875 43.28125 58.90625 
Q 39.453125 66.40625 31.78125 66.40625 
z
M 31.78125 74.21875 
Q 44.046875 74.21875 50.515625 64.515625 
Q 56.984375 54.828125 56.984375 36.375 
Q 56.984375 17.96875 50.515625 8.265625 
Q 44.046875 -1.421875 31.78125 -1.421875 
Q 19.53125 -1.421875 13.0625 8.265625 
Q 6.59375 17.96875 6.59375 36.375 
Q 6.59375 54.828125 13.0625 64.515625 
Q 19.53125 74.21875 31.78125 74.21875 
z
" id="DejaVuSans-48"/>
       </defs>
       <use xlink:href="#DejaVuSans-48"/>
      </g>
     </g>
    </g>
    <g id="xtick_2">
     <g id="line2d_3">
      <path clip-path="url(#pda9ffeae64)" d="M 136.78697 317.72 
L 136.78697 26.88 
" style="fill:none;stroke:#b0b0b0;stroke-linecap:square;stroke-width:0.8;"/>
     </g>
     <g id="line2d_4">
      <g>
       <use style="stroke:#000000;stroke-width:0.8;" x="136.78697" xlink:href="#m2d11f61e9b" y="317.72"/>
      </g>
     </g>
     <g id="text_2">
      <!-- 200 -->
      <g transform="translate(127.24322 332.318437)scale(0.1 -0.1)">
       <defs>
        <path d="M 19.1875 8.296875 
L 53.609375 8.296875 
L 53.609375 0 
L 7.328125 0 
L 7.328125 8.296875 
Q 12.9375 14.109375 22.625 23.890625 
Q 32.328125 33.6875 34.8125 36.53125 
Q 39.546875 41.84375 41.421875 45.53125 
Q 43.3125 49.21875 43.3125 52.78125 
Q 43.3125 58.59375 39.234375 62.25 
Q 35.15625 65.921875 28.609375 65.921875 
Q 23.96875 65.921875 18.8125 64.3125 
Q 13.671875 62.703125 7.8125 59.421875 
L 7.8125 69.390625 
Q 13.765625 71.78125 18.9375 73 
Q 24.125 74.21875 28.421875 74.21875 
Q 39.75 74.21875 46.484375 68.546875 
Q 53.21875 62.890625 53.21875 53.421875 
Q 53.21875 48.921875 51.53125 44.890625 
Q 49.859375 40.875 45.40625 35.40625 
Q 44.1875 33.984375 37.640625 27.21875 
Q 31.109375 20.453125 19.1875 8.296875 
z
" id="DejaVuSans-50"/>
       </defs>
       <use xlink:href="#DejaVuSans-50"/>
       <use x="63.623047" xlink:href="#DejaVuSans-48"/>
       <use x="127.246094" xlink:href="#DejaVuSans-48"/>
      </g>
     </g>
    </g>
    <g id="xtick_3">
     <g id="line2d_5">
      <path clip-path="url(#pda9ffeae64)" d="M 210.575304 317.72 
L 210.575304 26.88 
" style="fill:none;stroke:#b0b0b0;stroke-linecap:square;stroke-width:0.8;"/>
     </g>
     <g id="line2d_6">
      <g>
       <use style="stroke:#000000;stroke-width:0.8;" x="210.575304" xlink:href="#m2d11f61e9b" y="317.72"/>
      </g>
     </g>
     <g id="text_3">
      <!-- 400 -->
      <g transform="translate(201.031554 332.318437)scale(0.1 -0.1)">
       <defs>
        <path d="M 37.796875 64.3125 
L 12.890625 25.390625 
L 37.796875 25.390625 
z
M 35.203125 72.90625 
L 47.609375 72.90625 
L 47.609375 25.390625 
L 58.015625 25.390625 
L 58.015625 17.1875 
L 47.609375 17.1875 
L 47.609375 0 
L 37.796875 0 
L 37.796875 17.1875 
L 4.890625 17.1875 
L 4.890625 26.703125 
z
" id="DejaVuSans-52"/>
       </defs>
       <use xlink:href="#DejaVuSans-52"/>
       <use x="63.623047" xlink:href="#DejaVuSans-48"/>
       <use x="127.246094" xlink:href="#DejaVuSans-48"/>
      </g>
     </g>
    </g>
    <g id="xtick_4">
     <g id="line2d_7">
      <path clip-path="url(#pda9ffeae64)" d="M 284.363638 317.72 
L 284.363638 26.88 
" style="fill:none;stroke:#b0b0b0;stroke-linecap:square;stroke-width:0.8;"/>
     </g>
     <g id="line2d_8">
      <g>
       <use style="stroke:#000000;stroke-width:0.8;" x="284.363638" xlink:href="#m2d11f61e9b" y="317.72"/>
      </g>
     </g>
     <g id="text_4">
      <!-- 600 -->
      <g transform="translate(274.819888 332.318437)scale(0.1 -0.1)">
       <defs>
        <path d="M 33.015625 40.375 
Q 26.375 40.375 22.484375 35.828125 
Q 18.609375 31.296875 18.609375 23.390625 
Q 18.609375 15.53125 22.484375 10.953125 
Q 26.375 6.390625 33.015625 6.390625 
Q 39.65625 6.390625 43.53125 10.953125 
Q 47.40625 15.53125 47.40625 23.390625 
Q 47.40625 31.296875 43.53125 35.828125 
Q 39.65625 40.375 33.015625 40.375 
z
M 52.59375 71.296875 
L 52.59375 62.3125 
Q 48.875 64.0625 45.09375 64.984375 
Q 41.3125 65.921875 37.59375 65.921875 
Q 27.828125 65.921875 22.671875 59.328125 
Q 17.53125 52.734375 16.796875 39.40625 
Q 19.671875 43.65625 24.015625 45.921875 
Q 28.375 48.1875 33.59375 48.1875 
Q 44.578125 48.1875 50.953125 41.515625 
Q 57.328125 34.859375 57.328125 23.390625 
Q 57.328125 12.15625 50.6875 5.359375 
Q 44.046875 -1.421875 33.015625 -1.421875 
Q 20.359375 -1.421875 13.671875 8.265625 
Q 6.984375 17.96875 6.984375 36.375 
Q 6.984375 53.65625 15.1875 63.9375 
Q 23.390625 74.21875 37.203125 74.21875 
Q 40.921875 74.21875 44.703125 73.484375 
Q 48.484375 72.75 52.59375 71.296875 
z
" id="DejaVuSans-54"/>
       </defs>
       <use xlink:href="#DejaVuSans-54"/>
       <use x="63.623047" xlink:href="#DejaVuSans-48"/>
       <use x="127.246094" xlink:href="#DejaVuSans-48"/>
      </g>
     </g>
    </g>
    <g id="xtick_5">
     <g id="line2d_9">
      <path clip-path="url(#pda9ffeae64)" d="M 358.151972 317.72 
L 358.151972 26.88 
" style="fill:none;stroke:#b0b0b0;stroke-linecap:square;stroke-width:0.8;"/>
     </g>
     <g id="line2d_10">
      <g>
       <use style="stroke:#000000;stroke-width:0.8;" x="358.151972" xlink:href="#m2d11f61e9b" y="317.72"/>
      </g>
     </g>
     <g id="text_5">
      <!-- 800 -->
      <g transform="translate(348.608222 332.318437)scale(0.1 -0.1)">
       <defs>
        <path d="M 31.78125 34.625 
Q 24.75 34.625 20.71875 30.859375 
Q 16.703125 27.09375 16.703125 20.515625 
Q 16.703125 13.921875 20.71875 10.15625 
Q 24.75 6.390625 31.78125 6.390625 
Q 38.8125 6.390625 42.859375 10.171875 
Q 46.921875 13.96875 46.921875 20.515625 
Q 46.921875 27.09375 42.890625 30.859375 
Q 38.875 34.625 31.78125 34.625 
z
M 21.921875 38.8125 
Q 15.578125 40.375 12.03125 44.71875 
Q 8.5 49.078125 8.5 55.328125 
Q 8.5 64.0625 14.71875 69.140625 
Q 20.953125 74.21875 31.78125 74.21875 
Q 42.671875 74.21875 48.875 69.140625 
Q 55.078125 64.0625 55.078125 55.328125 
Q 55.078125 49.078125 51.53125 44.71875 
Q 48 40.375 41.703125 38.8125 
Q 48.828125 37.15625 52.796875 32.3125 
Q 56.78125 27.484375 56.78125 20.515625 
Q 56.78125 9.90625 50.3125 4.234375 
Q 43.84375 -1.421875 31.78125 -1.421875 
Q 19.734375 -1.421875 13.25 4.234375 
Q 6.78125 9.90625 6.78125 20.515625 
Q 6.78125 27.484375 10.78125 32.3125 
Q 14.796875 37.15625 21.921875 38.8125 
z
M 18.3125 54.390625 
Q 18.3125 48.734375 21.84375 45.5625 
Q 25.390625 42.390625 31.78125 42.390625 
Q 38.140625 42.390625 41.71875 45.5625 
Q 45.3125 48.734375 45.3125 54.390625 
Q 45.3125 60.0625 41.71875 63.234375 
Q 38.140625 66.40625 31.78125 66.40625 
Q 25.390625 66.40625 21.84375 63.234375 
Q 18.3125 60.0625 18.3125 54.390625 
z
" id="DejaVuSans-56"/>
       </defs>
       <use xlink:href="#DejaVuSans-56"/>
       <use x="63.623047" xlink:href="#DejaVuSans-48"/>
       <use x="127.246094" xlink:href="#DejaVuSans-48"/>
      </g>
     </g>
    </g>
    <g id="xtick_6">
     <g id="line2d_11">
      <path clip-path="url(#pda9ffeae64)" d="M 431.940305 317.72 
L 431.940305 26.88 
" style="fill:none;stroke:#b0b0b0;stroke-linecap:square;stroke-width:0.8;"/>
     </g>
     <g id="line2d_12">
      <g>
       <use style="stroke:#000000;stroke-width:0.8;" x="431.940305" xlink:href="#m2d11f61e9b" y="317.72"/>
      </g>
     </g>
     <g id="text_6">
      <!-- 1000 -->
      <g transform="translate(419.215305 332.318437)scale(0.1 -0.1)">
       <defs>
        <path d="M 12.40625 8.296875 
L 28.515625 8.296875 
L 28.515625 63.921875 
L 10.984375 60.40625 
L 10.984375 69.390625 
L 28.421875 72.90625 
L 38.28125 72.90625 
L 38.28125 8.296875 
L 54.390625 8.296875 
L 54.390625 0 
L 12.40625 0 
z
" id="DejaVuSans-49"/>
       </defs>
       <use xlink:href="#DejaVuSans-49"/>
       <use x="63.623047" xlink:href="#DejaVuSans-48"/>
       <use x="127.246094" xlink:href="#DejaVuSans-48"/>
       <use x="190.869141" xlink:href="#DejaVuSans-48"/>
      </g>
     </g>
    </g>
   </g>
   <g id="matplotlib.axis_2">
    <g id="ytick_1">
     <g id="line2d_13">
      <path clip-path="url(#pda9ffeae64)" d="M 44.57 296.2375 
L 450 296.2375 
" style="fill:none;stroke:#b0b0b0;stroke-linecap:square;stroke-width:0.8;"/>
     </g>
     <g id="line2d_14">
      <defs>
       <path d="M 0 0 
L -3.5 0 
" id="m1eac3a7c23" style="stroke:#000000;stroke-width:0.8;"/>
      </defs>
      <g>
       <use style="stroke:#000000;stroke-width:0.8;" x="44.57" xlink:href="#m1eac3a7c23" y="296.2375"/>
      </g>
     </g>
     <g id="text_7">
      <!-- 5 -->
      <g transform="translate(31.2075 300.036719)scale(0.1 -0.1)">
       <defs>
        <path d="M 10.796875 72.90625 
L 49.515625 72.90625 
L 49.515625 64.59375 
L 19.828125 64.59375 
L 19.828125 46.734375 
Q 21.96875 47.46875 24.109375 47.828125 
Q 26.265625 48.1875 28.421875 48.1875 
Q 40.625 48.1875 47.75 41.5 
Q 54.890625 34.8125 54.890625 23.390625 
Q 54.890625 11.625 47.5625 5.09375 
Q 40.234375 -1.421875 26.90625 -1.421875 
Q 22.3125 -1.421875 17.546875 -0.640625 
Q 12.796875 0.140625 7.71875 1.703125 
L 7.71875 11.625 
Q 12.109375 9.234375 16.796875 8.0625 
Q 21.484375 6.890625 26.703125 6.890625 
Q 35.15625 6.890625 40.078125 11.328125 
Q 45.015625 15.765625 45.015625 23.390625 
Q 45.015625 31 40.078125 35.4375 
Q 35.15625 39.890625 26.703125 39.890625 
Q 22.75 39.890625 18.8125 39.015625 
Q 14.890625 38.140625 10.796875 36.28125 
z
" id="DejaVuSans-53"/>
       </defs>
       <use xlink:href="#DejaVuSans-53"/>
      </g>
     </g>
    </g>
    <g id="ytick_2">
     <g id="line2d_15">
      <path clip-path="url(#pda9ffeae64)" d="M 44.57 254.925 
L 450 254.925 
" style="fill:none;stroke:#b0b0b0;stroke-linecap:square;stroke-width:0.8;"/>
     </g>
     <g id="line2d_16">
      <g>
       <use style="stroke:#000000;stroke-width:0.8;" x="44.57" xlink:href="#m1eac3a7c23" y="254.925"/>
      </g>
     </g>
     <g id="text_8">
      <!-- 10 -->
      <g transform="translate(24.845 258.724219)scale(0.1 -0.1)">
       <use xlink:href="#DejaVuSans-49"/>
       <use x="63.623047" xlink:href="#DejaVuSans-48"/>
      </g>
     </g>
    </g>
    <g id="ytick_3">
     <g id="line2d_17">
      <path clip-path="url(#pda9ffeae64)" d="M 44.57 213.6125 
L 450 213.6125 
" style="fill:none;stroke:#b0b0b0;stroke-linecap:square;stroke-width:0.8;"/>
     </g>
     <g id="line2d_18">
      <g>
       <use style="stroke:#000000;stroke-width:0.8;" x="44.57" xlink:href="#m1eac3a7c23" y="213.6125"/>
      </g>
     </g>
     <g id="text_9">
      <!-- 15 -->
      <g transform="translate(24.845 217.411719)scale(0.1 -0.1)">
       <use xlink:href="#DejaVuSans-49"/>
       <use x="63.623047" xlink:href="#DejaVuSans-53"/>
      </g>
     </g>
    </g>
    <g id="ytick_4">
     <g id="line2d_19">
      <path clip-path="url(#pda9ffeae64)" d="M 44.57 172.3 
L 450 172.3 
" style="fill:none;stroke:#b0b0b0;stroke-linecap:square;stroke-width:0.8;"/>
     </g>
     <g id="line2d_20">
      <g>
       <use style="stroke:#000000;stroke-width:0.8;" x="44.57" xlink:href="#m1eac3a7c23" y="172.3"/>
      </g>
     </g>
     <g id="text_10">
      <!-- 20 -->
      <g transform="translate(24.845 176.099219)scale(0.1 -0.1)">
       <use xlink:href="#DejaVuSans-50"/>
       <use x="63.623047" xlink:href="#DejaVuSans-48"/>
      </g>
     </g>
    </g>
    <g id="ytick_5">
     <g id="line2d_21">
      <path clip-path="url(#pda9ffeae64)" d="M 44.57 130.9875 
L 450 130.9875 
" style="fill:none;stroke:#b0b0b0;stroke-linecap:square;stroke-width:0.8;"/>
     </g>
     <g id="line2d_22">
      <g>
       <use style="stroke:#000000;stroke-width:0.8;" x="44.57" xlink:href="#m1eac3a7c23" y="130.9875"/>
      </g>
     </g>
     <g id="text_11">
      <!-- 25 -->
      <g transform="translate(24.845 134.786719)scale(0.1 -0.1)">
       <use xlink:href="#DejaVuSans-50"/>
       <use x="63.623047" xlink:href="#DejaVuSans-53"/>
      </g>
     </g>
    </g>
    <g id="ytick_6">
     <g id="line2d_23">
      <path clip-path="url(#pda9ffeae64)" d="M 44.57 89.675 
L 450 89.675 
" style="fill:none;stroke:#b0b0b0;stroke-linecap:square;stroke-width:0.8;"/>
     </g>
     <g id="line2d_24">
      <g>
       <use style="stroke:#000000;stroke-width:0.8;" x="44.57" xlink:href="#m1eac3a7c23" y="89.675"/>
      </g>
     </g>
     <g id="text_12">
      <!-- 30 -->
      <g transform="translate(24.845 93.474219)scale(0.1 -0.1)">
       <defs>
        <path d="M 40.578125 39.3125 
Q 47.65625 37.796875 51.625 33 
Q 55.609375 28.21875 55.609375 21.1875 
Q 55.609375 10.40625 48.1875 4.484375 
Q 40.765625 -1.421875 27.09375 -1.421875 
Q 22.515625 -1.421875 17.65625 -0.515625 
Q 12.796875 0.390625 7.625 2.203125 
L 7.625 11.71875 
Q 11.71875 9.328125 16.59375 8.109375 
Q 21.484375 6.890625 26.8125 6.890625 
Q 36.078125 6.890625 40.9375 10.546875 
Q 45.796875 14.203125 45.796875 21.1875 
Q 45.796875 27.640625 41.28125 31.265625 
Q 36.765625 34.90625 28.71875 34.90625 
L 20.21875 34.90625 
L 20.21875 43.015625 
L 29.109375 43.015625 
Q 36.375 43.015625 40.234375 45.921875 
Q 44.09375 48.828125 44.09375 54.296875 
Q 44.09375 59.90625 40.109375 62.90625 
Q 36.140625 65.921875 28.71875 65.921875 
Q 24.65625 65.921875 20.015625 65.03125 
Q 15.375 64.15625 9.8125 62.3125 
L 9.8125 71.09375 
Q 15.4375 72.65625 20.34375 73.4375 
Q 25.25 74.21875 29.59375 74.21875 
Q 40.828125 74.21875 47.359375 69.109375 
Q 53.90625 64.015625 53.90625 55.328125 
Q 53.90625 49.265625 50.4375 45.09375 
Q 46.96875 40.921875 40.578125 39.3125 
z
" id="DejaVuSans-51"/>
       </defs>
       <use xlink:href="#DejaVuSans-51"/>
       <use x="63.623047" xlink:href="#DejaVuSans-48"/>
      </g>
     </g>
    </g>
    <g id="ytick_7">
     <g id="line2d_25">
      <path clip-path="url(#pda9ffeae64)" d="M 44.57 48.3625 
L 450 48.3625 
" style="fill:none;stroke:#b0b0b0;stroke-linecap:square;stroke-width:0.8;"/>
     </g>
     <g id="line2d_26">
      <g>
       <use style="stroke:#000000;stroke-width:0.8;" x="44.57" xlink:href="#m1eac3a7c23" y="48.3625"/>
      </g>
     </g>
     <g id="text_13">
      <!-- 35 -->
      <g transform="translate(24.845 52.161719)scale(0.1 -0.1)">
       <use xlink:href="#DejaVuSans-51"/>
       <use x="63.623047" xlink:href="#DejaVuSans-53"/>
      </g>
     </g>
    </g>
    <g id="text_14">
     <!-- Packets -->
     <g transform="translate(18.765313 191.258594)rotate(-90)scale(0.1 -0.1)">
      <defs>
       <path d="M 19.671875 64.796875 
L 19.671875 37.40625 
L 32.078125 37.40625 
Q 38.96875 37.40625 42.71875 40.96875 
Q 46.484375 44.53125 46.484375 51.125 
Q 46.484375 57.671875 42.71875 61.234375 
Q 38.96875 64.796875 32.078125 64.796875 
z
M 9.8125 72.90625 
L 32.078125 72.90625 
Q 44.34375 72.90625 50.609375 67.359375 
Q 56.890625 61.8125 56.890625 51.125 
Q 56.890625 40.328125 50.609375 34.8125 
Q 44.34375 29.296875 32.078125 29.296875 
L 19.671875 29.296875 
L 19.671875 0 
L 9.8125 0 
z
" id="DejaVuSans-80"/>
       <path d="M 34.28125 27.484375 
Q 23.390625 27.484375 19.1875 25 
Q 14.984375 22.515625 14.984375 16.5 
Q 14.984375 11.71875 18.140625 8.90625 
Q 21.296875 6.109375 26.703125 6.109375 
Q 34.1875 6.109375 38.703125 11.40625 
Q 43.21875 16.703125 43.21875 25.484375 
L 43.21875 27.484375 
z
M 52.203125 31.203125 
L 52.203125 0 
L 43.21875 0 
L 43.21875 8.296875 
Q 40.140625 3.328125 35.546875 0.953125 
Q 30.953125 -1.421875 24.3125 -1.421875 
Q 15.921875 -1.421875 10.953125 3.296875 
Q 6 8.015625 6 15.921875 
Q 6 25.140625 12.171875 29.828125 
Q 18.359375 34.515625 30.609375 34.515625 
L 43.21875 34.515625 
L 43.21875 35.40625 
Q 43.21875 41.609375 39.140625 45 
Q 35.0625 48.390625 27.6875 48.390625 
Q 23 48.390625 18.546875 47.265625 
Q 14.109375 46.140625 10.015625 43.890625 
L 10.015625 52.203125 
Q 14.9375 54.109375 19.578125 55.046875 
Q 24.21875 56 28.609375 56 
Q 40.484375 56 46.34375 49.84375 
Q 52.203125 43.703125 52.203125 31.203125 
z
" id="DejaVuSans-97"/>
       <path d="M 48.78125 52.59375 
L 48.78125 44.1875 
Q 44.96875 46.296875 41.140625 47.34375 
Q 37.3125 48.390625 33.40625 48.390625 
Q 24.65625 48.390625 19.8125 42.84375 
Q 14.984375 37.3125 14.984375 27.296875 
Q 14.984375 17.28125 19.8125 11.734375 
Q 24.65625 6.203125 33.40625 6.203125 
Q 37.3125 6.203125 41.140625 7.25 
Q 44.96875 8.296875 48.78125 10.40625 
L 48.78125 2.09375 
Q 45.015625 0.34375 40.984375 -0.53125 
Q 36.96875 -1.421875 32.421875 -1.421875 
Q 20.0625 -1.421875 12.78125 6.34375 
Q 5.515625 14.109375 5.515625 27.296875 
Q 5.515625 40.671875 12.859375 48.328125 
Q 20.21875 56 33.015625 56 
Q 37.15625 56 41.109375 55.140625 
Q 45.0625 54.296875 48.78125 52.59375 
z
" id="DejaVuSans-99"/>
       <path d="M 9.078125 75.984375 
L 18.109375 75.984375 
L 18.109375 31.109375 
L 44.921875 54.6875 
L 56.390625 54.6875 
L 27.390625 29.109375 
L 57.625 0 
L 45.90625 0 
L 18.109375 26.703125 
L 18.109375 0 
L 9.078125 0 
z
" id="DejaVuSans-107"/>
       <path d="M 56.203125 29.59375 
L 56.203125 25.203125 
L 14.890625 25.203125 
Q 15.484375 15.921875 20.484375 11.0625 
Q 25.484375 6.203125 34.421875 6.203125 
Q 39.59375 6.203125 44.453125 7.46875 
Q 49.3125 8.734375 54.109375 11.28125 
L 54.109375 2.78125 
Q 49.265625 0.734375 44.1875 -0.34375 
Q 39.109375 -1.421875 33.890625 -1.421875 
Q 20.796875 -1.421875 13.15625 6.1875 
Q 5.515625 13.8125 5.515625 26.8125 
Q 5.515625 40.234375 12.765625 48.109375 
Q 20.015625 56 32.328125 56 
Q 43.359375 56 49.78125 48.890625 
Q 56.203125 41.796875 56.203125 29.59375 
z
M 47.21875 32.234375 
Q 47.125 39.59375 43.09375 43.984375 
Q 39.0625 48.390625 32.421875 48.390625 
Q 24.90625 48.390625 20.390625 44.140625 
Q 15.875 39.890625 15.1875 32.171875 
z
" id="DejaVuSans-101"/>
       <path d="M 18.3125 70.21875 
L 18.3125 54.6875 
L 36.8125 54.6875 
L 36.8125 47.703125 
L 18.3125 47.703125 
L 18.3125 18.015625 
Q 18.3125 11.328125 20.140625 9.421875 
Q 21.96875 7.515625 27.59375 7.515625 
L 36.8125 7.515625 
L 36.8125 0 
L 27.59375 0 
Q 17.1875 0 13.234375 3.875 
Q 9.28125 7.765625 9.28125 18.015625 
L 9.28125 47.703125 
L 2.6875 47.703125 
L 2.6875 54.6875 
L 9.28125 54.6875 
L 9.28125 70.21875 
z
" id="DejaVuSans-116"/>
       <path d="M 44.28125 53.078125 
L 44.28125 44.578125 
Q 40.484375 46.53125 36.375 47.5 
Q 32.28125 48.484375 27.875 48.484375 
Q 21.1875 48.484375 17.84375 46.4375 
Q 14.5 44.390625 14.5 40.28125 
Q 14.5 37.15625 16.890625 35.375 
Q 19.28125 33.59375 26.515625 31.984375 
L 29.59375 31.296875 
Q 39.15625 29.25 43.1875 25.515625 
Q 47.21875 21.78125 47.21875 15.09375 
Q 47.21875 7.46875 41.1875 3.015625 
Q 35.15625 -1.421875 24.609375 -1.421875 
Q 20.21875 -1.421875 15.453125 -0.5625 
Q 10.6875 0.296875 5.421875 2 
L 5.421875 11.28125 
Q 10.40625 8.6875 15.234375 7.390625 
Q 20.0625 6.109375 24.8125 6.109375 
Q 31.15625 6.109375 34.5625 8.28125 
Q 37.984375 10.453125 37.984375 14.40625 
Q 37.984375 18.0625 35.515625 20.015625 
Q 33.0625 21.96875 24.703125 23.78125 
L 21.578125 24.515625 
Q 13.234375 26.265625 9.515625 29.90625 
Q 5.8125 33.546875 5.8125 39.890625 
Q 5.8125 47.609375 11.28125 51.796875 
Q 16.75 56 26.8125 56 
Q 31.78125 56 36.171875 55.265625 
Q 40.578125 54.546875 44.28125 53.078125 
z
" id="DejaVuSans-115"/>
      </defs>
      <use xlink:href="#DejaVuSans-80"/>
      <use x="55.802734" xlink:href="#DejaVuSans-97"/>
      <use x="117.082031" xlink:href="#DejaVuSans-99"/>
      <use x="172.0625" xlink:href="#DejaVuSans-107"/>
      <use x="226.347656" xlink:href="#DejaVuSans-101"/>
      <use x="287.871094" xlink:href="#DejaVuSans-116"/>
      <use x="327.080078" xlink:href="#DejaVuSans-115"/>
     </g>
    </g>
   </g>
   <g id="line2d_27">
    <path clip-path="url(#pda9ffeae64)" d="M 62.998636 139.25 
L 68.532761 139.25 
L 68.901703 130.9875 
L 69.639586 130.9875 
L 70.008528 139.25 
L 72.59112 139.25 
L 72.960061 130.9875 
L 73.329003 139.25 
L 73.697945 139.25 
L 74.066886 130.9875 
L 74.435828 139.25 
L 77.01842 139.25 
L 77.387361 130.9875 
L 77.756303 139.25 
L 79.23207 139.25 
L 79.601011 130.9875 
L 79.969953 139.25 
L 80.707836 139.25 
L 81.076778 130.9875 
L 81.814661 130.9875 
L 82.183603 139.25 
L 82.552545 130.9875 
L 82.921486 139.25 
L 83.290428 130.9875 
L 83.65937 139.25 
L 84.028311 139.25 
L 84.397253 130.9875 
L 84.766195 139.25 
L 85.135137 139.25 
L 85.504078 130.9875 
L 85.87302 139.25 
L 93.251853 139.25 
L 93.620795 130.9875 
L 93.989737 139.25 
L 95.465503 139.25 
L 95.834445 130.9875 
L 96.203387 139.25 
L 97.310212 139.25 
L 97.679153 130.9875 
L 98.048095 139.25 
L 98.417037 155.775 
L 98.785978 139.25 
L 100.261745 139.25 
L 100.630687 130.9875 
L 100.999628 139.25 
L 103.58222 139.25 
L 103.951162 130.9875 
L 104.320103 114.4625 
L 104.689045 139.25 
L 112.067878 139.25 
L 112.43682 130.9875 
L 112.805762 139.25 
L 114.281528 139.25 
L 114.65047 130.9875 
L 115.019412 139.25 
L 115.388353 130.9875 
L 115.757295 139.25 
L 117.233062 139.25 
L 117.602003 130.9875 
L 117.970945 139.25 
L 119.07777 139.25 
L 119.446712 130.9875 
L 119.815653 139.25 
L 121.29142 139.25 
L 121.660362 130.9875 
L 122.029303 139.25 
L 122.398245 130.9875 
L 122.767187 139.25 
L 124.242953 139.25 
L 124.611895 130.9875 
L 124.980837 130.9875 
L 125.349778 139.25 
L 128.301312 139.25 
L 128.670253 155.775 
L 129.039195 155.775 
L 129.408137 139.25 
L 136.049087 139.25 
L 136.418028 130.9875 
L 136.78697 139.25 
L 139.00062 139.25 
L 139.369562 130.9875 
L 139.738504 130.9875 
L 140.107445 139.25 
L 140.476387 130.9875 
L 140.845329 139.25 
L 147.486279 139.25 
L 147.85522 130.9875 
L 148.224162 139.25 
L 148.962045 139.25 
L 149.330987 130.9875 
L 149.699929 139.25 
L 151.913579 139.25 
L 152.28252 130.9875 
L 153.020404 130.9875 
L 153.389345 139.25 
L 153.758287 130.9875 
L 154.127229 139.25 
L 154.49617 139.25 
L 154.865112 130.9875 
L 155.234054 139.25 
L 157.816645 139.25 
L 158.185587 130.9875 
L 158.554529 139.25 
L 162.612887 139.25 
L 162.981829 130.9875 
L 163.35077 155.775 
L 163.719712 139.25 
L 166.302304 139.25 
L 166.671245 130.9875 
L 167.040187 130.9875 
L 167.409129 139.25 
L 169.99172 139.25 
L 170.360662 130.9875 
L 170.729604 139.25 
L 173.312195 139.25 
L 173.681137 130.9875 
L 174.050079 139.25 
L 177.370554 139.25 
L 177.739495 130.9875 
L 178.108437 139.25 
L 179.953145 139.25 
L 180.322087 130.9875 
L 180.691029 139.25 
L 181.428912 139.25 
L 181.797854 130.9875 
L 182.166795 139.25 
L 186.594095 139.25 
L 186.963037 130.9875 
L 187.331979 130.9875 
L 187.70092 139.25 
L 188.807745 139.25 
L 189.176687 130.9875 
L 189.545629 139.25 
L 192.866104 139.25 
L 193.235046 130.9875 
L 193.603987 139.25 
L 193.972929 130.9875 
L 194.341871 139.25 
L 195.448696 139.25 
L 195.817637 130.9875 
L 196.186579 139.25 
L 196.555521 139.25 
L 196.924462 147.5125 
L 197.293404 139.25 
L 197.662346 139.25 
L 198.031287 130.9875 
L 198.400229 139.25 
L 198.769171 130.9875 
L 199.138112 130.9875 
L 199.507054 139.25 
L 199.875996 130.9875 
L 200.244937 139.25 
L 200.982821 139.25 
L 201.351762 130.9875 
L 201.720704 139.25 
L 206.885887 139.25 
L 207.254829 130.9875 
L 207.623771 139.25 
L 211.313187 139.25 
L 211.682129 130.9875 
L 212.051071 139.25 
L 214.264721 139.25 
L 214.633662 130.9875 
L 215.002604 139.25 
L 216.109429 139.25 
L 216.478371 130.9875 
L 216.847312 139.25 
L 220.536729 139.25 
L 220.905671 130.9875 
L 221.274612 139.25 
L 222.012496 139.25 
L 222.381437 172.3 
L 222.750379 139.25 
L 226.439796 139.25 
L 226.808737 130.9875 
L 227.177679 139.25 
L 228.653446 139.25 
L 229.022387 130.9875 
L 229.391329 139.25 
L 230.129212 139.25 
L 230.498154 130.9875 
L 230.867096 139.25 
L 231.236037 139.25 
L 231.604979 130.9875 
L 231.973921 139.25 
L 232.342862 139.25 
L 232.711804 130.9875 
L 233.080746 139.25 
L 238.614871 139.25 
L 238.983812 130.9875 
L 239.352754 139.25 
L 245.255821 139.25 
L 245.624762 130.9875 
L 245.993704 139.25 
L 248.576296 139.25 
L 248.945238 130.9875 
L 249.314179 139.25 
L 250.052063 139.25 
L 250.421004 155.775 
L 250.789946 139.25 
L 251.527829 139.25 
L 251.896771 130.9875 
L 252.265713 139.25 
L 252.634654 130.9875 
L 253.003596 139.25 
L 253.372538 130.9875 
L 253.741479 130.9875 
L 254.110421 155.775 
L 254.479363 139.25 
L 257.799838 139.25 
L 258.168779 147.5125 
L 258.537721 139.25 
L 262.596079 139.25 
L 262.965021 130.9875 
L 263.333963 130.9875 
L 263.702904 139.25 
L 267.392321 139.25 
L 267.761263 130.9875 
L 268.130204 139.25 
L 271.450679 139.25 
L 271.819621 130.9875 
L 272.188563 139.25 
L 272.557504 139.25 
L 272.926446 130.9875 
L 273.295388 139.25 
L 274.033271 139.25 
L 274.402213 130.9875 
L 274.771154 139.25 
L 279.936338 139.25 
L 280.305279 130.9875 
L 280.674221 139.25 
L 282.518929 139.25 
L 282.887871 130.9875 
L 283.256813 139.25 
L 285.101521 139.25 
L 285.470463 130.9875 
L 285.839404 139.25 
L 292.480354 139.25 
L 292.849296 130.9875 
L 293.218238 139.25 
L 302.44178 139.25 
L 302.810721 130.9875 
L 303.548605 130.9875 
L 303.917546 139.25 
L 304.65543 139.25 
L 305.024371 172.3 
L 305.393313 130.9875 
L 305.762255 139.25 
L 307.975905 139.25 
L 308.344846 147.5125 
L 309.08273 130.9875 
L 309.451671 139.25 
L 314.985796 139.25 
L 315.354738 130.9875 
L 315.72368 139.25 
L 319.413096 139.25 
L 319.782038 130.9875 
L 320.15098 139.25 
L 320.519921 139.25 
L 320.888863 130.9875 
L 321.257805 139.25 
L 322.733571 139.25 
L 323.102513 130.9875 
L 323.471455 139.25 
L 324.947221 139.25 
L 325.316163 130.9875 
L 325.685105 139.25 
L 326.054046 139.25 
L 326.422988 130.9875 
L 326.79193 139.25 
L 327.160871 130.9875 
L 327.529813 139.25 
L 327.898755 139.25 
L 328.267696 130.9875 
L 328.636638 139.25 
L 334.539705 139.25 
L 334.908646 130.9875 
L 335.277588 139.25 
L 338.967005 139.25 
L 339.335946 130.9875 
L 339.704888 139.25 
L 340.811713 139.25 
L 341.180655 172.3 
L 341.549596 130.9875 
L 341.918538 139.25 
L 342.28748 130.9875 
L 342.656421 139.25 
L 349.297371 139.25 
L 349.666313 130.9875 
L 350.035255 139.25 
L 351.879963 139.25 
L 352.248905 130.9875 
L 352.617846 139.25 
L 354.831496 139.25 
L 355.200438 130.9875 
L 355.56938 139.25 
L 357.414088 139.25 
L 357.78303 172.3 
L 358.151972 139.25 
L 362.579272 139.25 
L 362.948213 130.9875 
L 363.317155 139.25 
L 363.686097 139.25 
L 364.055038 130.9875 
L 364.42398 139.25 
L 381.395297 139.25 
L 381.764238 130.9875 
L 382.13318 139.25 
L 386.929422 139.25 
L 387.298363 155.775 
L 387.667305 139.25 
L 390.98778 139.25 
L 391.356722 130.9875 
L 391.725663 139.25 
L 392.094605 139.25 
L 392.463547 147.5125 
L 392.832488 139.25 
L 398.366613 139.25 
L 398.735555 130.9875 
L 399.104497 139.25 
L 400.211322 139.25 
L 400.580263 130.9875 
L 400.949205 139.25 
L 401.687088 139.25 
L 402.05603 130.9875 
L 402.424972 139.25 
L 403.531797 139.25 
L 403.900738 130.9875 
L 404.26968 139.25 
L 404.638622 155.775 
L 405.007563 139.25 
L 407.959097 139.25 
L 408.328038 130.9875 
L 408.69698 139.25 
L 409.803805 139.25 
L 410.172747 130.9875 
L 410.541689 139.25 
L 410.91063 139.25 
L 411.279572 130.9875 
L 411.648514 139.25 
L 414.231105 139.25 
L 414.600047 130.9875 
L 414.968989 130.9875 
L 415.33793 139.25 
L 419.76523 139.25 
L 420.134172 155.775 
L 420.503114 139.25 
L 421.97888 139.25 
L 422.347822 130.9875 
L 422.716764 139.25 
L 423.085705 139.25 
L 423.454647 130.9875 
L 423.823589 139.25 
L 424.19253 130.9875 
L 424.561472 139.25 
L 424.930414 139.25 
L 425.299355 130.9875 
L 425.668297 139.25 
L 427.144064 139.25 
L 427.513005 155.775 
L 427.881947 139.25 
L 431.571364 139.25 
L 431.571364 139.25 
" style="fill:none;stroke:#1f77b4;stroke-linecap:square;stroke-width:1.5;"/>
   </g>
   <g id="line2d_28">
    <path clip-path="url(#pda9ffeae64)" d="M 62.998636 81.4125 
L 63.367578 81.4125 
L 63.73652 89.675 
L 64.105461 106.2 
L 64.474403 89.675 
L 66.319111 89.675 
L 66.688053 81.4125 
L 67.056995 89.675 
L 67.794878 89.675 
L 68.16382 106.2 
L 68.532761 89.675 
L 72.59112 89.675 
L 72.960061 81.4125 
L 73.329003 89.675 
L 77.756303 89.675 
L 78.125245 81.4125 
L 78.494186 89.675 
L 81.076778 89.675 
L 81.44572 81.4125 
L 81.814661 89.675 
L 82.183603 89.675 
L 82.552545 81.4125 
L 82.921486 81.4125 
L 83.290428 89.675 
L 84.397253 89.675 
L 84.766195 81.4125 
L 85.135137 89.675 
L 85.504078 81.4125 
L 85.87302 89.675 
L 87.348787 89.675 
L 87.717728 81.4125 
L 88.08667 89.675 
L 89.193495 89.675 
L 89.562437 81.4125 
L 89.931378 89.675 
L 90.30032 81.4125 
L 90.669262 89.675 
L 93.620795 89.675 
L 93.989737 81.4125 
L 94.72762 81.4125 
L 95.096562 89.675 
L 96.572328 89.675 
L 96.94127 81.4125 
L 97.310212 81.4125 
L 97.679153 89.675 
L 98.417037 89.675 
L 98.785978 106.2 
L 99.15492 89.675 
L 99.892803 89.675 
L 100.261745 81.4125 
L 100.630687 106.2 
L 100.999628 81.4125 
L 101.36857 81.4125 
L 101.737512 89.675 
L 102.475395 89.675 
L 102.844337 81.4125 
L 103.213278 81.4125 
L 103.58222 89.675 
L 106.164812 89.675 
L 106.533753 81.4125 
L 106.902695 81.4125 
L 107.271637 89.675 
L 107.640578 89.675 
L 108.00952 106.2 
L 108.378462 89.675 
L 111.698937 89.675 
L 112.067878 81.4125 
L 112.43682 89.675 
L 115.019412 89.675 
L 115.388353 106.2 
L 115.757295 89.675 
L 116.86412 89.675 
L 117.233062 81.4125 
L 117.602003 89.675 
L 123.136128 89.675 
L 123.50507 81.4125 
L 123.874012 89.675 
L 124.980837 89.675 
L 125.349778 81.4125 
L 125.71872 89.675 
L 126.087662 81.4125 
L 126.456603 89.675 
L 132.35967 89.675 
L 132.728612 81.4125 
L 133.097553 89.675 
L 140.476387 89.675 
L 140.845329 97.9375 
L 141.21427 89.675 
L 141.952154 89.675 
L 142.321095 97.9375 
L 142.690037 89.675 
L 143.42792 89.675 
L 143.796862 81.4125 
L 144.165804 89.675 
L 144.534745 89.675 
L 144.903687 81.4125 
L 145.272629 89.675 
L 145.64157 81.4125 
L 146.010512 89.675 
L 148.962045 89.675 
L 149.330987 106.2 
L 149.699929 81.4125 
L 150.06887 89.675 
L 150.806754 89.675 
L 151.175695 97.9375 
L 151.544637 89.675 
L 151.913579 89.675 
L 152.28252 81.4125 
L 152.651462 89.675 
L 155.234054 89.675 
L 155.602995 81.4125 
L 155.971937 81.4125 
L 156.340879 89.675 
L 156.70982 89.675 
L 157.078762 81.4125 
L 157.447704 89.675 
L 160.768179 89.675 
L 161.13712 81.4125 
L 161.506062 89.675 
L 164.457595 89.675 
L 164.826537 81.4125 
L 165.195479 89.675 
L 165.56442 81.4125 
L 165.933362 89.675 
L 166.671245 89.675 
L 167.040187 106.2 
L 167.409129 89.675 
L 167.77807 81.4125 
L 168.147012 89.675 
L 168.515954 89.675 
L 168.884895 81.4125 
L 169.253837 89.675 
L 170.360662 89.675 
L 170.729604 81.4125 
L 171.098545 81.4125 
L 171.467487 89.675 
L 175.525845 89.675 
L 175.894787 81.4125 
L 176.263729 89.675 
L 176.63267 106.2 
L 177.001612 89.675 
L 180.322087 89.675 
L 180.691029 106.2 
L 181.05997 81.4125 
L 181.428912 81.4125 
L 181.797854 89.675 
L 182.904679 89.675 
L 183.27362 81.4125 
L 183.642562 89.675 
L 184.011504 106.2 
L 184.380445 89.675 
L 184.749387 81.4125 
L 185.118329 89.675 
L 185.856212 89.675 
L 186.225154 81.4125 
L 186.594095 89.675 
L 189.176687 89.675 
L 189.545629 81.4125 
L 189.91457 89.675 
L 190.283512 81.4125 
L 190.652454 89.675 
L 191.390337 89.675 
L 191.759279 81.4125 
L 192.12822 89.675 
L 195.817637 89.675 
L 196.186579 81.4125 
L 196.555521 89.675 
L 198.400229 89.675 
L 198.769171 81.4125 
L 199.138112 89.675 
L 199.875996 89.675 
L 200.244937 81.4125 
L 200.613879 89.675 
L 202.458587 89.675 
L 202.827529 81.4125 
L 203.565412 81.4125 
L 203.934354 89.675 
L 205.041179 89.675 
L 205.410121 81.4125 
L 205.779062 81.4125 
L 206.148004 89.675 
L 208.730596 89.675 
L 209.099537 81.4125 
L 209.468479 40.1 
L 209.837421 89.675 
L 214.264721 89.675 
L 214.633662 81.4125 
L 215.002604 89.675 
L 217.954137 89.675 
L 218.323079 106.2 
L 218.692021 89.675 
L 219.060962 81.4125 
L 219.429904 89.675 
L 220.905671 89.675 
L 221.274612 81.4125 
L 221.643554 89.675 
L 222.381437 89.675 
L 222.750379 81.4125 
L 223.119321 81.4125 
L 223.488262 89.675 
L 224.595087 89.675 
L 224.964029 81.4125 
L 225.332971 89.675 
L 227.915562 89.675 
L 228.284504 106.2 
L 228.653446 81.4125 
L 229.022387 89.675 
L 229.391329 81.4125 
L 229.760271 106.2 
L 230.129212 89.675 
L 230.867096 89.675 
L 231.236037 81.4125 
L 231.604979 89.675 
L 234.187571 89.675 
L 234.556512 81.4125 
L 234.925454 89.675 
L 235.294396 89.675 
L 235.663337 81.4125 
L 236.032279 89.675 
L 236.401221 81.4125 
L 236.770162 89.675 
L 237.139104 106.2 
L 237.508046 89.675 
L 238.983812 89.675 
L 239.352754 97.9375 
L 239.721696 81.4125 
L 240.090637 89.675 
L 240.828521 89.675 
L 241.197462 106.2 
L 241.566404 89.675 
L 241.935346 81.4125 
L 242.304287 81.4125 
L 242.673229 89.675 
L 243.411112 89.675 
L 243.780054 81.4125 
L 244.148996 89.675 
L 247.469471 89.675 
L 247.838413 81.4125 
L 248.207354 89.675 
L 249.314179 89.675 
L 249.683121 81.4125 
L 250.052063 89.675 
L 250.421004 81.4125 
L 250.789946 89.675 
L 254.110421 89.675 
L 254.479363 81.4125 
L 254.848304 89.675 
L 255.586188 89.675 
L 255.955129 81.4125 
L 256.324071 81.4125 
L 256.693013 89.675 
L 258.537721 89.675 
L 258.906663 97.9375 
L 259.275604 89.675 
L 261.489254 89.675 
L 261.858196 81.4125 
L 262.227138 106.2 
L 262.596079 89.675 
L 263.333963 89.675 
L 263.702904 81.4125 
L 264.071846 89.675 
L 264.809729 89.675 
L 265.178671 106.2 
L 265.547613 89.675 
L 267.023379 89.675 
L 267.392321 81.4125 
L 267.761263 89.675 
L 268.499146 89.675 
L 268.868088 81.4125 
L 269.237029 89.675 
L 269.605971 89.675 
L 269.974913 81.4125 
L 270.343854 89.675 
L 271.081738 89.675 
L 271.450679 81.4125 
L 271.819621 81.4125 
L 272.188563 89.675 
L 272.557504 81.4125 
L 272.926446 89.675 
L 273.664329 89.675 
L 274.033271 106.2 
L 274.402213 106.2 
L 274.771154 89.675 
L 276.615863 89.675 
L 276.984804 81.4125 
L 277.353746 89.675 
L 278.091629 89.675 
L 278.460571 81.4125 
L 278.829513 89.675 
L 279.567396 89.675 
L 279.936338 81.4125 
L 280.305279 89.675 
L 280.674221 106.2 
L 281.043163 89.675 
L 281.781046 89.675 
L 282.149988 106.2 
L 282.518929 89.675 
L 282.887871 81.4125 
L 283.256813 89.675 
L 284.363638 89.675 
L 284.732579 106.2 
L 285.101521 89.675 
L 286.946229 89.675 
L 287.315171 81.4125 
L 287.684113 89.675 
L 291.742471 89.675 
L 292.111413 106.2 
L 292.480354 81.4125 
L 292.849296 89.675 
L 293.218238 89.675 
L 293.587179 106.2 
L 293.956121 81.4125 
L 294.325063 89.675 
L 294.694004 81.4125 
L 295.062946 89.675 
L 295.431888 89.675 
L 295.800829 106.2 
L 296.169771 89.675 
L 297.645538 89.675 
L 298.014479 97.9375 
L 298.383421 97.9375 
L 299.121304 81.4125 
L 299.490246 81.4125 
L 299.859188 89.675 
L 300.228129 89.675 
L 300.966013 106.2 
L 301.334954 89.675 
L 301.703896 89.675 
L 302.072838 81.4125 
L 302.44178 89.675 
L 303.179663 89.675 
L 303.548605 81.4125 
L 303.917546 81.4125 
L 304.286488 106.2 
L 304.65543 81.4125 
L 305.024371 89.675 
L 305.762255 89.675 
L 306.131196 81.4125 
L 306.500138 89.675 
L 307.238021 89.675 
L 307.606963 81.4125 
L 307.975905 89.675 
L 308.713788 89.675 
L 309.08273 106.2 
L 309.451671 89.675 
L 309.820613 81.4125 
L 310.189555 89.675 
L 310.927438 89.675 
L 311.29638 81.4125 
L 311.665321 89.675 
L 313.51003 89.675 
L 313.878971 81.4125 
L 314.247913 89.675 
L 314.616855 81.4125 
L 314.985796 89.675 
L 315.354738 89.675 
L 315.72368 81.4125 
L 316.092621 89.675 
L 318.675213 89.675 
L 319.044155 81.4125 
L 319.413096 89.675 
L 321.626746 89.675 
L 321.995688 81.4125 
L 322.36463 89.675 
L 322.733571 89.675 
L 323.102513 81.4125 
L 323.471455 89.675 
L 323.840396 81.4125 
L 324.209338 89.675 
L 330.481346 89.675 
L 330.850288 81.4125 
L 331.21923 89.675 
L 332.326055 89.675 
L 332.694996 81.4125 
L 333.063938 97.9375 
L 333.43288 89.675 
L 334.170763 89.675 
L 334.539705 81.4125 
L 334.908646 89.675 
L 335.64653 89.675 
L 336.015471 106.2 
L 336.384413 81.4125 
L 336.753355 89.675 
L 337.86018 89.675 
L 338.229121 81.4125 
L 338.598063 81.4125 
L 338.967005 89.675 
L 339.335946 89.675 
L 339.704888 81.4125 
L 340.07383 81.4125 
L 340.442771 89.675 
L 340.811713 89.675 
L 341.180655 81.4125 
L 341.549596 89.675 
L 341.918538 81.4125 
L 342.28748 89.675 
L 344.50113 89.675 
L 344.870071 81.4125 
L 345.239013 89.675 
L 346.345838 89.675 
L 346.71478 81.4125 
L 347.083721 89.675 
L 347.452663 81.4125 
L 347.821605 89.675 
L 348.559488 89.675 
L 348.92843 81.4125 
L 349.297371 89.675 
L 350.035255 89.675 
L 350.404196 81.4125 
L 350.773138 89.675 
L 351.14208 81.4125 
L 351.511021 89.675 
L 353.724671 89.675 
L 354.093613 81.4125 
L 354.462555 89.675 
L 355.200438 89.675 
L 355.56938 81.4125 
L 355.938322 89.675 
L 356.307263 89.675 
L 356.676205 81.4125 
L 357.045147 89.675 
L 358.151972 89.675 
L 358.520913 81.4125 
L 358.889855 81.4125 
L 359.627738 97.9375 
L 359.99668 81.4125 
L 360.365622 89.675 
L 364.792922 89.675 
L 365.161863 106.2 
L 365.530805 89.675 
L 365.899747 81.4125 
L 366.268688 89.675 
L 366.63763 81.4125 
L 367.006572 89.675 
L 371.802813 89.675 
L 372.171755 81.4125 
L 372.909638 81.4125 
L 373.27858 89.675 
L 375.123288 89.675 
L 375.49223 106.2 
L 375.861172 89.675 
L 378.074822 89.675 
L 378.443763 81.4125 
L 378.812705 89.675 
L 380.657413 89.675 
L 381.026355 106.2 
L 381.395297 89.675 
L 382.13318 89.675 
L 382.502122 81.4125 
L 382.871063 89.675 
L 388.405188 89.675 
L 388.77413 81.4125 
L 389.143072 106.2 
L 389.512013 89.675 
L 394.308255 89.675 
L 394.677197 81.4125 
L 395.046138 89.675 
L 395.41508 89.675 
L 395.784022 81.4125 
L 396.152963 89.675 
L 399.104497 89.675 
L 399.473438 81.4125 
L 399.84238 89.675 
L 402.793913 89.675 
L 403.162855 81.4125 
L 403.531797 89.675 
L 405.376505 89.675 
L 405.745447 81.4125 
L 406.114388 89.675 
L 407.221213 89.675 
L 407.590155 81.4125 
L 407.959097 89.675 
L 408.328038 81.4125 
L 408.69698 81.4125 
L 409.065922 89.675 
L 410.541689 89.675 
L 410.91063 81.4125 
L 411.279572 89.675 
L 419.396289 89.675 
L 419.76523 81.4125 
L 420.134172 89.675 
L 425.299355 89.675 
L 425.668297 81.4125 
L 426.037239 89.675 
L 429.726655 89.675 
L 430.095597 106.2 
L 430.464539 89.675 
L 431.571364 89.675 
L 431.571364 89.675 
" style="fill:none;stroke:#ff7f0e;stroke-linecap:square;stroke-width:1.5;"/>
   </g>
   <g id="line2d_29">
    <path clip-path="url(#pda9ffeae64)" d="M 62.998636 106.2 
L 67.794878 106.2 
L 68.16382 122.725 
L 68.532761 106.2 
L 71.115353 106.2 
L 71.484295 122.725 
L 71.853236 106.2 
L 72.222178 122.725 
L 72.59112 106.2 
L 90.30032 106.2 
L 90.669262 122.725 
L 91.038203 106.2 
L 104.320103 106.2 
L 104.689045 122.725 
L 105.057987 106.2 
L 112.805762 106.2 
L 113.174703 122.725 
L 113.543645 106.2 
L 122.398245 106.2 
L 122.767187 122.725 
L 123.136128 106.2 
L 127.194487 106.2 
L 127.563428 122.725 
L 127.93237 122.725 
L 128.301312 106.2 
L 128.670253 122.725 
L 129.039195 106.2 
L 150.806754 106.2 
L 151.175695 122.725 
L 151.544637 106.2 
L 152.28252 106.2 
L 152.651462 122.725 
L 153.020404 106.2 
L 154.865112 106.2 
L 155.234054 122.725 
L 155.602995 122.725 
L 155.971937 106.2 
L 156.340879 106.2 
L 156.70982 122.725 
L 157.078762 106.2 
L 176.263729 106.2 
L 176.63267 122.725 
L 177.001612 106.2 
L 212.788954 106.2 
L 213.157896 89.675 
L 213.526837 106.2 
L 219.798846 106.2 
L 220.167787 122.725 
L 220.536729 106.2 
L 241.935346 106.2 
L 242.304287 122.725 
L 242.673229 106.2 
L 264.071846 106.2 
L 264.440788 122.725 
L 264.809729 106.2 
L 286.946229 106.2 
L 287.315171 122.725 
L 287.684113 106.2 
L 289.159879 106.2 
L 289.528821 122.725 
L 289.897763 106.2 
L 292.849296 106.2 
L 293.218238 122.725 
L 293.587179 106.2 
L 305.762255 106.2 
L 306.131196 122.725 
L 306.500138 106.2 
L 311.29638 106.2 
L 311.665321 122.725 
L 312.034263 106.2 
L 317.93733 106.2 
L 318.306271 122.725 
L 318.675213 106.2 
L 326.422988 106.2 
L 326.79193 122.725 
L 327.160871 106.2 
L 334.170763 106.2 
L 334.539705 122.725 
L 334.908646 106.2 
L 340.811713 106.2 
L 341.180655 122.725 
L 341.549596 122.725 
L 341.918538 106.2 
L 342.28748 106.2 
L 342.656421 122.725 
L 343.025363 106.2 
L 369.958105 106.2 
L 370.327047 122.725 
L 370.695988 106.2 
L 430.464539 106.2 
L 430.83348 122.725 
L 431.202422 106.2 
L 431.571364 106.2 
L 431.571364 106.2 
" style="fill:none;stroke:#2ca02c;stroke-linecap:square;stroke-width:1.5;"/>
   </g>
   <g id="line2d_30">
    <path clip-path="url(#pda9ffeae64)" d="M 62.998636 89.675 
L 63.367578 106.2 
L 63.73652 97.9375 
L 64.105461 106.2 
L 64.843345 106.2 
L 65.212286 97.9375 
L 65.581228 106.2 
L 66.688053 106.2 
L 67.056995 97.9375 
L 67.425936 106.2 
L 67.794878 97.9375 
L 68.532761 114.4625 
L 68.901703 106.2 
L 72.960061 106.2 
L 73.329003 97.9375 
L 73.697945 106.2 
L 74.066886 106.2 
L 74.435828 97.9375 
L 74.80477 106.2 
L 78.125245 106.2 
L 78.494186 97.9375 
L 78.863128 106.2 
L 80.338895 106.2 
L 80.707836 97.9375 
L 81.076778 106.2 
L 81.814661 106.2 
L 82.183603 122.725 
L 82.552545 106.2 
L 83.290428 106.2 
L 83.65937 97.9375 
L 84.028311 106.2 
L 84.766195 106.2 
L 85.135137 97.9375 
L 85.504078 106.2 
L 89.562437 106.2 
L 89.931378 97.9375 
L 90.30032 106.2 
L 91.038203 106.2 
L 91.407145 97.9375 
L 91.776087 106.2 
L 94.358678 106.2 
L 94.72762 97.9375 
L 95.096562 106.2 
L 95.465503 106.2 
L 95.834445 97.9375 
L 96.203387 106.2 
L 96.572328 97.9375 
L 96.94127 106.2 
L 100.261745 106.2 
L 100.630687 97.9375 
L 100.999628 106.2 
L 102.844337 106.2 
L 103.213278 97.9375 
L 103.58222 106.2 
L 103.951162 97.9375 
L 104.320103 106.2 
L 107.271637 106.2 
L 107.640578 97.9375 
L 108.00952 97.9375 
L 108.378462 106.2 
L 115.019412 106.2 
L 115.388353 97.9375 
L 115.757295 106.2 
L 118.339887 106.2 
L 118.708828 122.725 
L 119.07777 106.2 
L 123.50507 106.2 
L 123.874012 73.15 
L 124.242953 304.5 
L 124.611895 106.2 
L 125.71872 106.2 
L 126.087662 97.9375 
L 126.456603 106.2 
L 126.825545 106.2 
L 127.194487 97.9375 
L 127.563428 106.2 
L 127.93237 97.9375 
L 128.301312 106.2 
L 128.670253 97.9375 
L 129.039195 106.2 
L 130.14602 106.2 
L 130.514962 97.9375 
L 130.883903 106.2 
L 135.680145 106.2 
L 136.049087 97.9375 
L 136.418028 97.9375 
L 136.78697 106.2 
L 139.369562 106.2 
L 139.738504 97.9375 
L 140.107445 106.2 
L 141.21427 106.2 
L 141.583212 97.9375 
L 141.952154 122.725 
L 142.321095 106.2 
L 142.690037 106.2 
L 143.058979 97.9375 
L 143.42792 106.2 
L 143.796862 122.725 
L 144.165804 106.2 
L 144.534745 122.725 
L 144.903687 97.9375 
L 145.272629 106.2 
L 146.010512 106.2 
L 146.379454 97.9375 
L 146.748395 106.2 
L 154.49617 106.2 
L 154.865112 97.9375 
L 155.234054 106.2 
L 157.816645 106.2 
L 158.185587 122.725 
L 158.554529 106.2 
L 159.292412 106.2 
L 159.661354 97.9375 
L 160.030295 122.725 
L 160.399237 97.9375 
L 160.768179 106.2 
L 161.506062 106.2 
L 161.875004 97.9375 
L 162.243945 106.2 
L 165.933362 106.2 
L 166.302304 122.725 
L 166.671245 106.2 
L 169.253837 106.2 
L 169.622779 97.9375 
L 169.99172 97.9375 
L 170.360662 106.2 
L 174.41902 106.2 
L 174.787962 97.9375 
L 175.156904 106.2 
L 176.63267 106.2 
L 177.001612 97.9375 
L 177.370554 106.2 
L 178.477379 106.2 
L 178.84632 97.9375 
L 179.215262 106.2 
L 181.428912 106.2 
L 181.797854 97.9375 
L 182.166795 106.2 
L 185.48727 106.2 
L 185.856212 97.9375 
L 186.225154 97.9375 
L 186.594095 106.2 
L 186.963037 106.2 
L 187.331979 97.9375 
L 187.70092 106.2 
L 188.807745 106.2 
L 189.176687 122.725 
L 189.545629 106.2 
L 191.759279 106.2 
L 192.12822 97.9375 
L 192.497162 106.2 
L 192.866104 106.2 
L 193.235046 122.725 
L 193.603987 106.2 
L 193.972929 97.9375 
L 194.341871 106.2 
L 198.400229 106.2 
L 198.769171 97.9375 
L 199.138112 106.2 
L 202.089646 106.2 
L 202.458587 97.9375 
L 202.827529 106.2 
L 207.254829 106.2 
L 207.623771 97.9375 
L 207.992712 106.2 
L 210.944246 106.2 
L 211.313187 97.9375 
L 211.682129 106.2 
L 212.051071 106.2 
L 212.420012 97.9375 
L 212.788954 106.2 
L 213.157896 106.2 
L 213.526837 97.9375 
L 214.264721 97.9375 
L 214.633662 106.2 
L 219.060962 106.2 
L 219.429904 97.9375 
L 219.798846 106.2 
L 221.643554 106.2 
L 222.012496 122.725 
L 222.381437 106.2 
L 229.022387 106.2 
L 229.391329 97.9375 
L 229.760271 106.2 
L 230.129212 106.2 
L 230.498154 97.9375 
L 230.867096 97.9375 
L 231.236037 106.2 
L 232.342862 106.2 
L 232.711804 97.9375 
L 233.080746 106.2 
L 233.818629 106.2 
L 234.187571 97.9375 
L 234.556512 106.2 
L 235.294396 106.2 
L 235.663337 122.725 
L 236.032279 106.2 
L 237.876987 106.2 
L 238.245929 97.9375 
L 238.614871 97.9375 
L 238.983812 106.2 
L 240.459579 106.2 
L 240.828521 97.9375 
L 241.197462 106.2 
L 243.042171 106.2 
L 243.411112 122.725 
L 243.780054 106.2 
L 244.886879 106.2 
L 245.255821 97.9375 
L 245.624762 106.2 
L 251.896771 106.2 
L 252.265713 97.9375 
L 252.634654 106.2 
L 254.848304 106.2 
L 255.217246 97.9375 
L 255.586188 106.2 
L 255.955129 106.2 
L 256.324071 97.9375 
L 256.693013 106.2 
L 257.061954 106.2 
L 257.430896 97.9375 
L 257.799838 106.2 
L 259.275604 106.2 
L 259.644546 97.9375 
L 260.013488 106.2 
L 262.596079 106.2 
L 262.965021 122.725 
L 263.333963 106.2 
L 264.440788 106.2 
L 264.809729 97.9375 
L 265.178671 106.2 
L 267.023379 106.2 
L 267.392321 97.9375 
L 267.761263 106.2 
L 268.130204 106.2 
L 268.499146 97.9375 
L 268.868088 106.2 
L 271.819621 106.2 
L 272.188563 97.9375 
L 272.557504 106.2 
L 275.509038 106.2 
L 275.877979 97.9375 
L 276.246921 106.2 
L 278.460571 106.2 
L 278.829513 114.4625 
L 279.198454 106.2 
L 279.567396 106.2 
L 279.936338 97.9375 
L 280.305279 106.2 
L 280.674221 106.2 
L 281.043163 97.9375 
L 281.412104 106.2 
L 281.781046 122.725 
L 282.149988 106.2 
L 285.470463 106.2 
L 285.839404 97.9375 
L 286.208346 106.2 
L 287.684113 106.2 
L 288.053054 114.4625 
L 288.421996 106.2 
L 289.159879 106.2 
L 289.528821 97.9375 
L 289.897763 106.2 
L 291.004588 106.2 
L 291.373529 97.9375 
L 291.742471 106.2 
L 294.694004 106.2 
L 295.062946 97.9375 
L 295.431888 106.2 
L 299.859188 106.2 
L 300.228129 122.725 
L 300.597071 122.725 
L 300.966013 106.2 
L 301.334954 106.2 
L 301.703896 97.9375 
L 302.072838 106.2 
L 303.179663 106.2 
L 303.548605 97.9375 
L 303.917546 106.2 
L 305.024371 106.2 
L 305.393313 97.9375 
L 305.762255 106.2 
L 313.141088 106.2 
L 313.51003 97.9375 
L 313.878971 106.2 
L 315.72368 106.2 
L 316.092621 122.725 
L 316.461563 106.2 
L 317.93733 106.2 
L 318.306271 122.725 
L 318.675213 106.2 
L 322.733571 106.2 
L 323.102513 122.725 
L 323.471455 106.2 
L 323.840396 106.2 
L 324.209338 97.9375 
L 324.57828 106.2 
L 326.422988 106.2 
L 326.79193 97.9375 
L 327.160871 97.9375 
L 327.529813 106.2 
L 330.112405 106.2 
L 330.481346 97.9375 
L 330.850288 106.2 
L 331.21923 122.725 
L 331.588171 97.9375 
L 331.957113 106.2 
L 335.277588 106.2 
L 335.64653 97.9375 
L 336.015471 106.2 
L 336.753355 106.2 
L 337.122296 97.9375 
L 337.491238 106.2 
L 340.07383 106.2 
L 340.442771 97.9375 
L 340.811713 106.2 
L 341.918538 106.2 
L 342.28748 122.725 
L 342.656421 106.2 
L 343.025363 97.9375 
L 343.763246 97.9375 
L 344.132188 106.2 
L 344.50113 97.9375 
L 344.870071 106.2 
L 347.083721 106.2 
L 347.452663 97.9375 
L 347.821605 106.2 
L 348.190546 97.9375 
L 348.559488 106.2 
L 349.666313 106.2 
L 350.035255 97.9375 
L 350.404196 106.2 
L 352.617846 106.2 
L 352.986788 97.9375 
L 353.35573 106.2 
L 363.317155 106.2 
L 363.686097 122.725 
L 364.055038 106.2 
L 364.42398 97.9375 
L 364.792922 106.2 
L 365.899747 106.2 
L 366.268688 97.9375 
L 366.63763 106.2 
L 367.006572 106.2 
L 367.375513 97.9375 
L 367.744455 97.9375 
L 368.113397 106.2 
L 368.482338 106.2 
L 368.85128 97.9375 
L 369.220222 106.2 
L 369.589163 122.725 
L 369.958105 122.725 
L 370.327047 106.2 
L 370.695988 97.9375 
L 371.06493 106.2 
L 371.433872 97.9375 
L 371.802813 106.2 
L 372.909638 106.2 
L 373.27858 97.9375 
L 373.647522 106.2 
L 374.016463 106.2 
L 374.385405 97.9375 
L 374.754347 106.2 
L 376.599055 106.2 
L 376.967997 122.725 
L 377.336938 106.2 
L 379.91953 106.2 
L 380.288472 97.9375 
L 380.657413 97.9375 
L 381.026355 106.2 
L 381.395297 106.2 
L 381.764238 97.9375 
L 382.13318 106.2 
L 383.240005 106.2 
L 383.608947 122.725 
L 383.977888 106.2 
L 386.56048 106.2 
L 386.929422 97.9375 
L 387.298363 106.2 
L 387.667305 106.2 
L 388.036247 97.9375 
L 388.405188 106.2 
L 389.880955 106.2 
L 390.249897 97.9375 
L 390.618838 97.9375 
L 390.98778 106.2 
L 397.259788 106.2 
L 397.62873 97.9375 
L 397.997672 106.2 
L 398.366613 97.9375 
L 398.735555 106.2 
L 400.211322 106.2 
L 400.580263 97.9375 
L 400.949205 106.2 
L 402.05603 106.2 
L 402.424972 97.9375 
L 402.793913 106.2 
L 403.162855 106.2 
L 403.531797 97.9375 
L 403.900738 97.9375 
L 404.26968 106.2 
L 405.007563 106.2 
L 405.376505 97.9375 
L 405.745447 106.2 
L 406.114388 97.9375 
L 406.48333 106.2 
L 410.541689 106.2 
L 410.91063 114.4625 
L 411.279572 106.2 
L 411.648514 106.2 
L 412.017455 97.9375 
L 412.386397 106.2 
L 415.33793 106.2 
L 415.706872 122.725 
L 416.075814 106.2 
L 416.813697 106.2 
L 417.182639 114.4625 
L 417.55158 106.2 
L 418.658405 106.2 
L 419.027347 97.9375 
L 419.396289 106.2 
L 421.609939 106.2 
L 421.97888 122.725 
L 422.716764 106.2 
L 423.085705 106.2 
L 423.823589 122.725 
L 424.19253 106.2 
L 424.930414 106.2 
L 425.299355 97.9375 
L 426.037239 97.9375 
L 426.40618 106.2 
L 427.144064 106.2 
L 427.513005 97.9375 
L 427.881947 97.9375 
L 428.250889 106.2 
L 428.61983 97.9375 
L 428.988772 106.2 
L 429.357714 97.9375 
L 429.726655 106.2 
L 431.571364 106.2 
L 431.571364 106.2 
" style="fill:none;stroke:#d62728;stroke-linecap:square;stroke-width:1.5;"/>
   </g>
   <g id="line2d_31">
    <path clip-path="url(#pda9ffeae64)" d="M 62.998636 106.2 
L 69.270645 106.2 
L 69.639586 114.4625 
L 70.008528 106.2 
L 71.853236 106.2 
L 72.222178 122.725 
L 72.59112 106.2 
L 83.65937 106.2 
L 84.028311 122.725 
L 84.397253 106.2 
L 84.766195 122.725 
L 85.135137 106.2 
L 88.824553 106.2 
L 89.193495 89.675 
L 89.562437 106.2 
L 124.242953 106.2 
L 124.611895 122.725 
L 124.980837 106.2 
L 127.93237 106.2 
L 128.301312 122.725 
L 128.670253 106.2 
L 160.399237 106.2 
L 160.768179 122.725 
L 161.13712 106.2 
L 162.612887 106.2 
L 162.981829 122.725 
L 163.35077 106.2 
L 166.671245 106.2 
L 167.040187 122.725 
L 167.409129 106.2 
L 174.787962 106.2 
L 175.156904 89.675 
L 175.894787 122.725 
L 176.263729 106.2 
L 184.011504 106.2 
L 184.380445 122.725 
L 184.749387 106.2 
L 192.12822 106.2 
L 192.497162 122.725 
L 192.866104 106.2 
L 197.662346 106.2 
L 198.031287 122.725 
L 198.400229 106.2 
L 198.769171 122.725 
L 199.138112 106.2 
L 203.934354 106.2 
L 204.303296 122.725 
L 204.672237 106.2 
L 216.109429 106.2 
L 216.478371 122.725 
L 216.847312 106.2 
L 221.274612 106.2 
L 221.643554 122.725 
L 222.012496 106.2 
L 227.915562 106.2 
L 228.284504 122.725 
L 228.653446 106.2 
L 237.139104 106.2 
L 237.508046 122.725 
L 237.876987 106.2 
L 246.731587 106.2 
L 247.100529 97.9375 
L 247.469471 106.2 
L 250.789946 106.2 
L 251.158888 122.725 
L 251.527829 106.2 
L 263.702904 106.2 
L 264.071846 122.725 
L 264.440788 106.2 
L 267.023379 106.2 
L 267.392321 122.725 
L 267.761263 106.2 
L 270.343854 106.2 
L 270.712796 122.725 
L 271.081738 106.2 
L 272.926446 106.2 
L 273.295388 89.675 
L 273.664329 106.2 
L 293.218238 106.2 
L 293.587179 122.725 
L 293.956121 106.2 
L 295.431888 106.2 
L 295.800829 122.725 
L 296.169771 106.2 
L 303.917546 106.2 
L 304.286488 122.725 
L 304.65543 122.725 
L 305.024371 106.2 
L 309.08273 106.2 
L 309.451671 122.725 
L 309.820613 106.2 
L 318.306271 106.2 
L 318.675213 122.725 
L 319.044155 106.2 
L 319.782038 106.2 
L 320.15098 122.725 
L 320.519921 106.2 
L 326.054046 106.2 
L 326.422988 122.725 
L 326.79193 106.2 
L 327.160871 122.725 
L 327.529813 106.2 
L 328.267696 106.2 
L 328.636638 122.725 
L 329.00558 106.2 
L 369.958105 106.2 
L 370.327047 122.725 
L 370.695988 106.2 
L 371.802813 106.2 
L 372.171755 122.725 
L 372.540697 106.2 
L 382.502122 106.2 
L 382.871063 122.725 
L 383.240005 106.2 
L 383.608947 106.2 
L 383.977888 122.725 
L 384.34683 106.2 
L 391.725663 106.2 
L 392.094605 97.9375 
L 392.463547 106.2 
L 404.638622 106.2 
L 405.007563 122.725 
L 405.376505 106.2 
L 408.69698 106.2 
L 409.065922 122.725 
L 409.434863 106.2 
L 413.862164 106.2 
L 414.231105 122.725 
L 414.600047 106.2 
L 414.968989 122.725 
L 415.33793 106.2 
L 427.144064 106.2 
L 427.513005 114.4625 
L 427.881947 106.2 
L 431.571364 106.2 
L 431.571364 106.2 
" style="fill:none;stroke:#9467bd;stroke-linecap:square;stroke-width:1.5;"/>
   </g>
   <g id="patch_3">
    <path d="M 44.57 317.72 
L 44.57 26.88 
" style="fill:none;stroke:#000000;stroke-linecap:square;stroke-linejoin:miter;stroke-width:0.8;"/>
   </g>
   <g id="patch_4">
    <path d="M 450 317.72 
L 450 26.88 
" style="fill:none;stroke:#000000;stroke-linecap:square;stroke-linejoin:miter;stroke-width:0.8;"/>
   </g>
   <g id="patch_5">
    <path d="M 44.57 317.72 
L 450 317.72 
" style="fill:none;stroke:#000000;stroke-linecap:square;stroke-linejoin:miter;stroke-width:0.8;"/>
   </g>
   <g id="patch_6">
    <path d="M 44.57 26.88 
L 450 26.88 
" style="fill:none;stroke:#000000;stroke-linecap:square;stroke-linejoin:miter;stroke-width:0.8;"/>
   </g>
   <g id="text_15">
    <!-- Packets -->
    <g transform="translate(224.534688 20.88)scale(0.12 -0.12)">
     <use xlink:href="#DejaVuSans-80"/>
     <use x="55.802734" xlink:href="#DejaVuSans-97"/>
     <use x="117.082031" xlink:href="#DejaVuSans-99"/>
     <use x="172.0625" xlink:href="#DejaVuSans-107"/>
     <use x="226.347656" xlink:href="#DejaVuSans-101"/>
     <use x="287.871094" xlink:href="#DejaVuSans-116"/>
     <use x="327.080078" xlink:href="#DejaVuSans-115"/>
    </g>
   </g>
   <g id="legend_1">
    <g id="patch_7">
     <path d="M 359.748437 312.72 
L 443 312.72 
Q 445 312.72 445 310.72 
L 445 238.329375 
Q 445 236.329375 443 236.329375 
L 359.748437 236.329375 
Q 357.748437 236.329375 357.748437 238.329375 
L 357.748437 310.72 
Q 357.748437 312.72 359.748437 312.72 
z
" style="fill:#ffffff;opacity:0.8;stroke:#cccccc;stroke-linejoin:miter;"/>
    </g>
    <g id="line2d_32">
     <path d="M 361.748437 244.427812 
L 381.748437 244.427812 
" style="fill:none;stroke:#1f77b4;stroke-linecap:square;stroke-width:1.5;"/>
    </g>
    <g id="line2d_33"/>
    <g id="text_16">
     <!-- kyber512 -->
     <g transform="translate(389.748437 247.927812)scale(0.1 -0.1)">
      <defs>
       <path d="M 32.171875 -5.078125 
Q 28.375 -14.84375 24.75 -17.8125 
Q 21.140625 -20.796875 15.09375 -20.796875 
L 7.90625 -20.796875 
L 7.90625 -13.28125 
L 13.1875 -13.28125 
Q 16.890625 -13.28125 18.9375 -11.515625 
Q 21 -9.765625 23.484375 -3.21875 
L 25.09375 0.875 
L 2.984375 54.6875 
L 12.5 54.6875 
L 29.59375 11.921875 
L 46.6875 54.6875 
L 56.203125 54.6875 
z
" id="DejaVuSans-121"/>
       <path d="M 48.6875 27.296875 
Q 48.6875 37.203125 44.609375 42.84375 
Q 40.53125 48.484375 33.40625 48.484375 
Q 26.265625 48.484375 22.1875 42.84375 
Q 18.109375 37.203125 18.109375 27.296875 
Q 18.109375 17.390625 22.1875 11.75 
Q 26.265625 6.109375 33.40625 6.109375 
Q 40.53125 6.109375 44.609375 11.75 
Q 48.6875 17.390625 48.6875 27.296875 
z
M 18.109375 46.390625 
Q 20.953125 51.265625 25.265625 53.625 
Q 29.59375 56 35.59375 56 
Q 45.5625 56 51.78125 48.09375 
Q 58.015625 40.1875 58.015625 27.296875 
Q 58.015625 14.40625 51.78125 6.484375 
Q 45.5625 -1.421875 35.59375 -1.421875 
Q 29.59375 -1.421875 25.265625 0.953125 
Q 20.953125 3.328125 18.109375 8.203125 
L 18.109375 0 
L 9.078125 0 
L 9.078125 75.984375 
L 18.109375 75.984375 
z
" id="DejaVuSans-98"/>
       <path d="M 41.109375 46.296875 
Q 39.59375 47.171875 37.8125 47.578125 
Q 36.03125 48 33.890625 48 
Q 26.265625 48 22.1875 43.046875 
Q 18.109375 38.09375 18.109375 28.8125 
L 18.109375 0 
L 9.078125 0 
L 9.078125 54.6875 
L 18.109375 54.6875 
L 18.109375 46.1875 
Q 20.953125 51.171875 25.484375 53.578125 
Q 30.03125 56 36.53125 56 
Q 37.453125 56 38.578125 55.875 
Q 39.703125 55.765625 41.0625 55.515625 
z
" id="DejaVuSans-114"/>
      </defs>
      <use xlink:href="#DejaVuSans-107"/>
      <use x="54.285156" xlink:href="#DejaVuSans-121"/>
      <use x="113.464844" xlink:href="#DejaVuSans-98"/>
      <use x="176.941406" xlink:href="#DejaVuSans-101"/>
      <use x="238.464844" xlink:href="#DejaVuSans-114"/>
      <use x="279.578125" xlink:href="#DejaVuSans-53"/>
      <use x="343.201172" xlink:href="#DejaVuSans-49"/>
      <use x="406.824219" xlink:href="#DejaVuSans-50"/>
     </g>
    </g>
    <g id="line2d_34">
     <path d="M 361.748437 259.105937 
L 381.748437 259.105937 
" style="fill:none;stroke:#ff7f0e;stroke-linecap:square;stroke-width:1.5;"/>
    </g>
    <g id="line2d_35"/>
    <g id="text_17">
     <!-- lightSaber -->
     <g transform="translate(389.748437 262.605937)scale(0.1 -0.1)">
      <defs>
       <path d="M 9.421875 75.984375 
L 18.40625 75.984375 
L 18.40625 0 
L 9.421875 0 
z
" id="DejaVuSans-108"/>
       <path d="M 9.421875 54.6875 
L 18.40625 54.6875 
L 18.40625 0 
L 9.421875 0 
z
M 9.421875 75.984375 
L 18.40625 75.984375 
L 18.40625 64.59375 
L 9.421875 64.59375 
z
" id="DejaVuSans-105"/>
       <path d="M 45.40625 27.984375 
Q 45.40625 37.75 41.375 43.109375 
Q 37.359375 48.484375 30.078125 48.484375 
Q 22.859375 48.484375 18.828125 43.109375 
Q 14.796875 37.75 14.796875 27.984375 
Q 14.796875 18.265625 18.828125 12.890625 
Q 22.859375 7.515625 30.078125 7.515625 
Q 37.359375 7.515625 41.375 12.890625 
Q 45.40625 18.265625 45.40625 27.984375 
z
M 54.390625 6.78125 
Q 54.390625 -7.171875 48.1875 -13.984375 
Q 42 -20.796875 29.203125 -20.796875 
Q 24.46875 -20.796875 20.265625 -20.09375 
Q 16.0625 -19.390625 12.109375 -17.921875 
L 12.109375 -9.1875 
Q 16.0625 -11.328125 19.921875 -12.34375 
Q 23.78125 -13.375 27.78125 -13.375 
Q 36.625 -13.375 41.015625 -8.765625 
Q 45.40625 -4.15625 45.40625 5.171875 
L 45.40625 9.625 
Q 42.625 4.78125 38.28125 2.390625 
Q 33.9375 0 27.875 0 
Q 17.828125 0 11.671875 7.65625 
Q 5.515625 15.328125 5.515625 27.984375 
Q 5.515625 40.671875 11.671875 48.328125 
Q 17.828125 56 27.875 56 
Q 33.9375 56 38.28125 53.609375 
Q 42.625 51.21875 45.40625 46.390625 
L 45.40625 54.6875 
L 54.390625 54.6875 
z
" id="DejaVuSans-103"/>
       <path d="M 54.890625 33.015625 
L 54.890625 0 
L 45.90625 0 
L 45.90625 32.71875 
Q 45.90625 40.484375 42.875 44.328125 
Q 39.84375 48.1875 33.796875 48.1875 
Q 26.515625 48.1875 22.3125 43.546875 
Q 18.109375 38.921875 18.109375 30.90625 
L 18.109375 0 
L 9.078125 0 
L 9.078125 75.984375 
L 18.109375 75.984375 
L 18.109375 46.1875 
Q 21.34375 51.125 25.703125 53.5625 
Q 30.078125 56 35.796875 56 
Q 45.21875 56 50.046875 50.171875 
Q 54.890625 44.34375 54.890625 33.015625 
z
" id="DejaVuSans-104"/>
       <path d="M 53.515625 70.515625 
L 53.515625 60.890625 
Q 47.90625 63.578125 42.921875 64.890625 
Q 37.9375 66.21875 33.296875 66.21875 
Q 25.25 66.21875 20.875 63.09375 
Q 16.5 59.96875 16.5 54.203125 
Q 16.5 49.359375 19.40625 46.890625 
Q 22.3125 44.4375 30.421875 42.921875 
L 36.375 41.703125 
Q 47.40625 39.59375 52.65625 34.296875 
Q 57.90625 29 57.90625 20.125 
Q 57.90625 9.515625 50.796875 4.046875 
Q 43.703125 -1.421875 29.984375 -1.421875 
Q 24.8125 -1.421875 18.96875 -0.25 
Q 13.140625 0.921875 6.890625 3.21875 
L 6.890625 13.375 
Q 12.890625 10.015625 18.65625 8.296875 
Q 24.421875 6.59375 29.984375 6.59375 
Q 38.421875 6.59375 43.015625 9.90625 
Q 47.609375 13.234375 47.609375 19.390625 
Q 47.609375 24.75 44.3125 27.78125 
Q 41.015625 30.8125 33.5 32.328125 
L 27.484375 33.5 
Q 16.453125 35.6875 11.515625 40.375 
Q 6.59375 45.0625 6.59375 53.421875 
Q 6.59375 63.09375 13.40625 68.65625 
Q 20.21875 74.21875 32.171875 74.21875 
Q 37.3125 74.21875 42.625 73.28125 
Q 47.953125 72.359375 53.515625 70.515625 
z
" id="DejaVuSans-83"/>
      </defs>
      <use xlink:href="#DejaVuSans-108"/>
      <use x="27.783203" xlink:href="#DejaVuSans-105"/>
      <use x="55.566406" xlink:href="#DejaVuSans-103"/>
      <use x="119.042969" xlink:href="#DejaVuSans-104"/>
      <use x="182.421875" xlink:href="#DejaVuSans-116"/>
      <use x="221.630859" xlink:href="#DejaVuSans-83"/>
      <use x="285.107422" xlink:href="#DejaVuSans-97"/>
      <use x="346.386719" xlink:href="#DejaVuSans-98"/>
      <use x="409.863281" xlink:href="#DejaVuSans-101"/>
      <use x="471.386719" xlink:href="#DejaVuSans-114"/>
     </g>
    </g>
    <g id="line2d_36">
     <path d="M 361.748437 273.784062 
L 381.748437 273.784062 
" style="fill:none;stroke:#2ca02c;stroke-linecap:square;stroke-width:1.5;"/>
    </g>
    <g id="line2d_37"/>
    <g id="text_18">
     <!-- p256 -->
     <g transform="translate(389.748437 277.284062)scale(0.1 -0.1)">
      <defs>
       <path d="M 18.109375 8.203125 
L 18.109375 -20.796875 
L 9.078125 -20.796875 
L 9.078125 54.6875 
L 18.109375 54.6875 
L 18.109375 46.390625 
Q 20.953125 51.265625 25.265625 53.625 
Q 29.59375 56 35.59375 56 
Q 45.5625 56 51.78125 48.09375 
Q 58.015625 40.1875 58.015625 27.296875 
Q 58.015625 14.40625 51.78125 6.484375 
Q 45.5625 -1.421875 35.59375 -1.421875 
Q 29.59375 -1.421875 25.265625 0.953125 
Q 20.953125 3.328125 18.109375 8.203125 
z
M 48.6875 27.296875 
Q 48.6875 37.203125 44.609375 42.84375 
Q 40.53125 48.484375 33.40625 48.484375 
Q 26.265625 48.484375 22.1875 42.84375 
Q 18.109375 37.203125 18.109375 27.296875 
Q 18.109375 17.390625 22.1875 11.75 
Q 26.265625 6.109375 33.40625 6.109375 
Q 40.53125 6.109375 44.609375 11.75 
Q 48.6875 17.390625 48.6875 27.296875 
z
" id="DejaVuSans-112"/>
      </defs>
      <use xlink:href="#DejaVuSans-112"/>
      <use x="63.476562" xlink:href="#DejaVuSans-50"/>
      <use x="127.099609" xlink:href="#DejaVuSans-53"/>
      <use x="190.722656" xlink:href="#DejaVuSans-54"/>
     </g>
    </g>
    <g id="line2d_38">
     <path d="M 361.748437 288.462187 
L 381.748437 288.462187 
" style="fill:none;stroke:#d62728;stroke-linecap:square;stroke-width:1.5;"/>
    </g>
    <g id="line2d_39"/>
    <g id="text_19">
     <!-- ntru -->
     <g transform="translate(389.748437 291.962187)scale(0.1 -0.1)">
      <defs>
       <path d="M 54.890625 33.015625 
L 54.890625 0 
L 45.90625 0 
L 45.90625 32.71875 
Q 45.90625 40.484375 42.875 44.328125 
Q 39.84375 48.1875 33.796875 48.1875 
Q 26.515625 48.1875 22.3125 43.546875 
Q 18.109375 38.921875 18.109375 30.90625 
L 18.109375 0 
L 9.078125 0 
L 9.078125 54.6875 
L 18.109375 54.6875 
L 18.109375 46.1875 
Q 21.34375 51.125 25.703125 53.5625 
Q 30.078125 56 35.796875 56 
Q 45.21875 56 50.046875 50.171875 
Q 54.890625 44.34375 54.890625 33.015625 
z
" id="DejaVuSans-110"/>
       <path d="M 8.5 21.578125 
L 8.5 54.6875 
L 17.484375 54.6875 
L 17.484375 21.921875 
Q 17.484375 14.15625 20.5 10.265625 
Q 23.53125 6.390625 29.59375 6.390625 
Q 36.859375 6.390625 41.078125 11.03125 
Q 45.3125 15.671875 45.3125 23.6875 
L 45.3125 54.6875 
L 54.296875 54.6875 
L 54.296875 0 
L 45.3125 0 
L 45.3125 8.40625 
Q 42.046875 3.421875 37.71875 1 
Q 33.40625 -1.421875 27.6875 -1.421875 
Q 18.265625 -1.421875 13.375 4.4375 
Q 8.5 10.296875 8.5 21.578125 
z
M 31.109375 56 
z
" id="DejaVuSans-117"/>
      </defs>
      <use xlink:href="#DejaVuSans-110"/>
      <use x="63.378906" xlink:href="#DejaVuSans-116"/>
      <use x="102.587891" xlink:href="#DejaVuSans-114"/>
      <use x="143.701172" xlink:href="#DejaVuSans-117"/>
     </g>
    </g>
    <g id="line2d_40">
     <path d="M 361.748437 303.140312 
L 381.748437 303.140312 
" style="fill:none;stroke:#9467bd;stroke-linecap:square;stroke-width:1.5;"/>
    </g>
    <g id="line2d_41"/>
    <g id="text_20">
     <!-- x25519 -->
     <g transform="translate(389.748437 306.640312)scale(0.1 -0.1)">
      <defs>
       <path d="M 54.890625 54.6875 
L 35.109375 28.078125 
L 55.90625 0 
L 45.3125 0 
L 29.390625 21.484375 
L 13.484375 0 
L 2.875 0 
L 24.125 28.609375 
L 4.6875 54.6875 
L 15.28125 54.6875 
L 29.78125 35.203125 
L 44.28125 54.6875 
z
" id="DejaVuSans-120"/>
       <path d="M 10.984375 1.515625 
L 10.984375 10.5 
Q 14.703125 8.734375 18.5 7.8125 
Q 22.3125 6.890625 25.984375 6.890625 
Q 35.75 6.890625 40.890625 13.453125 
Q 46.046875 20.015625 46.78125 33.40625 
Q 43.953125 29.203125 39.59375 26.953125 
Q 35.25 24.703125 29.984375 24.703125 
Q 19.046875 24.703125 12.671875 31.3125 
Q 6.296875 37.9375 6.296875 49.421875 
Q 6.296875 60.640625 12.9375 67.421875 
Q 19.578125 74.21875 30.609375 74.21875 
Q 43.265625 74.21875 49.921875 64.515625 
Q 56.59375 54.828125 56.59375 36.375 
Q 56.59375 19.140625 48.40625 8.859375 
Q 40.234375 -1.421875 26.421875 -1.421875 
Q 22.703125 -1.421875 18.890625 -0.6875 
Q 15.09375 0.046875 10.984375 1.515625 
z
M 30.609375 32.421875 
Q 37.25 32.421875 41.125 36.953125 
Q 45.015625 41.5 45.015625 49.421875 
Q 45.015625 57.28125 41.125 61.84375 
Q 37.25 66.40625 30.609375 66.40625 
Q 23.96875 66.40625 20.09375 61.84375 
Q 16.21875 57.28125 16.21875 49.421875 
Q 16.21875 41.5 20.09375 36.953125 
Q 23.96875 32.421875 30.609375 32.421875 
z
" id="DejaVuSans-57"/>
      </defs>
      <use xlink:href="#DejaVuSans-120"/>
      <use x="59.179688" xlink:href="#DejaVuSans-50"/>
      <use x="122.802734" xlink:href="#DejaVuSans-53"/>
      <use x="186.425781" xlink:href="#DejaVuSans-53"/>
      <use x="250.048828" xlink:href="#DejaVuSans-49"/>
      <use x="313.671875" xlink:href="#DejaVuSans-57"/>
     </g>
    </g>
   </g>
  </g>
 </g>
 <defs>
  <clipPath id="pda9ffeae64">
   <rect height="290.84" width="405.43" x="44.57" y="26.88"/>
  </clipPath>
 </defs>
</svg>
