<?xml version="1.0" encoding="utf-8" standalone="no"?>
<!DOCTYPE svg PUBLIC "-//W3C//DTD SVG 1.1//EN"
  "http://www.w3.org/Graphics/SVG/1.1/DTD/svg11.dtd">
<!-- Created with matplotlib (https://matplotlib.org/) -->
<svg height="345.6pt" version="1.1" viewBox="0 0 460.8 345.6" width="460.8pt" xmlns="http://www.w3.org/2000/svg" xmlns:xlink="http://www.w3.org/1999/xlink">
 <metadata>
  <rdf:RDF xmlns:cc="http://creativecommons.org/ns#" xmlns:dc="http://purl.org/dc/elements/1.1/" xmlns:rdf="http://www.w3.org/1999/02/22-rdf-syntax-ns#">
   <cc:Work>
    <dc:type rdf:resource="http://purl.org/dc/dcmitype/StillImage"/>
    <dc:date>2020-10-16T12:00:26.978699</dc:date>
    <dc:format>image/svg+xml</dc:format>
    <dc:creator>
     <cc:Agent>
      <dc:title>Matplotlib v3.3.2, https://matplotlib.org/</dc:title>
     </cc:Agent>
    </dc:creator>
   </cc:Work>
  </rdf:RDF>
 </metadata>
 <defs>
  <style type="text/css">*{stroke-linecap:butt;stroke-linejoin:round;}</style>
 </defs>
 <g id="figure_1">
  <g id="patch_1">
   <path d="M 0 345.6 
L 460.8 345.6 
L 460.8 0 
L 0 0 
z
" style="fill:#ffffff;"/>
  </g>
  <g id="axes_1">
   <g id="patch_2">
    <path d="M 44.57 317.72 
L 450 317.72 
L 450 26.88 
L 44.57 26.88 
z
" style="fill:#ffffff;"/>
   </g>
   <g id="matplotlib.axis_1">
    <g id="xtick_1">
     <g id="line2d_1">
      <path clip-path="url(#pe3a3cee279)" d="M 62.998636 317.72 
L 62.998636 26.88 
" style="fill:none;stroke:#b0b0b0;stroke-linecap:square;stroke-width:0.8;"/>
     </g>
     <g id="line2d_2">
      <defs>
       <path d="M 0 0 
L 0 3.5 
" id="m7bd243e021" style="stroke:#000000;stroke-width:0.8;"/>
      </defs>
      <g>
       <use style="stroke:#000000;stroke-width:0.8;" x="62.998636" xlink:href="#m7bd243e021" y="317.72"/>
      </g>
     </g>
     <g id="text_1">
      <!-- 0 -->
      <g transform="translate(59.817386 332.318437)scale(0.1 -0.1)">
       <defs>
        <path d="M 31.78125 66.40625 
Q 24.171875 66.40625 20.328125 58.90625 
Q 16.5 51.421875 16.5 36.375 
Q 16.5 21.390625 20.328125 13.890625 
Q 24.171875 6.390625 31.78125 6.390625 
Q 39.453125 6.390625 43.28125 13.890625 
Q 47.125 21.390625 47.125 36.375 
Q 47.125 51.421875 43.28125 58.90625 
Q 39.453125 66.40625 31.78125 66.40625 
z
M 31.78125 74.21875 
Q 44.046875 74.21875 50.515625 64.515625 
Q 56.984375 54.828125 56.984375 36.375 
Q 56.984375 17.96875 50.515625 8.265625 
Q 44.046875 -1.421875 31.78125 -1.421875 
Q 19.53125 -1.421875 13.0625 8.265625 
Q 6.59375 17.96875 6.59375 36.375 
Q 6.59375 54.828125 13.0625 64.515625 
Q 19.53125 74.21875 31.78125 74.21875 
z
" id="DejaVuSans-48"/>
       </defs>
       <use xlink:href="#DejaVuSans-48"/>
      </g>
     </g>
    </g>
    <g id="xtick_2">
     <g id="line2d_3">
      <path clip-path="url(#pe3a3cee279)" d="M 109.093275 317.72 
L 109.093275 26.88 
" style="fill:none;stroke:#b0b0b0;stroke-linecap:square;stroke-width:0.8;"/>
     </g>
     <g id="line2d_4">
      <g>
       <use style="stroke:#000000;stroke-width:0.8;" x="109.093275" xlink:href="#m7bd243e021" y="317.72"/>
      </g>
     </g>
     <g id="text_2">
      <!-- 250 -->
      <g transform="translate(99.549525 332.318437)scale(0.1 -0.1)">
       <defs>
        <path d="M 19.1875 8.296875 
L 53.609375 8.296875 
L 53.609375 0 
L 7.328125 0 
L 7.328125 8.296875 
Q 12.9375 14.109375 22.625 23.890625 
Q 32.328125 33.6875 34.8125 36.53125 
Q 39.546875 41.84375 41.421875 45.53125 
Q 43.3125 49.21875 43.3125 52.78125 
Q 43.3125 58.59375 39.234375 62.25 
Q 35.15625 65.921875 28.609375 65.921875 
Q 23.96875 65.921875 18.8125 64.3125 
Q 13.671875 62.703125 7.8125 59.421875 
L 7.8125 69.390625 
Q 13.765625 71.78125 18.9375 73 
Q 24.125 74.21875 28.421875 74.21875 
Q 39.75 74.21875 46.484375 68.546875 
Q 53.21875 62.890625 53.21875 53.421875 
Q 53.21875 48.921875 51.53125 44.890625 
Q 49.859375 40.875 45.40625 35.40625 
Q 44.1875 33.984375 37.640625 27.21875 
Q 31.109375 20.453125 19.1875 8.296875 
z
" id="DejaVuSans-50"/>
        <path d="M 10.796875 72.90625 
L 49.515625 72.90625 
L 49.515625 64.59375 
L 19.828125 64.59375 
L 19.828125 46.734375 
Q 21.96875 47.46875 24.109375 47.828125 
Q 26.265625 48.1875 28.421875 48.1875 
Q 40.625 48.1875 47.75 41.5 
Q 54.890625 34.8125 54.890625 23.390625 
Q 54.890625 11.625 47.5625 5.09375 
Q 40.234375 -1.421875 26.90625 -1.421875 
Q 22.3125 -1.421875 17.546875 -0.640625 
Q 12.796875 0.140625 7.71875 1.703125 
L 7.71875 11.625 
Q 12.109375 9.234375 16.796875 8.0625 
Q 21.484375 6.890625 26.703125 6.890625 
Q 35.15625 6.890625 40.078125 11.328125 
Q 45.015625 15.765625 45.015625 23.390625 
Q 45.015625 31 40.078125 35.4375 
Q 35.15625 39.890625 26.703125 39.890625 
Q 22.75 39.890625 18.8125 39.015625 
Q 14.890625 38.140625 10.796875 36.28125 
z
" id="DejaVuSans-53"/>
       </defs>
       <use xlink:href="#DejaVuSans-50"/>
       <use x="63.623047" xlink:href="#DejaVuSans-53"/>
       <use x="127.246094" xlink:href="#DejaVuSans-48"/>
      </g>
     </g>
    </g>
    <g id="xtick_3">
     <g id="line2d_5">
      <path clip-path="url(#pe3a3cee279)" d="M 155.187913 317.72 
L 155.187913 26.88 
" style="fill:none;stroke:#b0b0b0;stroke-linecap:square;stroke-width:0.8;"/>
     </g>
     <g id="line2d_6">
      <g>
       <use style="stroke:#000000;stroke-width:0.8;" x="155.187913" xlink:href="#m7bd243e021" y="317.72"/>
      </g>
     </g>
     <g id="text_3">
      <!-- 500 -->
      <g transform="translate(145.644163 332.318437)scale(0.1 -0.1)">
       <use xlink:href="#DejaVuSans-53"/>
       <use x="63.623047" xlink:href="#DejaVuSans-48"/>
       <use x="127.246094" xlink:href="#DejaVuSans-48"/>
      </g>
     </g>
    </g>
    <g id="xtick_4">
     <g id="line2d_7">
      <path clip-path="url(#pe3a3cee279)" d="M 201.282551 317.72 
L 201.282551 26.88 
" style="fill:none;stroke:#b0b0b0;stroke-linecap:square;stroke-width:0.8;"/>
     </g>
     <g id="line2d_8">
      <g>
       <use style="stroke:#000000;stroke-width:0.8;" x="201.282551" xlink:href="#m7bd243e021" y="317.72"/>
      </g>
     </g>
     <g id="text_4">
      <!-- 750 -->
      <g transform="translate(191.738801 332.318437)scale(0.1 -0.1)">
       <defs>
        <path d="M 8.203125 72.90625 
L 55.078125 72.90625 
L 55.078125 68.703125 
L 28.609375 0 
L 18.3125 0 
L 43.21875 64.59375 
L 8.203125 64.59375 
z
" id="DejaVuSans-55"/>
       </defs>
       <use xlink:href="#DejaVuSans-55"/>
       <use x="63.623047" xlink:href="#DejaVuSans-53"/>
       <use x="127.246094" xlink:href="#DejaVuSans-48"/>
      </g>
     </g>
    </g>
    <g id="xtick_5">
     <g id="line2d_9">
      <path clip-path="url(#pe3a3cee279)" d="M 247.377189 317.72 
L 247.377189 26.88 
" style="fill:none;stroke:#b0b0b0;stroke-linecap:square;stroke-width:0.8;"/>
     </g>
     <g id="line2d_10">
      <g>
       <use style="stroke:#000000;stroke-width:0.8;" x="247.377189" xlink:href="#m7bd243e021" y="317.72"/>
      </g>
     </g>
     <g id="text_5">
      <!-- 1000 -->
      <g transform="translate(234.652189 332.318437)scale(0.1 -0.1)">
       <defs>
        <path d="M 12.40625 8.296875 
L 28.515625 8.296875 
L 28.515625 63.921875 
L 10.984375 60.40625 
L 10.984375 69.390625 
L 28.421875 72.90625 
L 38.28125 72.90625 
L 38.28125 8.296875 
L 54.390625 8.296875 
L 54.390625 0 
L 12.40625 0 
z
" id="DejaVuSans-49"/>
       </defs>
       <use xlink:href="#DejaVuSans-49"/>
       <use x="63.623047" xlink:href="#DejaVuSans-48"/>
       <use x="127.246094" xlink:href="#DejaVuSans-48"/>
       <use x="190.869141" xlink:href="#DejaVuSans-48"/>
      </g>
     </g>
    </g>
    <g id="xtick_6">
     <g id="line2d_11">
      <path clip-path="url(#pe3a3cee279)" d="M 293.471828 317.72 
L 293.471828 26.88 
" style="fill:none;stroke:#b0b0b0;stroke-linecap:square;stroke-width:0.8;"/>
     </g>
     <g id="line2d_12">
      <g>
       <use style="stroke:#000000;stroke-width:0.8;" x="293.471828" xlink:href="#m7bd243e021" y="317.72"/>
      </g>
     </g>
     <g id="text_6">
      <!-- 1250 -->
      <g transform="translate(280.746828 332.318437)scale(0.1 -0.1)">
       <use xlink:href="#DejaVuSans-49"/>
       <use x="63.623047" xlink:href="#DejaVuSans-50"/>
       <use x="127.246094" xlink:href="#DejaVuSans-53"/>
       <use x="190.869141" xlink:href="#DejaVuSans-48"/>
      </g>
     </g>
    </g>
    <g id="xtick_7">
     <g id="line2d_13">
      <path clip-path="url(#pe3a3cee279)" d="M 339.566466 317.72 
L 339.566466 26.88 
" style="fill:none;stroke:#b0b0b0;stroke-linecap:square;stroke-width:0.8;"/>
     </g>
     <g id="line2d_14">
      <g>
       <use style="stroke:#000000;stroke-width:0.8;" x="339.566466" xlink:href="#m7bd243e021" y="317.72"/>
      </g>
     </g>
     <g id="text_7">
      <!-- 1500 -->
      <g transform="translate(326.841466 332.318437)scale(0.1 -0.1)">
       <use xlink:href="#DejaVuSans-49"/>
       <use x="63.623047" xlink:href="#DejaVuSans-53"/>
       <use x="127.246094" xlink:href="#DejaVuSans-48"/>
       <use x="190.869141" xlink:href="#DejaVuSans-48"/>
      </g>
     </g>
    </g>
    <g id="xtick_8">
     <g id="line2d_15">
      <path clip-path="url(#pe3a3cee279)" d="M 385.661104 317.72 
L 385.661104 26.88 
" style="fill:none;stroke:#b0b0b0;stroke-linecap:square;stroke-width:0.8;"/>
     </g>
     <g id="line2d_16">
      <g>
       <use style="stroke:#000000;stroke-width:0.8;" x="385.661104" xlink:href="#m7bd243e021" y="317.72"/>
      </g>
     </g>
     <g id="text_8">
      <!-- 1750 -->
      <g transform="translate(372.936104 332.318437)scale(0.1 -0.1)">
       <use xlink:href="#DejaVuSans-49"/>
       <use x="63.623047" xlink:href="#DejaVuSans-55"/>
       <use x="127.246094" xlink:href="#DejaVuSans-53"/>
       <use x="190.869141" xlink:href="#DejaVuSans-48"/>
      </g>
     </g>
    </g>
    <g id="xtick_9">
     <g id="line2d_17">
      <path clip-path="url(#pe3a3cee279)" d="M 431.755742 317.72 
L 431.755742 26.88 
" style="fill:none;stroke:#b0b0b0;stroke-linecap:square;stroke-width:0.8;"/>
     </g>
     <g id="line2d_18">
      <g>
       <use style="stroke:#000000;stroke-width:0.8;" x="431.755742" xlink:href="#m7bd243e021" y="317.72"/>
      </g>
     </g>
     <g id="text_9">
      <!-- 2000 -->
      <g transform="translate(419.030742 332.318437)scale(0.1 -0.1)">
       <use xlink:href="#DejaVuSans-50"/>
       <use x="63.623047" xlink:href="#DejaVuSans-48"/>
       <use x="127.246094" xlink:href="#DejaVuSans-48"/>
       <use x="190.869141" xlink:href="#DejaVuSans-48"/>
      </g>
     </g>
    </g>
   </g>
   <g id="matplotlib.axis_2">
    <g id="ytick_1">
     <g id="line2d_19">
      <path clip-path="url(#pe3a3cee279)" d="M 44.57 304.5 
L 450 304.5 
" style="fill:none;stroke:#b0b0b0;stroke-linecap:square;stroke-width:0.8;"/>
     </g>
     <g id="line2d_20">
      <defs>
       <path d="M 0 0 
L -3.5 0 
" id="m74e7f77eb7" style="stroke:#000000;stroke-width:0.8;"/>
      </defs>
      <g>
       <use style="stroke:#000000;stroke-width:0.8;" x="44.57" xlink:href="#m74e7f77eb7" y="304.5"/>
      </g>
     </g>
     <g id="text_10">
      <!-- 15 -->
      <g transform="translate(24.845 308.299219)scale(0.1 -0.1)">
       <use xlink:href="#DejaVuSans-49"/>
       <use x="63.623047" xlink:href="#DejaVuSans-53"/>
      </g>
     </g>
    </g>
    <g id="ytick_2">
     <g id="line2d_21">
      <path clip-path="url(#pe3a3cee279)" d="M 44.57 241.547619 
L 450 241.547619 
" style="fill:none;stroke:#b0b0b0;stroke-linecap:square;stroke-width:0.8;"/>
     </g>
     <g id="line2d_22">
      <g>
       <use style="stroke:#000000;stroke-width:0.8;" x="44.57" xlink:href="#m74e7f77eb7" y="241.547619"/>
      </g>
     </g>
     <g id="text_11">
      <!-- 20 -->
      <g transform="translate(24.845 245.346838)scale(0.1 -0.1)">
       <use xlink:href="#DejaVuSans-50"/>
       <use x="63.623047" xlink:href="#DejaVuSans-48"/>
      </g>
     </g>
    </g>
    <g id="ytick_3">
     <g id="line2d_23">
      <path clip-path="url(#pe3a3cee279)" d="M 44.57 178.595238 
L 450 178.595238 
" style="fill:none;stroke:#b0b0b0;stroke-linecap:square;stroke-width:0.8;"/>
     </g>
     <g id="line2d_24">
      <g>
       <use style="stroke:#000000;stroke-width:0.8;" x="44.57" xlink:href="#m74e7f77eb7" y="178.595238"/>
      </g>
     </g>
     <g id="text_12">
      <!-- 25 -->
      <g transform="translate(24.845 182.394457)scale(0.1 -0.1)">
       <use xlink:href="#DejaVuSans-50"/>
       <use x="63.623047" xlink:href="#DejaVuSans-53"/>
      </g>
     </g>
    </g>
    <g id="ytick_4">
     <g id="line2d_25">
      <path clip-path="url(#pe3a3cee279)" d="M 44.57 115.642857 
L 450 115.642857 
" style="fill:none;stroke:#b0b0b0;stroke-linecap:square;stroke-width:0.8;"/>
     </g>
     <g id="line2d_26">
      <g>
       <use style="stroke:#000000;stroke-width:0.8;" x="44.57" xlink:href="#m74e7f77eb7" y="115.642857"/>
      </g>
     </g>
     <g id="text_13">
      <!-- 30 -->
      <g transform="translate(24.845 119.442076)scale(0.1 -0.1)">
       <defs>
        <path d="M 40.578125 39.3125 
Q 47.65625 37.796875 51.625 33 
Q 55.609375 28.21875 55.609375 21.1875 
Q 55.609375 10.40625 48.1875 4.484375 
Q 40.765625 -1.421875 27.09375 -1.421875 
Q 22.515625 -1.421875 17.65625 -0.515625 
Q 12.796875 0.390625 7.625 2.203125 
L 7.625 11.71875 
Q 11.71875 9.328125 16.59375 8.109375 
Q 21.484375 6.890625 26.8125 6.890625 
Q 36.078125 6.890625 40.9375 10.546875 
Q 45.796875 14.203125 45.796875 21.1875 
Q 45.796875 27.640625 41.28125 31.265625 
Q 36.765625 34.90625 28.71875 34.90625 
L 20.21875 34.90625 
L 20.21875 43.015625 
L 29.109375 43.015625 
Q 36.375 43.015625 40.234375 45.921875 
Q 44.09375 48.828125 44.09375 54.296875 
Q 44.09375 59.90625 40.109375 62.90625 
Q 36.140625 65.921875 28.71875 65.921875 
Q 24.65625 65.921875 20.015625 65.03125 
Q 15.375 64.15625 9.8125 62.3125 
L 9.8125 71.09375 
Q 15.4375 72.65625 20.34375 73.4375 
Q 25.25 74.21875 29.59375 74.21875 
Q 40.828125 74.21875 47.359375 69.109375 
Q 53.90625 64.015625 53.90625 55.328125 
Q 53.90625 49.265625 50.4375 45.09375 
Q 46.96875 40.921875 40.578125 39.3125 
z
" id="DejaVuSans-51"/>
       </defs>
       <use xlink:href="#DejaVuSans-51"/>
       <use x="63.623047" xlink:href="#DejaVuSans-48"/>
      </g>
     </g>
    </g>
    <g id="ytick_5">
     <g id="line2d_27">
      <path clip-path="url(#pe3a3cee279)" d="M 44.57 52.690476 
L 450 52.690476 
" style="fill:none;stroke:#b0b0b0;stroke-linecap:square;stroke-width:0.8;"/>
     </g>
     <g id="line2d_28">
      <g>
       <use style="stroke:#000000;stroke-width:0.8;" x="44.57" xlink:href="#m74e7f77eb7" y="52.690476"/>
      </g>
     </g>
     <g id="text_14">
      <!-- 35 -->
      <g transform="translate(24.845 56.489695)scale(0.1 -0.1)">
       <use xlink:href="#DejaVuSans-51"/>
       <use x="63.623047" xlink:href="#DejaVuSans-53"/>
      </g>
     </g>
    </g>
    <g id="text_15">
     <!-- Packets -->
     <g transform="translate(18.765313 191.258594)rotate(-90)scale(0.1 -0.1)">
      <defs>
       <path d="M 19.671875 64.796875 
L 19.671875 37.40625 
L 32.078125 37.40625 
Q 38.96875 37.40625 42.71875 40.96875 
Q 46.484375 44.53125 46.484375 51.125 
Q 46.484375 57.671875 42.71875 61.234375 
Q 38.96875 64.796875 32.078125 64.796875 
z
M 9.8125 72.90625 
L 32.078125 72.90625 
Q 44.34375 72.90625 50.609375 67.359375 
Q 56.890625 61.8125 56.890625 51.125 
Q 56.890625 40.328125 50.609375 34.8125 
Q 44.34375 29.296875 32.078125 29.296875 
L 19.671875 29.296875 
L 19.671875 0 
L 9.8125 0 
z
" id="DejaVuSans-80"/>
       <path d="M 34.28125 27.484375 
Q 23.390625 27.484375 19.1875 25 
Q 14.984375 22.515625 14.984375 16.5 
Q 14.984375 11.71875 18.140625 8.90625 
Q 21.296875 6.109375 26.703125 6.109375 
Q 34.1875 6.109375 38.703125 11.40625 
Q 43.21875 16.703125 43.21875 25.484375 
L 43.21875 27.484375 
z
M 52.203125 31.203125 
L 52.203125 0 
L 43.21875 0 
L 43.21875 8.296875 
Q 40.140625 3.328125 35.546875 0.953125 
Q 30.953125 -1.421875 24.3125 -1.421875 
Q 15.921875 -1.421875 10.953125 3.296875 
Q 6 8.015625 6 15.921875 
Q 6 25.140625 12.171875 29.828125 
Q 18.359375 34.515625 30.609375 34.515625 
L 43.21875 34.515625 
L 43.21875 35.40625 
Q 43.21875 41.609375 39.140625 45 
Q 35.0625 48.390625 27.6875 48.390625 
Q 23 48.390625 18.546875 47.265625 
Q 14.109375 46.140625 10.015625 43.890625 
L 10.015625 52.203125 
Q 14.9375 54.109375 19.578125 55.046875 
Q 24.21875 56 28.609375 56 
Q 40.484375 56 46.34375 49.84375 
Q 52.203125 43.703125 52.203125 31.203125 
z
" id="DejaVuSans-97"/>
       <path d="M 48.78125 52.59375 
L 48.78125 44.1875 
Q 44.96875 46.296875 41.140625 47.34375 
Q 37.3125 48.390625 33.40625 48.390625 
Q 24.65625 48.390625 19.8125 42.84375 
Q 14.984375 37.3125 14.984375 27.296875 
Q 14.984375 17.28125 19.8125 11.734375 
Q 24.65625 6.203125 33.40625 6.203125 
Q 37.3125 6.203125 41.140625 7.25 
Q 44.96875 8.296875 48.78125 10.40625 
L 48.78125 2.09375 
Q 45.015625 0.34375 40.984375 -0.53125 
Q 36.96875 -1.421875 32.421875 -1.421875 
Q 20.0625 -1.421875 12.78125 6.34375 
Q 5.515625 14.109375 5.515625 27.296875 
Q 5.515625 40.671875 12.859375 48.328125 
Q 20.21875 56 33.015625 56 
Q 37.15625 56 41.109375 55.140625 
Q 45.0625 54.296875 48.78125 52.59375 
z
" id="DejaVuSans-99"/>
       <path d="M 9.078125 75.984375 
L 18.109375 75.984375 
L 18.109375 31.109375 
L 44.921875 54.6875 
L 56.390625 54.6875 
L 27.390625 29.109375 
L 57.625 0 
L 45.90625 0 
L 18.109375 26.703125 
L 18.109375 0 
L 9.078125 0 
z
" id="DejaVuSans-107"/>
       <path d="M 56.203125 29.59375 
L 56.203125 25.203125 
L 14.890625 25.203125 
Q 15.484375 15.921875 20.484375 11.0625 
Q 25.484375 6.203125 34.421875 6.203125 
Q 39.59375 6.203125 44.453125 7.46875 
Q 49.3125 8.734375 54.109375 11.28125 
L 54.109375 2.78125 
Q 49.265625 0.734375 44.1875 -0.34375 
Q 39.109375 -1.421875 33.890625 -1.421875 
Q 20.796875 -1.421875 13.15625 6.1875 
Q 5.515625 13.8125 5.515625 26.8125 
Q 5.515625 40.234375 12.765625 48.109375 
Q 20.015625 56 32.328125 56 
Q 43.359375 56 49.78125 48.890625 
Q 56.203125 41.796875 56.203125 29.59375 
z
M 47.21875 32.234375 
Q 47.125 39.59375 43.09375 43.984375 
Q 39.0625 48.390625 32.421875 48.390625 
Q 24.90625 48.390625 20.390625 44.140625 
Q 15.875 39.890625 15.1875 32.171875 
z
" id="DejaVuSans-101"/>
       <path d="M 18.3125 70.21875 
L 18.3125 54.6875 
L 36.8125 54.6875 
L 36.8125 47.703125 
L 18.3125 47.703125 
L 18.3125 18.015625 
Q 18.3125 11.328125 20.140625 9.421875 
Q 21.96875 7.515625 27.59375 7.515625 
L 36.8125 7.515625 
L 36.8125 0 
L 27.59375 0 
Q 17.1875 0 13.234375 3.875 
Q 9.28125 7.765625 9.28125 18.015625 
L 9.28125 47.703125 
L 2.6875 47.703125 
L 2.6875 54.6875 
L 9.28125 54.6875 
L 9.28125 70.21875 
z
" id="DejaVuSans-116"/>
       <path d="M 44.28125 53.078125 
L 44.28125 44.578125 
Q 40.484375 46.53125 36.375 47.5 
Q 32.28125 48.484375 27.875 48.484375 
Q 21.1875 48.484375 17.84375 46.4375 
Q 14.5 44.390625 14.5 40.28125 
Q 14.5 37.15625 16.890625 35.375 
Q 19.28125 33.59375 26.515625 31.984375 
L 29.59375 31.296875 
Q 39.15625 29.25 43.1875 25.515625 
Q 47.21875 21.78125 47.21875 15.09375 
Q 47.21875 7.46875 41.1875 3.015625 
Q 35.15625 -1.421875 24.609375 -1.421875 
Q 20.21875 -1.421875 15.453125 -0.5625 
Q 10.6875 0.296875 5.421875 2 
L 5.421875 11.28125 
Q 10.40625 8.6875 15.234375 7.390625 
Q 20.0625 6.109375 24.8125 6.109375 
Q 31.15625 6.109375 34.5625 8.28125 
Q 37.984375 10.453125 37.984375 14.40625 
Q 37.984375 18.0625 35.515625 20.015625 
Q 33.0625 21.96875 24.703125 23.78125 
L 21.578125 24.515625 
Q 13.234375 26.265625 9.515625 29.90625 
Q 5.8125 33.546875 5.8125 39.890625 
Q 5.8125 47.609375 11.28125 51.796875 
Q 16.75 56 26.8125 56 
Q 31.78125 56 36.171875 55.265625 
Q 40.578125 54.546875 44.28125 53.078125 
z
" id="DejaVuSans-115"/>
      </defs>
      <use xlink:href="#DejaVuSans-80"/>
      <use x="55.802734" xlink:href="#DejaVuSans-97"/>
      <use x="117.082031" xlink:href="#DejaVuSans-99"/>
      <use x="172.0625" xlink:href="#DejaVuSans-107"/>
      <use x="226.347656" xlink:href="#DejaVuSans-101"/>
      <use x="287.871094" xlink:href="#DejaVuSans-116"/>
      <use x="327.080078" xlink:href="#DejaVuSans-115"/>
     </g>
    </g>
   </g>
   <g id="line2d_29">
    <path clip-path="url(#pe3a3cee279)" d="M 62.998636 266.728571 
L 73.508214 266.728571 
L 73.692592 254.138095 
L 73.876971 266.728571 
L 243.136483 266.728571 
L 243.320861 254.138095 
L 243.50524 266.728571 
L 411.105344 266.728571 
L 411.289723 254.138095 
L 411.474101 266.728571 
L 429.727578 266.728571 
L 429.911957 291.909524 
L 430.096335 291.909524 
L 430.280714 266.728571 
L 431.571364 266.728571 
L 431.571364 266.728571 
" style="fill:none;stroke:#1f77b4;stroke-linecap:square;stroke-width:1.5;"/>
   </g>
   <g id="line2d_30">
    <path clip-path="url(#pe3a3cee279)" d="M 62.998636 254.138095 
L 63.183015 266.728571 
L 63.551772 241.547619 
L 63.736151 266.728571 
L 64.104908 241.547619 
L 64.289286 241.547619 
L 64.473665 254.138095 
L 64.842422 254.138095 
L 65.0268 266.728571 
L 65.211179 254.138095 
L 66.133072 254.138095 
L 66.31745 241.547619 
L 66.501829 254.138095 
L 67.976857 254.138095 
L 68.161236 241.547619 
L 68.345614 241.547619 
L 68.529993 254.138095 
L 69.083129 254.138095 
L 69.267507 266.728571 
L 69.451886 254.138095 
L 69.820643 254.138095 
L 70.005021 241.547619 
L 70.1894 254.138095 
L 70.373778 241.547619 
L 70.558157 254.138095 
L 70.742536 254.138095 
L 70.926914 266.728571 
L 71.111293 254.138095 
L 71.295671 254.138095 
L 71.48005 241.547619 
L 71.664428 254.138095 
L 71.848807 254.138095 
L 72.033185 241.547619 
L 72.217564 254.138095 
L 72.401943 254.138095 
L 72.586321 241.547619 
L 73.323835 241.547619 
L 73.508214 254.138095 
L 74.798864 254.138095 
L 74.983242 241.547619 
L 75.167621 266.728571 
L 75.351999 241.547619 
L 76.827028 241.547619 
L 77.011406 254.138095 
L 77.195785 241.547619 
L 77.380163 254.138095 
L 77.564542 241.547619 
L 78.486435 241.547619 
L 78.670813 254.138095 
L 79.03957 254.138095 
L 79.223949 266.728571 
L 79.592706 241.547619 
L 79.777085 266.728571 
L 80.145842 266.728571 
L 80.33022 254.138095 
L 80.514599 254.138095 
L 80.698977 241.547619 
L 80.883356 266.728571 
L 81.067735 254.138095 
L 81.252113 254.138095 
L 81.436492 241.547619 
L 81.989627 241.547619 
L 82.174006 254.138095 
L 82.358384 241.547619 
L 82.542763 254.138095 
L 82.727142 254.138095 
L 82.91152 241.547619 
L 83.095899 266.728571 
L 83.280277 266.728571 
L 83.464656 254.138095 
L 83.833413 254.138095 
L 84.017791 241.547619 
L 84.20217 254.138095 
L 84.386549 241.547619 
L 84.570927 254.138095 
L 84.755306 241.547619 
L 84.939684 254.138095 
L 85.308441 254.138095 
L 85.49282 241.547619 
L 86.045955 241.547619 
L 86.230334 266.728571 
L 86.414713 254.138095 
L 87.152227 254.138095 
L 87.336605 241.547619 
L 87.520984 254.138095 
L 87.705362 254.138095 
L 87.889741 241.547619 
L 88.07412 266.728571 
L 88.258498 254.138095 
L 89.180391 254.138095 
L 89.364769 241.547619 
L 89.549148 254.138095 
L 89.733527 254.138095 
L 89.917905 241.547619 
L 90.102284 254.138095 
L 90.286662 254.138095 
L 90.471041 241.547619 
L 90.655419 254.138095 
L 90.839798 254.138095 
L 91.024176 241.547619 
L 91.208555 266.728571 
L 91.577312 241.547619 
L 91.761691 254.138095 
L 91.946069 254.138095 
L 92.130448 241.547619 
L 92.314826 241.547619 
L 92.499205 254.138095 
L 92.683583 241.547619 
L 92.867962 254.138095 
L 93.05234 241.547619 
L 93.236719 266.728571 
L 93.421098 254.138095 
L 93.789855 254.138095 
L 93.974233 266.728571 
L 94.158612 241.547619 
L 94.34299 254.138095 
L 94.527369 241.547619 
L 94.711747 254.138095 
L 94.896126 254.138095 
L 95.080505 241.547619 
L 95.264883 254.138095 
L 95.63364 254.138095 
L 95.818019 241.547619 
L 96.002397 254.138095 
L 96.371154 254.138095 
L 96.555533 241.547619 
L 96.739912 241.547619 
L 96.92429 254.138095 
L 97.108669 254.138095 
L 97.293047 241.547619 
L 97.477426 254.138095 
L 97.846183 254.138095 
L 98.030561 241.547619 
L 98.399319 241.547619 
L 98.583697 254.138095 
L 98.768076 241.547619 
L 99.136833 241.547619 
L 99.321211 254.138095 
L 99.50559 241.547619 
L 99.689968 241.547619 
L 99.874347 254.138095 
L 102.08689 254.138095 
L 102.271268 241.547619 
L 102.455647 254.138095 
L 102.640025 241.547619 
L 103.008782 241.547619 
L 103.193161 254.138095 
L 103.561918 254.138095 
L 103.746297 241.547619 
L 103.930675 254.138095 
L 104.299432 254.138095 
L 104.483811 304.5 
L 104.668189 241.547619 
L 104.852568 241.547619 
L 105.036946 266.728571 
L 105.221325 254.138095 
L 105.774461 254.138095 
L 105.958839 241.547619 
L 106.143218 254.138095 
L 106.511975 254.138095 
L 106.696353 266.728571 
L 106.880732 241.547619 
L 107.065111 254.138095 
L 107.249489 241.547619 
L 107.433868 254.138095 
L 108.171382 254.138095 
L 108.35576 241.547619 
L 108.540139 254.138095 
L 108.724517 241.547619 
L 109.64641 241.547619 
L 109.830789 254.138095 
L 110.383924 254.138095 
L 110.568303 241.547619 
L 110.752682 254.138095 
L 111.121439 254.138095 
L 111.305817 241.547619 
L 111.490196 266.728571 
L 111.674574 254.138095 
L 112.22771 254.138095 
L 112.412089 241.547619 
L 112.596467 241.547619 
L 112.780846 254.138095 
L 112.965224 241.547619 
L 113.149603 254.138095 
L 113.333981 241.547619 
L 113.51836 254.138095 
L 113.702738 254.138095 
L 113.887117 241.547619 
L 114.071496 254.138095 
L 114.255874 241.547619 
L 114.440253 254.138095 
L 114.624631 241.547619 
L 114.80901 241.547619 
L 114.993388 254.138095 
L 115.177767 254.138095 
L 115.362145 241.547619 
L 115.546524 241.547619 
L 115.730902 254.138095 
L 115.915281 241.547619 
L 116.284038 241.547619 
L 116.468417 254.138095 
L 117.574688 254.138095 
L 117.759067 241.547619 
L 117.943445 241.547619 
L 118.127824 254.138095 
L 118.312202 241.547619 
L 118.680959 241.547619 
L 119.049716 266.728571 
L 119.234095 241.547619 
L 119.418474 254.138095 
L 119.602852 241.547619 
L 119.787231 254.138095 
L 119.971609 241.547619 
L 120.155988 241.547619 
L 120.340366 254.138095 
L 120.524745 241.547619 
L 120.893502 241.547619 
L 121.077881 254.138095 
L 121.999773 254.138095 
L 122.184152 241.547619 
L 122.36853 254.138095 
L 122.921666 254.138095 
L 123.106045 241.547619 
L 123.290423 254.138095 
L 123.474802 241.547619 
L 123.65918 241.547619 
L 123.843559 254.138095 
L 124.396694 254.138095 
L 124.581073 241.547619 
L 124.765452 266.728571 
L 124.94983 254.138095 
L 125.318587 254.138095 
L 125.502966 241.547619 
L 126.056101 241.547619 
L 126.24048 254.138095 
L 126.424859 241.547619 
L 126.609237 254.138095 
L 126.793616 241.547619 
L 126.977994 254.138095 
L 128.268644 254.138095 
L 128.453023 241.547619 
L 128.637401 254.138095 
L 128.82178 241.547619 
L 129.006158 254.138095 
L 129.928051 254.138095 
L 130.11243 266.728571 
L 130.296808 241.547619 
L 130.481187 266.728571 
L 130.849944 241.547619 
L 131.034322 241.547619 
L 131.218701 254.138095 
L 131.403079 241.547619 
L 131.587458 254.138095 
L 133.615622 254.138095 
L 133.800001 266.728571 
L 133.984379 254.138095 
L 134.168758 254.138095 
L 134.353136 279.319048 
L 134.721893 241.547619 
L 134.906272 254.138095 
L 135.090651 241.547619 
L 135.275029 254.138095 
L 135.459408 241.547619 
L 135.643786 254.138095 
L 135.828165 254.138095 
L 136.012543 241.547619 
L 136.196922 254.138095 
L 136.3813 241.547619 
L 136.565679 241.547619 
L 136.750058 254.138095 
L 137.118815 254.138095 
L 137.303193 241.547619 
L 137.487572 254.138095 
L 137.67195 254.138095 
L 137.856329 241.547619 
L 138.040707 254.138095 
L 138.225086 254.138095 
L 138.409465 241.547619 
L 138.593843 254.138095 
L 139.146979 254.138095 
L 139.331357 241.547619 
L 139.515736 254.138095 
L 139.884493 254.138095 
L 140.068871 241.547619 
L 140.25325 266.728571 
L 140.437629 254.138095 
L 141.5439 254.138095 
L 141.728278 241.547619 
L 141.912657 241.547619 
L 142.097036 266.728571 
L 142.281414 241.547619 
L 142.83455 241.547619 
L 143.018928 254.138095 
L 143.203307 241.547619 
L 143.387685 266.728571 
L 143.756443 241.547619 
L 143.940821 254.138095 
L 144.309578 254.138095 
L 144.493957 241.547619 
L 144.678335 254.138095 
L 144.862714 241.547619 
L 145.41585 241.547619 
L 145.600228 254.138095 
L 145.784607 241.547619 
L 145.968985 254.138095 
L 146.153364 254.138095 
L 146.337742 241.547619 
L 146.522121 241.547619 
L 146.706499 254.138095 
L 146.890878 241.547619 
L 147.075256 254.138095 
L 147.259635 254.138095 
L 147.444014 241.547619 
L 147.628392 254.138095 
L 147.812771 254.138095 
L 147.997149 241.547619 
L 148.365906 241.547619 
L 148.550285 254.138095 
L 148.919042 254.138095 
L 149.103421 241.547619 
L 149.287799 254.138095 
L 149.472178 254.138095 
L 149.656556 266.728571 
L 149.840935 254.138095 
L 150.209692 254.138095 
L 150.39407 266.728571 
L 150.578449 241.547619 
L 150.762828 254.138095 
L 150.947206 254.138095 
L 151.131585 241.547619 
L 151.315963 254.138095 
L 152.053477 254.138095 
L 152.237856 241.547619 
L 152.606613 241.547619 
L 152.790992 266.728571 
L 152.97537 254.138095 
L 153.159749 254.138095 
L 153.344127 241.547619 
L 153.528506 254.138095 
L 153.712884 254.138095 
L 153.897263 241.547619 
L 154.081642 254.138095 
L 154.819156 254.138095 
L 155.003534 241.547619 
L 155.55667 241.547619 
L 155.741048 254.138095 
L 155.925427 241.547619 
L 156.109806 241.547619 
L 156.294184 254.138095 
L 156.478563 254.138095 
L 156.662941 266.728571 
L 156.84732 241.547619 
L 157.031698 254.138095 
L 157.216077 241.547619 
L 157.400455 241.547619 
L 157.584834 254.138095 
L 157.769213 241.547619 
L 157.953591 241.547619 
L 158.13797 254.138095 
L 158.322348 241.547619 
L 158.506727 254.138095 
L 158.691105 254.138095 
L 158.875484 241.547619 
L 159.244241 241.547619 
L 159.42862 254.138095 
L 159.981755 254.138095 
L 160.166134 266.728571 
L 160.350512 254.138095 
L 161.272405 254.138095 
L 161.456784 241.547619 
L 161.641162 254.138095 
L 162.009919 254.138095 
L 162.194298 241.547619 
L 162.378676 254.138095 
L 162.563055 254.138095 
L 162.747433 241.547619 
L 162.931812 254.138095 
L 163.116191 254.138095 
L 163.300569 241.547619 
L 163.853705 241.547619 
L 164.038083 254.138095 
L 164.222462 241.547619 
L 164.40684 241.547619 
L 164.591219 254.138095 
L 164.775598 254.138095 
L 164.959976 241.547619 
L 165.328733 241.547619 
L 165.513112 254.138095 
L 165.69749 241.547619 
L 166.066247 291.909524 
L 166.250626 254.138095 
L 166.435005 254.138095 
L 166.619383 241.547619 
L 166.803762 241.547619 
L 166.98814 266.728571 
L 167.172519 254.138095 
L 167.356897 254.138095 
L 167.541276 266.728571 
L 167.725654 254.138095 
L 167.910033 254.138095 
L 168.094412 241.547619 
L 168.463169 241.547619 
L 168.647547 254.138095 
L 169.56944 254.138095 
L 169.753819 241.547619 
L 169.938197 254.138095 
L 170.86009 254.138095 
L 171.044468 241.547619 
L 171.228847 241.547619 
L 171.413225 254.138095 
L 171.597604 254.138095 
L 171.781983 266.728571 
L 171.966361 254.138095 
L 172.15074 266.728571 
L 172.335118 254.138095 
L 172.519497 266.728571 
L 172.703875 304.5 
L 172.888254 254.138095 
L 173.072632 279.319048 
L 173.257011 254.138095 
L 174.178904 254.138095 
L 174.363282 266.728571 
L 174.547661 254.138095 
L 175.838311 254.138095 
L 176.022689 241.547619 
L 176.207068 241.547619 
L 176.391446 254.138095 
L 177.682096 254.138095 
L 177.866475 266.728571 
L 178.050853 254.138095 
L 179.157125 254.138095 
L 179.341503 304.5 
L 179.71026 266.728571 
L 179.894639 254.138095 
L 180.632153 254.138095 
L 180.816532 241.547619 
L 181.00091 266.728571 
L 181.185289 241.547619 
L 181.369667 241.547619 
L 181.738424 266.728571 
L 181.922803 266.728571 
L 182.107182 241.547619 
L 182.29156 254.138095 
L 182.844696 254.138095 
L 183.029074 241.547619 
L 183.213453 266.728571 
L 183.397831 266.728571 
L 183.58221 254.138095 
L 183.950967 254.138095 
L 184.135346 241.547619 
L 184.319724 241.547619 
L 184.504103 254.138095 
L 185.425995 254.138095 
L 185.610374 241.547619 
L 185.794753 279.319048 
L 185.979131 279.319048 
L 186.16351 254.138095 
L 186.347888 254.138095 
L 186.532267 266.728571 
L 186.716645 254.138095 
L 186.901024 254.138095 
L 187.085402 241.547619 
L 187.269781 254.138095 
L 187.45416 254.138095 
L 187.638538 266.728571 
L 187.822917 241.547619 
L 188.007295 254.138095 
L 188.191674 241.547619 
L 188.376052 254.138095 
L 188.560431 241.547619 
L 188.929188 266.728571 
L 189.297945 241.547619 
L 189.482324 266.728571 
L 189.666702 254.138095 
L 190.035459 254.138095 
L 190.219838 266.728571 
L 190.588595 241.547619 
L 190.772974 254.138095 
L 190.957352 241.547619 
L 191.326109 241.547619 
L 191.510488 254.138095 
L 191.879245 254.138095 
L 192.063623 241.547619 
L 192.248002 254.138095 
L 192.432381 241.547619 
L 192.616759 254.138095 
L 193.169895 254.138095 
L 193.354273 241.547619 
L 193.538652 266.728571 
L 193.72303 241.547619 
L 193.907409 266.728571 
L 194.091787 254.138095 
L 194.276166 254.138095 
L 194.460545 241.547619 
L 194.644923 254.138095 
L 194.829302 254.138095 
L 195.01368 266.728571 
L 195.382437 241.547619 
L 195.566816 254.138095 
L 195.751194 241.547619 
L 195.935573 254.138095 
L 196.119952 254.138095 
L 196.30433 266.728571 
L 196.488709 254.138095 
L 197.410601 254.138095 
L 197.59498 279.319048 
L 197.779359 254.138095 
L 197.963737 254.138095 
L 198.148116 266.728571 
L 198.516873 241.547619 
L 198.88563 241.547619 
L 199.070008 254.138095 
L 199.254387 254.138095 
L 199.438766 241.547619 
L 199.623144 241.547619 
L 199.807523 254.138095 
L 199.991901 241.547619 
L 200.17628 254.138095 
L 200.360658 254.138095 
L 200.545037 241.547619 
L 200.913794 266.728571 
L 201.098172 254.138095 
L 201.282551 254.138095 
L 201.46693 241.547619 
L 201.651308 266.728571 
L 201.835687 266.728571 
L 202.204444 241.547619 
L 202.573201 241.547619 
L 202.757579 254.138095 
L 202.941958 241.547619 
L 203.126337 241.547619 
L 203.310715 279.319048 
L 203.495094 254.138095 
L 204.232608 254.138095 
L 204.416986 266.728571 
L 204.601365 254.138095 
L 204.970122 254.138095 
L 205.338879 279.319048 
L 205.523258 241.547619 
L 205.892015 241.547619 
L 206.076393 266.728571 
L 206.260772 241.547619 
L 206.445151 241.547619 
L 206.629529 254.138095 
L 206.813908 254.138095 
L 206.998286 241.547619 
L 207.182665 254.138095 
L 207.551422 254.138095 
L 207.7358 241.547619 
L 208.104558 241.547619 
L 208.288936 254.138095 
L 208.473315 254.138095 
L 208.657693 241.547619 
L 208.842072 254.138095 
L 209.02645 254.138095 
L 209.210829 241.547619 
L 209.395207 241.547619 
L 209.579586 266.728571 
L 209.948343 241.547619 
L 210.132722 254.138095 
L 210.3171 241.547619 
L 210.501479 241.547619 
L 210.870236 266.728571 
L 211.238993 241.547619 
L 211.792129 241.547619 
L 212.160886 266.728571 
L 212.345264 266.728571 
L 212.714021 241.547619 
L 213.082778 241.547619 
L 213.267157 254.138095 
L 213.451536 241.547619 
L 213.635914 254.138095 
L 213.820293 254.138095 
L 214.004671 266.728571 
L 214.373428 241.547619 
L 214.557807 266.728571 
L 214.742185 254.138095 
L 214.926564 254.138095 
L 215.110943 241.547619 
L 215.295321 254.138095 
L 215.4797 241.547619 
L 215.664078 254.138095 
L 215.848457 241.547619 
L 216.401592 241.547619 
L 216.585971 254.138095 
L 216.770349 241.547619 
L 216.954728 254.138095 
L 218.429756 254.138095 
L 218.614135 266.728571 
L 218.982892 241.547619 
L 219.167271 254.138095 
L 219.720406 254.138095 
L 219.904785 241.547619 
L 220.457921 241.547619 
L 220.642299 254.138095 
L 221.379813 254.138095 
L 221.564192 241.547619 
L 221.74857 254.138095 
L 222.117328 254.138095 
L 222.301706 279.319048 
L 222.486085 241.547619 
L 222.670463 241.547619 
L 222.854842 266.728571 
L 223.03922 241.547619 
L 223.223599 254.138095 
L 223.407977 241.547619 
L 223.776735 241.547619 
L 223.961113 254.138095 
L 224.145492 254.138095 
L 224.32987 266.728571 
L 224.514249 241.547619 
L 224.698627 241.547619 
L 224.883006 254.138095 
L 225.067384 241.547619 
L 225.251763 254.138095 
L 225.436141 254.138095 
L 225.62052 241.547619 
L 225.804899 254.138095 
L 225.989277 254.138095 
L 226.173656 241.547619 
L 226.358034 266.728571 
L 226.542413 254.138095 
L 226.726791 266.728571 
L 226.91117 304.5 
L 227.279927 266.728571 
L 227.464306 266.728571 
L 227.648684 254.138095 
L 228.017441 254.138095 
L 228.20182 266.728571 
L 228.570577 241.547619 
L 228.754955 254.138095 
L 229.308091 254.138095 
L 229.49247 241.547619 
L 229.676848 254.138095 
L 230.045605 254.138095 
L 230.229984 241.547619 
L 230.414362 266.728571 
L 230.598741 266.728571 
L 230.78312 241.547619 
L 230.967498 241.547619 
L 231.336255 266.728571 
L 231.520634 241.547619 
L 231.889391 241.547619 
L 232.073769 254.138095 
L 232.258148 241.547619 
L 232.442526 254.138095 
L 232.626905 241.547619 
L 232.811284 266.728571 
L 232.995662 241.547619 
L 233.180041 241.547619 
L 233.364419 279.319048 
L 233.548798 254.138095 
L 233.733176 254.138095 
L 233.917555 241.547619 
L 234.101933 266.728571 
L 234.470691 241.547619 
L 234.839448 241.547619 
L 235.023826 254.138095 
L 235.208205 241.547619 
L 235.392583 266.728571 
L 235.576962 254.138095 
L 235.76134 254.138095 
L 235.945719 241.547619 
L 236.130098 241.547619 
L 236.314476 266.728571 
L 236.498855 241.547619 
L 236.683233 241.547619 
L 236.867612 254.138095 
L 237.05199 241.547619 
L 237.236369 254.138095 
L 237.420747 241.547619 
L 237.605126 254.138095 
L 237.789505 254.138095 
L 237.973883 241.547619 
L 238.158262 254.138095 
L 238.34264 254.138095 
L 238.527019 241.547619 
L 238.711397 241.547619 
L 238.895776 254.138095 
L 239.448912 254.138095 
L 239.63329 241.547619 
L 239.817669 254.138095 
L 240.002047 254.138095 
L 240.186426 241.547619 
L 240.370804 266.728571 
L 240.555183 241.547619 
L 240.739561 254.138095 
L 241.661454 254.138095 
L 241.845833 241.547619 
L 242.030211 279.319048 
L 242.398968 241.547619 
L 242.583347 254.138095 
L 242.952104 254.138095 
L 243.136483 241.547619 
L 243.320861 279.319048 
L 243.50524 241.547619 
L 243.689618 241.547619 
L 243.873997 266.728571 
L 244.058375 254.138095 
L 244.242754 254.138095 
L 244.427132 266.728571 
L 244.79589 241.547619 
L 244.980268 241.547619 
L 245.164647 254.138095 
L 245.533404 254.138095 
L 245.717782 241.547619 
L 245.902161 254.138095 
L 246.455297 254.138095 
L 246.639675 266.728571 
L 246.824054 254.138095 
L 247.008432 254.138095 
L 247.192811 266.728571 
L 247.377189 254.138095 
L 247.745946 254.138095 
L 247.930325 266.728571 
L 248.114703 241.547619 
L 248.299082 254.138095 
L 248.483461 254.138095 
L 248.667839 266.728571 
L 248.852218 241.547619 
L 249.220975 241.547619 
L 249.405353 266.728571 
L 249.589732 254.138095 
L 250.142868 254.138095 
L 250.327246 241.547619 
L 250.511625 254.138095 
L 250.696003 241.547619 
L 250.880382 254.138095 
L 251.06476 241.547619 
L 251.617896 241.547619 
L 251.802275 266.728571 
L 251.986653 254.138095 
L 252.171032 254.138095 
L 252.35541 266.728571 
L 252.539789 254.138095 
L 252.724167 254.138095 
L 252.908546 266.728571 
L 253.092924 266.728571 
L 253.277303 254.138095 
L 253.461682 254.138095 
L 253.64606 266.728571 
L 253.830439 266.728571 
L 254.014817 241.547619 
L 254.199196 266.728571 
L 254.383574 254.138095 
L 254.567953 254.138095 
L 254.752331 241.547619 
L 254.93671 241.547619 
L 255.121088 254.138095 
L 255.305467 241.547619 
L 255.489846 254.138095 
L 255.674224 241.547619 
L 255.858603 254.138095 
L 256.042981 254.138095 
L 256.22736 241.547619 
L 256.411738 254.138095 
L 256.596117 254.138095 
L 256.780495 241.547619 
L 256.964874 241.547619 
L 257.149253 254.138095 
L 257.333631 241.547619 
L 257.51801 241.547619 
L 257.702388 254.138095 
L 257.886767 279.319048 
L 258.071145 241.547619 
L 258.255524 254.138095 
L 258.439902 254.138095 
L 258.624281 266.728571 
L 258.80866 241.547619 
L 258.993038 254.138095 
L 259.546174 254.138095 
L 259.730552 266.728571 
L 259.914931 241.547619 
L 260.283688 241.547619 
L 260.468067 254.138095 
L 260.652445 241.547619 
L 260.836824 266.728571 
L 261.021202 241.547619 
L 261.205581 254.138095 
L 261.389959 241.547619 
L 261.574338 266.728571 
L 261.758716 241.547619 
L 261.943095 254.138095 
L 262.311852 254.138095 
L 262.496231 241.547619 
L 262.680609 254.138095 
L 262.864988 254.138095 
L 263.049366 266.728571 
L 263.233745 241.547619 
L 263.418123 241.547619 
L 263.602502 254.138095 
L 263.971259 254.138095 
L 264.155638 279.319048 
L 264.340016 266.728571 
L 264.524395 266.728571 
L 264.708773 241.547619 
L 264.893152 266.728571 
L 265.07753 241.547619 
L 265.261909 254.138095 
L 265.446287 254.138095 
L 265.630666 266.728571 
L 265.815045 266.728571 
L 265.999423 241.547619 
L 266.183802 291.909524 
L 266.36818 254.138095 
L 266.552559 241.547619 
L 266.736937 254.138095 
L 266.921316 241.547619 
L 267.105694 254.138095 
L 267.290073 241.547619 
L 267.65883 279.319048 
L 267.843209 241.547619 
L 268.027587 254.138095 
L 268.211966 254.138095 
L 268.396344 241.547619 
L 268.94948 241.547619 
L 269.133859 254.138095 
L 269.318237 254.138095 
L 269.502616 241.547619 
L 269.686994 254.138095 
L 270.424508 254.138095 
L 270.608887 241.547619 
L 270.977644 241.547619 
L 271.162023 266.728571 
L 271.346401 266.728571 
L 271.53078 241.547619 
L 271.715158 254.138095 
L 271.899537 241.547619 
L 272.083915 241.547619 
L 272.268294 254.138095 
L 272.637051 254.138095 
L 272.82143 241.547619 
L 273.005808 254.138095 
L 273.374565 254.138095 
L 273.558944 241.547619 
L 273.743322 254.138095 
L 273.927701 241.547619 
L 274.296458 266.728571 
L 274.480837 254.138095 
L 275.587108 254.138095 
L 275.771486 241.547619 
L 276.140244 241.547619 
L 276.324622 254.138095 
L 276.509001 254.138095 
L 276.693379 241.547619 
L 276.877758 266.728571 
L 277.062136 241.547619 
L 277.246515 254.138095 
L 277.430893 241.547619 
L 277.799651 266.728571 
L 277.984029 241.547619 
L 278.168408 241.547619 
L 278.352786 266.728571 
L 278.537165 241.547619 
L 278.721543 241.547619 
L 278.905922 254.138095 
L 279.0903 241.547619 
L 279.274679 241.547619 
L 279.459057 254.138095 
L 280.012193 254.138095 
L 280.196572 241.547619 
L 280.38095 266.728571 
L 280.565329 254.138095 
L 280.934086 254.138095 
L 281.118464 266.728571 
L 281.302843 241.547619 
L 281.487222 241.547619 
L 281.6716 254.138095 
L 282.409114 254.138095 
L 282.593493 241.547619 
L 282.777871 254.138095 
L 282.96225 241.547619 
L 283.146629 254.138095 
L 283.515386 254.138095 
L 283.699764 241.547619 
L 284.068521 241.547619 
L 284.2529 279.319048 
L 284.437278 241.547619 
L 284.621657 254.138095 
L 284.990414 254.138095 
L 285.174793 241.547619 
L 285.359171 254.138095 
L 285.727928 254.138095 
L 285.912307 241.547619 
L 286.096685 254.138095 
L 286.281064 241.547619 
L 286.465442 254.138095 
L 286.649821 241.547619 
L 286.8342 241.547619 
L 287.018578 254.138095 
L 287.571714 254.138095 
L 287.756092 241.547619 
L 287.940471 254.138095 
L 288.124849 254.138095 
L 288.309228 241.547619 
L 288.493607 254.138095 
L 288.677985 254.138095 
L 288.862364 241.547619 
L 289.046742 254.138095 
L 290.890528 254.138095 
L 291.074906 266.728571 
L 291.259285 241.547619 
L 291.443663 254.138095 
L 291.628042 279.319048 
L 291.996799 241.547619 
L 292.181178 254.138095 
L 292.365556 254.138095 
L 292.549935 241.547619 
L 292.734313 254.138095 
L 292.918692 254.138095 
L 293.10307 241.547619 
L 293.656206 241.547619 
L 293.840585 254.138095 
L 294.024963 241.547619 
L 294.209342 254.138095 
L 294.762477 254.138095 
L 294.946856 266.728571 
L 295.131234 266.728571 
L 295.315613 254.138095 
L 295.499992 254.138095 
L 295.68437 266.728571 
L 295.868749 254.138095 
L 296.053127 254.138095 
L 296.237506 241.547619 
L 296.421884 254.138095 
L 296.606263 241.547619 
L 296.790641 266.728571 
L 297.159399 241.547619 
L 297.343777 254.138095 
L 298.081291 254.138095 
L 298.26567 241.547619 
L 298.450048 254.138095 
L 298.634427 241.547619 
L 298.818806 254.138095 
L 299.003184 241.547619 
L 299.187563 241.547619 
L 299.371941 254.138095 
L 299.740698 254.138095 
L 299.925077 241.547619 
L 300.109455 241.547619 
L 300.293834 254.138095 
L 300.478213 241.547619 
L 300.662591 254.138095 
L 301.031348 254.138095 
L 301.215727 241.547619 
L 301.400105 254.138095 
L 301.953241 254.138095 
L 302.137619 241.547619 
L 302.321998 254.138095 
L 302.506377 241.547619 
L 302.875134 266.728571 
L 303.059512 254.138095 
L 303.243891 254.138095 
L 303.428269 241.547619 
L 303.612648 241.547619 
L 303.797026 266.728571 
L 303.981405 254.138095 
L 304.903298 254.138095 
L 305.087676 266.728571 
L 305.272055 254.138095 
L 305.640812 254.138095 
L 305.825191 241.547619 
L 306.009569 254.138095 
L 306.193948 241.547619 
L 306.378326 266.728571 
L 306.747083 241.547619 
L 306.931462 241.547619 
L 307.11584 254.138095 
L 307.853355 254.138095 
L 308.037733 241.547619 
L 308.590869 241.547619 
L 308.775247 254.138095 
L 308.959626 241.547619 
L 309.144005 254.138095 
L 309.328383 241.547619 
L 309.512762 254.138095 
L 309.69714 241.547619 
L 309.881519 266.728571 
L 310.065897 266.728571 
L 310.250276 241.547619 
L 310.434654 254.138095 
L 310.619033 254.138095 
L 310.803411 241.547619 
L 311.356547 241.547619 
L 311.540926 254.138095 
L 311.725304 279.319048 
L 311.909683 254.138095 
L 312.094061 254.138095 
L 312.27844 241.547619 
L 312.462818 254.138095 
L 312.647197 254.138095 
L 312.831576 241.547619 
L 313.015954 254.138095 
L 313.937847 254.138095 
L 314.122225 241.547619 
L 314.490983 241.547619 
L 314.675361 254.138095 
L 314.85974 254.138095 
L 315.044118 241.547619 
L 315.412875 266.728571 
L 315.781632 241.547619 
L 316.15039 241.547619 
L 316.334768 254.138095 
L 316.703525 254.138095 
L 316.887904 241.547619 
L 317.072282 254.138095 
L 317.256661 254.138095 
L 317.441039 241.547619 
L 317.625418 254.138095 
L 317.809796 254.138095 
L 317.994175 241.547619 
L 318.178554 254.138095 
L 318.362932 241.547619 
L 318.547311 254.138095 
L 318.916068 254.138095 
L 319.100446 266.728571 
L 319.284825 254.138095 
L 319.469203 266.728571 
L 319.837961 241.547619 
L 320.022339 241.547619 
L 320.391096 266.728571 
L 320.759853 241.547619 
L 320.944232 241.547619 
L 321.12861 254.138095 
L 321.312989 254.138095 
L 321.497368 241.547619 
L 321.681746 254.138095 
L 322.234882 254.138095 
L 322.41926 241.547619 
L 322.603639 254.138095 
L 322.788017 254.138095 
L 322.972396 241.547619 
L 323.156775 241.547619 
L 323.341153 266.728571 
L 323.525532 254.138095 
L 323.70991 254.138095 
L 323.894289 241.547619 
L 324.263046 241.547619 
L 324.447424 254.138095 
L 326.659967 254.138095 
L 326.844346 266.728571 
L 327.028724 254.138095 
L 327.397481 254.138095 
L 327.58186 241.547619 
L 327.766238 254.138095 
L 328.319374 254.138095 
L 328.503753 266.728571 
L 328.688131 241.547619 
L 329.241267 241.547619 
L 329.425645 254.138095 
L 329.978781 254.138095 
L 330.16316 266.728571 
L 330.347538 241.547619 
L 330.531917 254.138095 
L 330.716295 241.547619 
L 331.269431 241.547619 
L 331.453809 254.138095 
L 331.638188 254.138095 
L 331.822567 241.547619 
L 332.006945 241.547619 
L 332.191324 266.728571 
L 332.560081 241.547619 
L 332.744459 254.138095 
L 332.928838 241.547619 
L 333.297595 241.547619 
L 333.481973 254.138095 
L 333.850731 254.138095 
L 334.035109 241.547619 
L 334.219488 254.138095 
L 334.957002 254.138095 
L 335.14138 241.547619 
L 335.325759 266.728571 
L 335.510138 241.547619 
L 335.694516 241.547619 
L 335.878895 254.138095 
L 336.063273 254.138095 
L 336.247652 241.547619 
L 336.43203 241.547619 
L 336.616409 266.728571 
L 336.800787 241.547619 
L 336.985166 254.138095 
L 337.169545 241.547619 
L 337.353923 241.547619 
L 337.538302 254.138095 
L 337.72268 241.547619 
L 338.460194 241.547619 
L 338.644573 254.138095 
L 338.828952 254.138095 
L 339.01333 241.547619 
L 339.197709 254.138095 
L 339.566466 254.138095 
L 339.750844 241.547619 
L 339.935223 254.138095 
L 340.857116 254.138095 
L 341.041494 241.547619 
L 341.225873 254.138095 
L 341.410251 254.138095 
L 341.59463 241.547619 
L 342.147765 241.547619 
L 342.332144 254.138095 
L 343.069658 254.138095 
L 343.254037 266.728571 
L 343.438415 266.728571 
L 343.622794 254.138095 
L 343.991551 254.138095 
L 344.17593 241.547619 
L 344.360308 254.138095 
L 344.544687 241.547619 
L 344.729065 254.138095 
L 344.913444 241.547619 
L 345.097822 254.138095 
L 346.019715 254.138095 
L 346.204094 241.547619 
L 346.388472 241.547619 
L 346.572851 254.138095 
L 346.941608 254.138095 
L 347.125986 241.547619 
L 347.310365 254.138095 
L 347.863501 254.138095 
L 348.047879 241.547619 
L 348.232258 241.547619 
L 348.416636 254.138095 
L 348.601015 241.547619 
L 348.785393 254.138095 
L 348.969772 254.138095 
L 349.15415 241.547619 
L 349.338529 241.547619 
L 349.522908 254.138095 
L 349.707286 254.138095 
L 349.891665 241.547619 
L 350.076043 254.138095 
L 350.260422 241.547619 
L 350.4448 254.138095 
L 350.629179 254.138095 
L 350.813557 241.547619 
L 350.997936 254.138095 
L 351.551072 254.138095 
L 351.73545 266.728571 
L 351.919829 241.547619 
L 352.104207 254.138095 
L 352.288586 241.547619 
L 352.472964 266.728571 
L 352.657343 241.547619 
L 352.841722 254.138095 
L 353.0261 254.138095 
L 353.210479 241.547619 
L 353.394857 254.138095 
L 354.132371 254.138095 
L 354.31675 241.547619 
L 354.685507 241.547619 
L 354.869886 254.138095 
L 356.160535 254.138095 
L 356.344914 241.547619 
L 356.529293 254.138095 
L 356.713671 254.138095 
L 356.89805 266.728571 
L 357.266807 241.547619 
L 357.451185 254.138095 
L 358.1887 254.138095 
L 358.373078 241.547619 
L 358.557457 241.547619 
L 358.741835 254.138095 
L 358.926214 254.138095 
L 359.110592 241.547619 
L 359.294971 254.138095 
L 359.848107 254.138095 
L 360.032485 241.547619 
L 360.216864 241.547619 
L 360.401242 254.138095 
L 360.585621 254.138095 
L 360.769999 241.547619 
L 360.954378 241.547619 
L 361.138756 254.138095 
L 361.323135 279.319048 
L 361.507514 241.547619 
L 361.691892 241.547619 
L 361.876271 266.728571 
L 362.060649 241.547619 
L 362.245028 254.138095 
L 362.429406 254.138095 
L 362.613785 241.547619 
L 362.798163 254.138095 
L 363.166921 254.138095 
L 363.351299 241.547619 
L 363.720056 241.547619 
L 363.904435 266.728571 
L 364.088813 254.138095 
L 364.273192 254.138095 
L 364.45757 266.728571 
L 364.641949 254.138095 
L 365.195085 254.138095 
L 365.379463 241.547619 
L 365.563842 254.138095 
L 366.301356 254.138095 
L 366.485734 241.547619 
L 366.670113 254.138095 
L 367.960763 254.138095 
L 368.145141 241.547619 
L 368.32952 254.138095 
L 368.513899 241.547619 
L 368.698277 254.138095 
L 368.882656 241.547619 
L 369.067034 241.547619 
L 369.251413 254.138095 
L 369.62017 254.138095 
L 369.804548 241.547619 
L 369.988927 254.138095 
L 370.173306 241.547619 
L 370.357684 254.138095 
L 370.542063 241.547619 
L 370.726441 241.547619 
L 370.91082 266.728571 
L 371.095198 254.138095 
L 371.279577 254.138095 
L 371.463955 241.547619 
L 371.648334 254.138095 
L 371.832712 254.138095 
L 372.017091 241.547619 
L 372.20147 254.138095 
L 372.385848 254.138095 
L 372.570227 266.728571 
L 372.754605 241.547619 
L 372.938984 241.547619 
L 373.123362 254.138095 
L 373.492119 254.138095 
L 373.676498 241.547619 
L 373.860877 254.138095 
L 374.045255 254.138095 
L 374.229634 241.547619 
L 374.414012 241.547619 
L 374.598391 266.728571 
L 374.782769 254.138095 
L 375.520284 254.138095 
L 375.704662 241.547619 
L 375.889041 254.138095 
L 376.073419 254.138095 
L 376.257798 241.547619 
L 376.442176 254.138095 
L 376.995312 254.138095 
L 377.179691 241.547619 
L 377.364069 241.547619 
L 377.548448 254.138095 
L 377.732826 254.138095 
L 377.917205 241.547619 
L 378.101583 254.138095 
L 378.285962 254.138095 
L 378.47034 241.547619 
L 378.654719 241.547619 
L 378.839098 254.138095 
L 379.023476 241.547619 
L 379.207855 254.138095 
L 379.392233 254.138095 
L 379.576612 241.547619 
L 379.945369 241.547619 
L 380.129747 254.138095 
L 380.314126 254.138095 
L 380.498504 266.728571 
L 380.682883 241.547619 
L 380.867262 254.138095 
L 381.05164 241.547619 
L 381.236019 254.138095 
L 381.420397 241.547619 
L 381.604776 254.138095 
L 381.973533 254.138095 
L 382.157911 241.547619 
L 382.34229 254.138095 
L 382.526669 241.547619 
L 382.711047 241.547619 
L 382.895426 254.138095 
L 383.079804 241.547619 
L 383.448561 266.728571 
L 383.63294 241.547619 
L 383.817318 241.547619 
L 384.001697 254.138095 
L 384.370454 254.138095 
L 384.554833 241.547619 
L 384.739211 254.138095 
L 384.92359 254.138095 
L 385.107968 241.547619 
L 385.476725 241.547619 
L 385.661104 254.138095 
L 386.21424 254.138095 
L 386.398618 241.547619 
L 386.582997 241.547619 
L 386.767375 254.138095 
L 386.951754 254.138095 
L 387.136132 241.547619 
L 387.504889 266.728571 
L 387.689268 254.138095 
L 387.873647 254.138095 
L 388.058025 241.547619 
L 388.242404 254.138095 
L 388.426782 241.547619 
L 388.611161 254.138095 
L 388.795539 241.547619 
L 388.979918 241.547619 
L 389.164296 254.138095 
L 389.348675 241.547619 
L 389.533054 241.547619 
L 389.717432 279.319048 
L 389.901811 241.547619 
L 390.086189 254.138095 
L 390.454946 254.138095 
L 390.639325 241.547619 
L 390.823703 254.138095 
L 391.008082 254.138095 
L 391.192461 266.728571 
L 391.561218 241.547619 
L 391.745596 254.138095 
L 391.929975 254.138095 
L 392.114353 241.547619 
L 392.298732 254.138095 
L 392.48311 254.138095 
L 392.667489 241.547619 
L 392.851868 241.547619 
L 393.036246 254.138095 
L 393.589382 254.138095 
L 393.77376 266.728571 
L 394.142517 241.547619 
L 394.326896 254.138095 
L 395.433167 254.138095 
L 395.617546 266.728571 
L 395.801924 254.138095 
L 396.170681 254.138095 
L 396.35506 241.547619 
L 396.539439 241.547619 
L 396.723817 254.138095 
L 397.461331 254.138095 
L 397.64571 241.547619 
L 397.830088 254.138095 
L 398.198846 254.138095 
L 398.383224 241.547619 
L 398.567603 254.138095 
L 398.751981 241.547619 
L 398.93636 254.138095 
L 399.120738 241.547619 
L 399.305117 254.138095 
L 399.489495 241.547619 
L 399.858253 241.547619 
L 400.042631 254.138095 
L 400.22701 241.547619 
L 400.411388 241.547619 
L 400.595767 254.138095 
L 400.780145 241.547619 
L 400.964524 254.138095 
L 401.702038 254.138095 
L 401.886417 241.547619 
L 402.070795 254.138095 
L 402.255174 241.547619 
L 402.992688 241.547619 
L 403.177066 254.138095 
L 403.730202 254.138095 
L 403.914581 241.547619 
L 404.098959 254.138095 
L 404.283338 254.138095 
L 404.467716 241.547619 
L 404.652095 241.547619 
L 404.836473 254.138095 
L 405.205231 254.138095 
L 405.389609 266.728571 
L 405.573988 266.728571 
L 405.758366 241.547619 
L 405.942745 254.138095 
L 406.127123 241.547619 
L 406.311502 266.728571 
L 406.680259 241.547619 
L 406.864638 254.138095 
L 407.049016 254.138095 
L 407.233395 266.728571 
L 407.417773 254.138095 
L 407.602152 254.138095 
L 407.78653 241.547619 
L 408.155287 241.547619 
L 408.339666 254.138095 
L 408.524045 241.547619 
L 408.708423 254.138095 
L 408.892802 241.547619 
L 409.07718 254.138095 
L 409.261559 241.547619 
L 409.445937 254.138095 
L 409.814694 254.138095 
L 409.999073 241.547619 
L 410.183451 266.728571 
L 410.36783 241.547619 
L 410.552209 254.138095 
L 410.920966 254.138095 
L 411.105344 241.547619 
L 411.289723 241.547619 
L 411.474101 254.138095 
L 411.65848 254.138095 
L 411.842858 241.547619 
L 412.027237 254.138095 
L 413.502265 254.138095 
L 413.686644 241.547619 
L 413.871023 254.138095 
L 414.055401 241.547619 
L 414.23978 254.138095 
L 414.424158 254.138095 
L 414.608537 241.547619 
L 414.792915 254.138095 
L 414.977294 254.138095 
L 415.161672 241.547619 
L 415.346051 241.547619 
L 415.53043 254.138095 
L 415.899187 254.138095 
L 416.083565 241.547619 
L 416.267944 254.138095 
L 416.452322 241.547619 
L 416.636701 254.138095 
L 417.005458 254.138095 
L 417.189837 241.547619 
L 417.374215 254.138095 
L 417.558594 241.547619 
L 417.742972 254.138095 
L 417.927351 241.547619 
L 418.111729 254.138095 
L 418.296108 254.138095 
L 418.480486 241.547619 
L 418.664865 254.138095 
L 418.849243 241.547619 
L 419.033622 254.138095 
L 419.218001 241.547619 
L 419.586758 241.547619 
L 419.771136 266.728571 
L 420.139893 266.728571 
L 420.324272 241.547619 
L 420.50865 241.547619 
L 420.693029 266.728571 
L 420.877408 241.547619 
L 421.061786 241.547619 
L 421.246165 254.138095 
L 421.430543 254.138095 
L 421.614922 266.728571 
L 421.7993 254.138095 
L 422.721193 254.138095 
L 422.905572 241.547619 
L 423.08995 241.547619 
L 423.274329 254.138095 
L 423.827464 254.138095 
L 424.011843 241.547619 
L 424.196222 254.138095 
L 424.3806 254.138095 
L 424.564979 241.547619 
L 424.749357 254.138095 
L 425.118114 254.138095 
L 425.302493 241.547619 
L 425.486871 254.138095 
L 426.224386 254.138095 
L 426.408764 241.547619 
L 426.593143 254.138095 
L 426.777521 254.138095 
L 426.9619 241.547619 
L 427.146278 254.138095 
L 428.068171 254.138095 
L 428.25255 266.728571 
L 428.436928 266.728571 
L 428.805685 241.547619 
L 428.990064 254.138095 
L 429.358821 254.138095 
L 429.5432 241.547619 
L 429.727578 254.138095 
L 429.911957 241.547619 
L 430.096335 254.138095 
L 430.280714 241.547619 
L 430.465092 254.138095 
L 430.649471 241.547619 
L 430.833849 254.138095 
L 431.018228 241.547619 
L 431.202607 241.547619 
L 431.386985 254.138095 
L 431.571364 254.138095 
L 431.571364 254.138095 
" style="fill:none;stroke:#ff7f0e;stroke-linecap:square;stroke-width:1.5;"/>
   </g>
   <g id="line2d_31">
    <path clip-path="url(#pe3a3cee279)" d="M 62.998636 40.1 
L 67.792479 40.1 
L 67.976857 203.77619 
L 68.161236 266.728571 
L 91.761691 266.728571 
L 91.946069 254.138095 
L 92.130448 266.728571 
L 132.878108 266.728571 
L 133.062486 254.138095 
L 133.246865 266.728571 
L 374.967148 266.728571 
L 375.151526 254.138095 
L 375.335905 266.728571 
L 431.571364 266.728571 
L 431.571364 266.728571 
" style="fill:none;stroke:#2ca02c;stroke-linecap:square;stroke-width:1.5;"/>
   </g>
   <g id="line2d_32">
    <path clip-path="url(#pe3a3cee279)" d="M 62.998636 266.728571 
L 109.64641 266.728571 
L 109.830789 254.138095 
L 110.015167 266.728571 
L 343.069658 266.728571 
L 343.254037 254.138095 
L 343.438415 266.728571 
L 397.276953 266.728571 
L 397.461331 254.138095 
L 397.64571 266.728571 
L 431.571364 266.728571 
L 431.571364 266.728571 
" style="fill:none;stroke:#d62728;stroke-linecap:square;stroke-width:1.5;"/>
   </g>
   <g id="patch_3">
    <path d="M 44.57 317.72 
L 44.57 26.88 
" style="fill:none;stroke:#000000;stroke-linecap:square;stroke-linejoin:miter;stroke-width:0.8;"/>
   </g>
   <g id="patch_4">
    <path d="M 450 317.72 
L 450 26.88 
" style="fill:none;stroke:#000000;stroke-linecap:square;stroke-linejoin:miter;stroke-width:0.8;"/>
   </g>
   <g id="patch_5">
    <path d="M 44.57 317.72 
L 450 317.72 
" style="fill:none;stroke:#000000;stroke-linecap:square;stroke-linejoin:miter;stroke-width:0.8;"/>
   </g>
   <g id="patch_6">
    <path d="M 44.57 26.88 
L 450 26.88 
" style="fill:none;stroke:#000000;stroke-linecap:square;stroke-linejoin:miter;stroke-width:0.8;"/>
   </g>
   <g id="text_16">
    <!-- Packets -->
    <g transform="translate(224.534688 20.88)scale(0.12 -0.12)">
     <use xlink:href="#DejaVuSans-80"/>
     <use x="55.802734" xlink:href="#DejaVuSans-97"/>
     <use x="117.082031" xlink:href="#DejaVuSans-99"/>
     <use x="172.0625" xlink:href="#DejaVuSans-107"/>
     <use x="226.347656" xlink:href="#DejaVuSans-101"/>
     <use x="287.871094" xlink:href="#DejaVuSans-116"/>
     <use x="327.080078" xlink:href="#DejaVuSans-115"/>
    </g>
   </g>
   <g id="legend_1">
    <g id="patch_7">
     <path d="M 344.415625 93.5925 
L 443 93.5925 
Q 445 93.5925 445 91.5925 
L 445 33.88 
Q 445 31.88 443 31.88 
L 344.415625 31.88 
Q 342.415625 31.88 342.415625 33.88 
L 342.415625 91.5925 
Q 342.415625 93.5925 344.415625 93.5925 
z
" style="fill:#ffffff;opacity:0.8;stroke:#cccccc;stroke-linejoin:miter;"/>
    </g>
    <g id="line2d_33">
     <path d="M 346.415625 39.978437 
L 366.415625 39.978437 
" style="fill:none;stroke:#1f77b4;stroke-linecap:square;stroke-width:1.5;"/>
    </g>
    <g id="line2d_34"/>
    <g id="text_17">
     <!-- kyber512 -->
     <g transform="translate(374.415625 43.478437)scale(0.1 -0.1)">
      <defs>
       <path d="M 32.171875 -5.078125 
Q 28.375 -14.84375 24.75 -17.8125 
Q 21.140625 -20.796875 15.09375 -20.796875 
L 7.90625 -20.796875 
L 7.90625 -13.28125 
L 13.1875 -13.28125 
Q 16.890625 -13.28125 18.9375 -11.515625 
Q 21 -9.765625 23.484375 -3.21875 
L 25.09375 0.875 
L 2.984375 54.6875 
L 12.5 54.6875 
L 29.59375 11.921875 
L 46.6875 54.6875 
L 56.203125 54.6875 
z
" id="DejaVuSans-121"/>
       <path d="M 48.6875 27.296875 
Q 48.6875 37.203125 44.609375 42.84375 
Q 40.53125 48.484375 33.40625 48.484375 
Q 26.265625 48.484375 22.1875 42.84375 
Q 18.109375 37.203125 18.109375 27.296875 
Q 18.109375 17.390625 22.1875 11.75 
Q 26.265625 6.109375 33.40625 6.109375 
Q 40.53125 6.109375 44.609375 11.75 
Q 48.6875 17.390625 48.6875 27.296875 
z
M 18.109375 46.390625 
Q 20.953125 51.265625 25.265625 53.625 
Q 29.59375 56 35.59375 56 
Q 45.5625 56 51.78125 48.09375 
Q 58.015625 40.1875 58.015625 27.296875 
Q 58.015625 14.40625 51.78125 6.484375 
Q 45.5625 -1.421875 35.59375 -1.421875 
Q 29.59375 -1.421875 25.265625 0.953125 
Q 20.953125 3.328125 18.109375 8.203125 
L 18.109375 0 
L 9.078125 0 
L 9.078125 75.984375 
L 18.109375 75.984375 
z
" id="DejaVuSans-98"/>
       <path d="M 41.109375 46.296875 
Q 39.59375 47.171875 37.8125 47.578125 
Q 36.03125 48 33.890625 48 
Q 26.265625 48 22.1875 43.046875 
Q 18.109375 38.09375 18.109375 28.8125 
L 18.109375 0 
L 9.078125 0 
L 9.078125 54.6875 
L 18.109375 54.6875 
L 18.109375 46.1875 
Q 20.953125 51.171875 25.484375 53.578125 
Q 30.03125 56 36.53125 56 
Q 37.453125 56 38.578125 55.875 
Q 39.703125 55.765625 41.0625 55.515625 
z
" id="DejaVuSans-114"/>
      </defs>
      <use xlink:href="#DejaVuSans-107"/>
      <use x="54.285156" xlink:href="#DejaVuSans-121"/>
      <use x="113.464844" xlink:href="#DejaVuSans-98"/>
      <use x="176.941406" xlink:href="#DejaVuSans-101"/>
      <use x="238.464844" xlink:href="#DejaVuSans-114"/>
      <use x="279.578125" xlink:href="#DejaVuSans-53"/>
      <use x="343.201172" xlink:href="#DejaVuSans-49"/>
      <use x="406.824219" xlink:href="#DejaVuSans-50"/>
     </g>
    </g>
    <g id="line2d_35">
     <path d="M 346.415625 54.656563 
L 366.415625 54.656563 
" style="fill:none;stroke:#ff7f0e;stroke-linecap:square;stroke-width:1.5;"/>
    </g>
    <g id="line2d_36"/>
    <g id="text_18">
     <!-- frodoKEM640 -->
     <g transform="translate(374.415625 58.156563)scale(0.1 -0.1)">
      <defs>
       <path d="M 37.109375 75.984375 
L 37.109375 68.5 
L 28.515625 68.5 
Q 23.6875 68.5 21.796875 66.546875 
Q 19.921875 64.59375 19.921875 59.515625 
L 19.921875 54.6875 
L 34.71875 54.6875 
L 34.71875 47.703125 
L 19.921875 47.703125 
L 19.921875 0 
L 10.890625 0 
L 10.890625 47.703125 
L 2.296875 47.703125 
L 2.296875 54.6875 
L 10.890625 54.6875 
L 10.890625 58.5 
Q 10.890625 67.625 15.140625 71.796875 
Q 19.390625 75.984375 28.609375 75.984375 
z
" id="DejaVuSans-102"/>
       <path d="M 30.609375 48.390625 
Q 23.390625 48.390625 19.1875 42.75 
Q 14.984375 37.109375 14.984375 27.296875 
Q 14.984375 17.484375 19.15625 11.84375 
Q 23.34375 6.203125 30.609375 6.203125 
Q 37.796875 6.203125 41.984375 11.859375 
Q 46.1875 17.53125 46.1875 27.296875 
Q 46.1875 37.015625 41.984375 42.703125 
Q 37.796875 48.390625 30.609375 48.390625 
z
M 30.609375 56 
Q 42.328125 56 49.015625 48.375 
Q 55.71875 40.765625 55.71875 27.296875 
Q 55.71875 13.875 49.015625 6.21875 
Q 42.328125 -1.421875 30.609375 -1.421875 
Q 18.84375 -1.421875 12.171875 6.21875 
Q 5.515625 13.875 5.515625 27.296875 
Q 5.515625 40.765625 12.171875 48.375 
Q 18.84375 56 30.609375 56 
z
" id="DejaVuSans-111"/>
       <path d="M 45.40625 46.390625 
L 45.40625 75.984375 
L 54.390625 75.984375 
L 54.390625 0 
L 45.40625 0 
L 45.40625 8.203125 
Q 42.578125 3.328125 38.25 0.953125 
Q 33.9375 -1.421875 27.875 -1.421875 
Q 17.96875 -1.421875 11.734375 6.484375 
Q 5.515625 14.40625 5.515625 27.296875 
Q 5.515625 40.1875 11.734375 48.09375 
Q 17.96875 56 27.875 56 
Q 33.9375 56 38.25 53.625 
Q 42.578125 51.265625 45.40625 46.390625 
z
M 14.796875 27.296875 
Q 14.796875 17.390625 18.875 11.75 
Q 22.953125 6.109375 30.078125 6.109375 
Q 37.203125 6.109375 41.296875 11.75 
Q 45.40625 17.390625 45.40625 27.296875 
Q 45.40625 37.203125 41.296875 42.84375 
Q 37.203125 48.484375 30.078125 48.484375 
Q 22.953125 48.484375 18.875 42.84375 
Q 14.796875 37.203125 14.796875 27.296875 
z
" id="DejaVuSans-100"/>
       <path d="M 9.8125 72.90625 
L 19.671875 72.90625 
L 19.671875 42.09375 
L 52.390625 72.90625 
L 65.09375 72.90625 
L 28.90625 38.921875 
L 67.671875 0 
L 54.6875 0 
L 19.671875 35.109375 
L 19.671875 0 
L 9.8125 0 
z
" id="DejaVuSans-75"/>
       <path d="M 9.8125 72.90625 
L 55.90625 72.90625 
L 55.90625 64.59375 
L 19.671875 64.59375 
L 19.671875 43.015625 
L 54.390625 43.015625 
L 54.390625 34.71875 
L 19.671875 34.71875 
L 19.671875 8.296875 
L 56.78125 8.296875 
L 56.78125 0 
L 9.8125 0 
z
" id="DejaVuSans-69"/>
       <path d="M 9.8125 72.90625 
L 24.515625 72.90625 
L 43.109375 23.296875 
L 61.8125 72.90625 
L 76.515625 72.90625 
L 76.515625 0 
L 66.890625 0 
L 66.890625 64.015625 
L 48.09375 14.015625 
L 38.1875 14.015625 
L 19.390625 64.015625 
L 19.390625 0 
L 9.8125 0 
z
" id="DejaVuSans-77"/>
       <path d="M 33.015625 40.375 
Q 26.375 40.375 22.484375 35.828125 
Q 18.609375 31.296875 18.609375 23.390625 
Q 18.609375 15.53125 22.484375 10.953125 
Q 26.375 6.390625 33.015625 6.390625 
Q 39.65625 6.390625 43.53125 10.953125 
Q 47.40625 15.53125 47.40625 23.390625 
Q 47.40625 31.296875 43.53125 35.828125 
Q 39.65625 40.375 33.015625 40.375 
z
M 52.59375 71.296875 
L 52.59375 62.3125 
Q 48.875 64.0625 45.09375 64.984375 
Q 41.3125 65.921875 37.59375 65.921875 
Q 27.828125 65.921875 22.671875 59.328125 
Q 17.53125 52.734375 16.796875 39.40625 
Q 19.671875 43.65625 24.015625 45.921875 
Q 28.375 48.1875 33.59375 48.1875 
Q 44.578125 48.1875 50.953125 41.515625 
Q 57.328125 34.859375 57.328125 23.390625 
Q 57.328125 12.15625 50.6875 5.359375 
Q 44.046875 -1.421875 33.015625 -1.421875 
Q 20.359375 -1.421875 13.671875 8.265625 
Q 6.984375 17.96875 6.984375 36.375 
Q 6.984375 53.65625 15.1875 63.9375 
Q 23.390625 74.21875 37.203125 74.21875 
Q 40.921875 74.21875 44.703125 73.484375 
Q 48.484375 72.75 52.59375 71.296875 
z
" id="DejaVuSans-54"/>
       <path d="M 37.796875 64.3125 
L 12.890625 25.390625 
L 37.796875 25.390625 
z
M 35.203125 72.90625 
L 47.609375 72.90625 
L 47.609375 25.390625 
L 58.015625 25.390625 
L 58.015625 17.1875 
L 47.609375 17.1875 
L 47.609375 0 
L 37.796875 0 
L 37.796875 17.1875 
L 4.890625 17.1875 
L 4.890625 26.703125 
z
" id="DejaVuSans-52"/>
      </defs>
      <use xlink:href="#DejaVuSans-102"/>
      <use x="35.205078" xlink:href="#DejaVuSans-114"/>
      <use x="74.068359" xlink:href="#DejaVuSans-111"/>
      <use x="135.25" xlink:href="#DejaVuSans-100"/>
      <use x="198.726562" xlink:href="#DejaVuSans-111"/>
      <use x="259.908203" xlink:href="#DejaVuSans-75"/>
      <use x="325.484375" xlink:href="#DejaVuSans-69"/>
      <use x="388.667969" xlink:href="#DejaVuSans-77"/>
      <use x="474.947266" xlink:href="#DejaVuSans-54"/>
      <use x="538.570312" xlink:href="#DejaVuSans-52"/>
      <use x="602.193359" xlink:href="#DejaVuSans-48"/>
     </g>
    </g>
    <g id="line2d_37">
     <path d="M 346.415625 69.334687 
L 366.415625 69.334687 
" style="fill:none;stroke:#2ca02c;stroke-linecap:square;stroke-width:1.5;"/>
    </g>
    <g id="line2d_38"/>
    <g id="text_19">
     <!-- lightsaber -->
     <g transform="translate(374.415625 72.834687)scale(0.1 -0.1)">
      <defs>
       <path d="M 9.421875 75.984375 
L 18.40625 75.984375 
L 18.40625 0 
L 9.421875 0 
z
" id="DejaVuSans-108"/>
       <path d="M 9.421875 54.6875 
L 18.40625 54.6875 
L 18.40625 0 
L 9.421875 0 
z
M 9.421875 75.984375 
L 18.40625 75.984375 
L 18.40625 64.59375 
L 9.421875 64.59375 
z
" id="DejaVuSans-105"/>
       <path d="M 45.40625 27.984375 
Q 45.40625 37.75 41.375 43.109375 
Q 37.359375 48.484375 30.078125 48.484375 
Q 22.859375 48.484375 18.828125 43.109375 
Q 14.796875 37.75 14.796875 27.984375 
Q 14.796875 18.265625 18.828125 12.890625 
Q 22.859375 7.515625 30.078125 7.515625 
Q 37.359375 7.515625 41.375 12.890625 
Q 45.40625 18.265625 45.40625 27.984375 
z
M 54.390625 6.78125 
Q 54.390625 -7.171875 48.1875 -13.984375 
Q 42 -20.796875 29.203125 -20.796875 
Q 24.46875 -20.796875 20.265625 -20.09375 
Q 16.0625 -19.390625 12.109375 -17.921875 
L 12.109375 -9.1875 
Q 16.0625 -11.328125 19.921875 -12.34375 
Q 23.78125 -13.375 27.78125 -13.375 
Q 36.625 -13.375 41.015625 -8.765625 
Q 45.40625 -4.15625 45.40625 5.171875 
L 45.40625 9.625 
Q 42.625 4.78125 38.28125 2.390625 
Q 33.9375 0 27.875 0 
Q 17.828125 0 11.671875 7.65625 
Q 5.515625 15.328125 5.515625 27.984375 
Q 5.515625 40.671875 11.671875 48.328125 
Q 17.828125 56 27.875 56 
Q 33.9375 56 38.28125 53.609375 
Q 42.625 51.21875 45.40625 46.390625 
L 45.40625 54.6875 
L 54.390625 54.6875 
z
" id="DejaVuSans-103"/>
       <path d="M 54.890625 33.015625 
L 54.890625 0 
L 45.90625 0 
L 45.90625 32.71875 
Q 45.90625 40.484375 42.875 44.328125 
Q 39.84375 48.1875 33.796875 48.1875 
Q 26.515625 48.1875 22.3125 43.546875 
Q 18.109375 38.921875 18.109375 30.90625 
L 18.109375 0 
L 9.078125 0 
L 9.078125 75.984375 
L 18.109375 75.984375 
L 18.109375 46.1875 
Q 21.34375 51.125 25.703125 53.5625 
Q 30.078125 56 35.796875 56 
Q 45.21875 56 50.046875 50.171875 
Q 54.890625 44.34375 54.890625 33.015625 
z
" id="DejaVuSans-104"/>
      </defs>
      <use xlink:href="#DejaVuSans-108"/>
      <use x="27.783203" xlink:href="#DejaVuSans-105"/>
      <use x="55.566406" xlink:href="#DejaVuSans-103"/>
      <use x="119.042969" xlink:href="#DejaVuSans-104"/>
      <use x="182.421875" xlink:href="#DejaVuSans-116"/>
      <use x="221.630859" xlink:href="#DejaVuSans-115"/>
      <use x="273.730469" xlink:href="#DejaVuSans-97"/>
      <use x="335.009766" xlink:href="#DejaVuSans-98"/>
      <use x="398.486328" xlink:href="#DejaVuSans-101"/>
      <use x="460.009766" xlink:href="#DejaVuSans-114"/>
     </g>
    </g>
    <g id="line2d_39">
     <path d="M 346.415625 84.012812 
L 366.415625 84.012812 
" style="fill:none;stroke:#d62728;stroke-linecap:square;stroke-width:1.5;"/>
    </g>
    <g id="line2d_40"/>
    <g id="text_20">
     <!-- ntruhrss701 -->
     <g transform="translate(374.415625 87.512812)scale(0.1 -0.1)">
      <defs>
       <path d="M 54.890625 33.015625 
L 54.890625 0 
L 45.90625 0 
L 45.90625 32.71875 
Q 45.90625 40.484375 42.875 44.328125 
Q 39.84375 48.1875 33.796875 48.1875 
Q 26.515625 48.1875 22.3125 43.546875 
Q 18.109375 38.921875 18.109375 30.90625 
L 18.109375 0 
L 9.078125 0 
L 9.078125 54.6875 
L 18.109375 54.6875 
L 18.109375 46.1875 
Q 21.34375 51.125 25.703125 53.5625 
Q 30.078125 56 35.796875 56 
Q 45.21875 56 50.046875 50.171875 
Q 54.890625 44.34375 54.890625 33.015625 
z
" id="DejaVuSans-110"/>
       <path d="M 8.5 21.578125 
L 8.5 54.6875 
L 17.484375 54.6875 
L 17.484375 21.921875 
Q 17.484375 14.15625 20.5 10.265625 
Q 23.53125 6.390625 29.59375 6.390625 
Q 36.859375 6.390625 41.078125 11.03125 
Q 45.3125 15.671875 45.3125 23.6875 
L 45.3125 54.6875 
L 54.296875 54.6875 
L 54.296875 0 
L 45.3125 0 
L 45.3125 8.40625 
Q 42.046875 3.421875 37.71875 1 
Q 33.40625 -1.421875 27.6875 -1.421875 
Q 18.265625 -1.421875 13.375 4.4375 
Q 8.5 10.296875 8.5 21.578125 
z
M 31.109375 56 
z
" id="DejaVuSans-117"/>
      </defs>
      <use xlink:href="#DejaVuSans-110"/>
      <use x="63.378906" xlink:href="#DejaVuSans-116"/>
      <use x="102.587891" xlink:href="#DejaVuSans-114"/>
      <use x="143.701172" xlink:href="#DejaVuSans-117"/>
      <use x="207.080078" xlink:href="#DejaVuSans-104"/>
      <use x="270.458984" xlink:href="#DejaVuSans-114"/>
      <use x="311.572266" xlink:href="#DejaVuSans-115"/>
      <use x="363.671875" xlink:href="#DejaVuSans-115"/>
      <use x="415.771484" xlink:href="#DejaVuSans-55"/>
      <use x="479.394531" xlink:href="#DejaVuSans-48"/>
      <use x="543.017578" xlink:href="#DejaVuSans-49"/>
     </g>
    </g>
   </g>
  </g>
 </g>
 <defs>
  <clipPath id="pe3a3cee279">
   <rect height="290.84" width="405.43" x="44.57" y="26.88"/>
  </clipPath>
 </defs>
</svg>
